<?xml version="1.0" encoding="iso-8859-1"?>
<!-- Generator: Adobe Illustrator 19.0.0, SVG Export Plug-In . SVG Version: 6.00 Build 0)  -->
<svg version="1.1" id="Layer_1" xmlns="http://www.w3.org/2000/svg" xmlns:xlink="http://www.w3.org/1999/xlink" x="0px" y="0px"
	 viewBox="0 0 491.546 491.546" style="enable-background:new 0 0 491.546 491.546;" xml:space="preserve">
<polygon style="fill:#EBF0F3;" points="451.729,491.52 39.817,491.52 39.817,138.257 245.773,24.042 451.729,138.257 "/>
<polygon style="fill:#D15241;" points="138.6,100.09 66.443,121.039 66.443,0 138.6,0 "/>
<polygon style="fill:#E56353;" points="245.777,0 0.013,143.924 0.013,185.346 245.777,41.42 491.533,185.341 491.533,143.92 "/>
<rect x="71.555" y="192.512" style="fill:#E1E6E9;" width="183.772" height="299.008"/>
<rect x="89.444" y="210.381" style="fill:#FCD462;" width="148.024" height="281.129"/>
<circle style="fill:#DC8744;" cx="207.782" cy="328.704" r="13.292"/>
<circle style="fill:#3EA69B;" cx="378.775" cy="98.898" r="98.898"/>
<path style="fill:#FFFFFF;" d="M358.611,143.414c-2.583,0-5.053-1.117-6.755-3.089l-30.772-35.577
	c-3.229-3.735-2.828-9.377,0.908-12.607c3.735-3.229,9.373-2.823,12.602,0.912l23.084,26.688
	c11.913-16.809,38.723-49.876,73.876-64.32c4.538-1.872,9.792,0.297,11.66,4.87c1.876,4.564-0.305,9.783-4.87,11.66
	c-41.708,17.145-71.773,66.628-72.07,67.126c-1.475,2.457-4.041,4.058-6.895,4.303C359.126,143.401,358.864,143.414,358.611,143.414
	z"/>
<rect x="302.02" y="363.096" transform="matrix(-0.7071 -0.7071 0.7071 -0.7071 371.6581 886.3937)" style="fill:#DC8744;" width="134.774" height="6.257"/>
<path style="fill:#64798A;" d="M422.184,340.154c-0.409-3.138,0.945-6.251,3.335-8.325l45.969-38.874
	c8.973-7.79,10.236-21.757,1.976-30.298c-8.379-8.663-22.342-8.258-30.21,0.806l-39.459,46.643c-2.075,2.39-5.187,3.744-8.324,3.336
	c-9.213-1.2-18.859,1.733-25.936,8.81l43.838,43.838C420.451,359.012,423.384,349.366,422.184,340.154z"/>
<path style="fill:#FCD462;" d="M439.143,386.319l-89.837-89.837c-3.116-3.116-8.168-3.116-11.284,0l-18.286,18.286l101.122,101.122
	l18.286-18.286C442.26,394.487,442.26,389.435,439.143,386.319z"/>
<ellipse style="fill:#F6C358;" cx="382.282" cy="353.392" rx="10.143" ry="10.143"/>
<ellipse style="fill:#FFFFFF;" cx="382.282" cy="353.392" rx="9.277" ry="9.277"/>
<path style="fill:#EBF0F3;" d="M389.636,354.126c-0.364,0.877-0.897,1.701-1.61,2.413c-2.909,2.909-7.624,2.909-10.533,0
	c-1.649-1.649-2.329-3.876-2.108-6.028c-1.119,2.7-0.586,5.924,1.61,8.12c2.908,2.908,7.624,2.908,10.533,0
	C388.787,357.371,389.467,355.77,389.636,354.126z"/>
<ellipse style="fill:#2D93BA;" cx="280.527" cy="418.918" rx="72.576" ry="72.627"/>
<ellipse style="fill:#27A2DB;" cx="280.527" cy="418.918" rx="60.467" ry="60.508"/>
<path style="fill:#2D93BA;" d="M278.031,465.983v-8.293c-10.376-1.059-19.689-5.187-27.93-12.38l8.288-9.883
	c6.357,5.529,12.898,8.82,19.642,9.883v-22.041c-8.555-2.043-14.82-4.734-18.792-8.067c-3.973-3.333-5.959-8.275-5.959-14.825
	s2.282-11.908,6.865-16.078c4.583-4.165,10.542-6.435,17.887-6.814v-5.681h7.262v5.792c8.324,0.61,16.196,3.449,23.615,8.524
	l-7.382,10.452c-4.998-3.559-10.403-5.755-16.233-6.592v21.357h0.342c8.703,2.048,15.097,4.812,19.18,8.293
	c4.093,3.486,6.135,8.543,6.135,15.167c0,6.629-2.347,12.028-7.04,16.189c-4.693,4.17-10.893,6.439-18.617,6.818v8.178H278.031z
	 M270.021,392.653c-1.931,1.701-2.892,3.823-2.892,6.361s0.758,4.544,2.273,6.019c1.506,1.479,4.389,2.898,8.629,4.262v-19.656
	C274.622,389.944,271.952,390.947,270.021,392.653z M293.922,442.467c2.116-1.738,3.178-3.934,3.178-6.587
	c0-2.649-0.832-4.752-2.495-6.305c-1.672-1.553-4.777-3.009-9.313-4.373v20.446C288.924,445.273,291.797,444.21,293.922,442.467z"/>
<g>
	<path style="fill:#E56353;" d="M199.244,407.364l-3.796,6.337l-3.693-0.939l16.697-27.852l3.693,0.939l1.362,32.445l-3.695-0.94
		l-0.307-7.38L199.244,407.364z M209.292,404.915l-0.562-13.368l-6.883,11.475L209.292,404.915z"/>
	<path style="fill:#E56353;" d="M237.184,395.019c0.981,2.116,1.007,5,0.078,8.652c-0.929,3.652-2.336,6.14-4.225,7.466
		c-1.887,1.327-4.335,1.607-7.343,0.842l-3.635-0.925l-2.249,8.841l-3.459-0.88l7.668-30.148l7.035,1.789
		C234.161,391.447,236.204,392.901,237.184,395.019z M231.572,406.839c0.969-0.903,1.717-2.396,2.247-4.481
		c0.53-2.083,0.466-3.669-0.195-4.756c-0.661-1.086-1.928-1.867-3.805-2.345l-3.516-0.894l-3.071,12.076l4.015,1.021
		C229.162,407.947,230.604,407.74,231.572,406.839z"/>
	<path style="fill:#E56353;" d="M257.232,400.118c0.981,2.116,1.007,5,0.078,8.652c-0.929,3.652-2.336,6.14-4.225,7.466
		c-1.887,1.327-4.335,1.607-7.343,0.842l-3.635-0.925l-2.249,8.841l-3.459-0.88l7.668-30.148l7.035,1.789
		C254.209,396.546,256.252,398,257.232,400.118z M251.62,411.938c0.969-0.903,1.717-2.396,2.247-4.481
		c0.53-2.083,0.466-3.669-0.195-4.756c-0.661-1.086-1.928-1.867-3.805-2.345l-3.516-0.894l-3.071,12.076l4.015,1.021
		C249.21,413.046,250.652,412.839,251.62,411.938z"/>
	<path style="fill:#E56353;" d="M277.983,413.017c-1.265,4.975-3.539,7.732-6.819,8.277l2.579,12.319l-4.396-1.118l-2.317-11.38
		l-4.544-1.156l-2.578,10.135l-3.459-0.88l7.668-30.148l7.622,1.938c3.125,0.795,5.167,2.142,6.12,4.036
		C278.81,406.936,278.853,409.596,277.983,413.017z M272.293,416.116c0.93-0.711,1.647-2.053,2.148-4.022
		c0.501-1.969,0.482-3.414-0.054-4.33c-0.536-0.917-1.734-1.612-3.589-2.084l-4.396-1.118l-2.742,10.782l4.308,1.096
		C269.92,416.936,271.365,416.829,272.293,416.116z"/>
	<path style="fill:#E56353;" d="M295.994,434.84c-2.828,2.45-5.766,3.287-8.814,2.512c-3.049-0.775-5.23-2.915-6.543-6.418
		c-1.316-3.502-1.408-7.475-0.279-11.917c1.13-4.444,3.108-7.888,5.938-10.338c2.828-2.45,5.765-3.285,8.814-2.51
		c3.049,0.775,5.23,2.913,6.544,6.416c1.316,3.504,1.408,7.475,0.278,11.919C300.803,428.946,298.824,432.392,295.994,434.84z
		 M298.26,415.326c-0.857-2.483-2.302-3.982-4.334-4.499c-2.032-0.517-4.018,0.11-5.957,1.882c-1.937,1.774-3.292,4.176-4.064,7.21
		s-0.729,5.792,0.126,8.274c0.857,2.484,2.301,3.984,4.334,4.501c2.032,0.517,4.018-0.11,5.957-1.884
		c1.936-1.772,3.292-4.174,4.063-7.208C299.157,420.567,299.114,417.81,298.26,415.326z"/>
	<path style="fill:#E56353;" d="M311.41,443.192l-3.869-0.984l-0.57-32.243l3.869,0.984l0.576,24.117l12.028-20.911l3.869,0.984
		L311.41,443.192z"/>
	<path style="fill:#E56353;" d="M344.638,419.545l-1.218,4.788l-10.933-2.78l-2.029,7.98l9.819,2.497l-1.152,4.528l-9.819-2.497
		l-2.051,8.066l11.286,2.87l-1.218,4.787l-14.745-3.75l7.668-30.148L344.638,419.545z"/>
	<path style="fill:#E56353;" d="M363.918,428.65c1.306,3.133,1.361,7.043,0.169,11.73c-1.192,4.686-3.092,8.152-5.702,10.396
		c-2.61,2.245-5.889,2.865-9.835,1.862l-6.801-1.73l7.668-30.148l7.035,1.789C360.124,423.483,362.614,425.518,363.918,428.65z
		 M360.566,439.621c1.755-6.9-0.054-11.034-5.428-12.401l-3.459-0.88L346.425,447l3.841,0.977c2.481,0.631,4.603,0.246,6.365-1.16
		C358.392,445.414,359.703,443.016,360.566,439.621z"/>
</g>
<g>
</g>
<g>
</g>
<g>
</g>
<g>
</g>
<g>
</g>
<g>
</g>
<g>
</g>
<g>
</g>
<g>
</g>
<g>
</g>
<g>
</g>
<g>
</g>
<g>
</g>
<g>
</g>
<g>
</g>
</svg>
