<svg height="469pt" viewBox="-80 0 469 469.33333" width="469pt" xmlns="http://www.w3.org/2000/svg"><path d="m309.5 21.332031v256c-.035156 11.769531-9.566406 21.300781-21.332031 21.335938h-21.335938v-298.667969h21.335938c11.765625.0351562 21.296875 9.566406 21.332031 21.332031zm0 0" fill="#898890"/><path d="m234.832031 0v298.667969h-117.332031v-21.335938l52.265625-52.265625c8.039063-7.988281 12.558594-18.855468 12.558594-30.1875 0-11.332031-4.519531-22.195312-12.558594-30.1875l-7.464844-7.464844c-4.191406-4.160156-10.957031-4.160156-15.148437 0l-45.4375 45.441407h-16.214844v-181.335938c.035156-11.765625 9.566406-21.2968748 21.332031-21.332031zm0 0" fill="#898890"/><path d="m234.832031 0h32v298.667969h-32zm0 0" fill="#57565c"/><path d="m117.5 298.667969v-21.335938l52.265625-52.265625c8.039063-7.988281 12.558594-18.855468 12.558594-30.1875 0-11.332031-4.519531-22.195312-12.558594-30.1875l-7.464844-7.464844c-4.1875-4.171874-10.960937-4.171874-15.148437 0l-45.4375 45.441407h-16.214844v-96l-51.5 51.496093c-8.003906 8.003907-12.5 18.859376-12.5 30.175782v216.992187h149.332031v-21.332031c23.566407 0 42.667969-19.101562 42.667969-42.667969v-42.664062zm0 0" fill="#ffdaaa"/><path d="m.167969 405.332031v64h202.664062v-64zm0 0" fill="#3599d7"/><path d="m234.832031 176.535156v122.132813h-117.332031v-21.335938l46.1875-46.183593c25.644531-15.546876 49.5-33.859376 71.144531-54.613282zm0 0" fill="#787680"/><path d="m266.832031 141.011719v157.65625h-32v-122.132813c11.515625-11.050781 22.207031-22.921875 32-35.523437zm0 0" fill="#3e3d42"/><path d="m309.5 69.332031v208c-.035156 11.769531-9.566406 21.300781-21.332031 21.335938h-21.335938v-157.65625c17.296875-21.921875 31.640625-46.023438 42.667969-71.679688zm0 0" fill="#787680"/></svg>