<svg height="463pt" viewBox="0 -44 463.66348 463" width="463pt" xmlns="http://www.w3.org/2000/svg"><g fill="#00d7df"><path d="m380.785156 14.222656c-1.210937-8.746094-9.242187-14.886718-18-13.757812l-348.882812 46.238281c-4.214844.558594-8.03125 2.769531-10.613282 6.144531-2.582031 3.378906-3.714843 7.644532-3.144531 11.855469l4.238281 31.761719 380.640626-50.480469zm0 0"/><path d="m10.625 143.984375 18.957031 142.800781c1.164063 8.738282 9.175781 14.894532 17.921875 13.757813l32.160156-4.238281v-161.441407zm0 0"/><path d="m394.625 118.625-3.363281-25.121094-189.4375 25.121094zm0 0"/></g><path d="m95.664062 118.625h352c8.835938 0 16 7.160156 16 16v224c0 8.835938-7.164062 16-16 16h-352c-8.835937 0-16-7.164062-16-16v-224c0-8.839844 7.164063-16 16-16zm0 0" fill="#00ddc2"/><path d="m4.304688 96.464844 6.320312 47.519531-6.242188-47.519531zm0 0" fill="#78b9eb"/><path d="m463.664062 134.625v224c-.027343 8.824219-7.175781 15.972656-16 16h-352c-8.828124-.027344-15.972656-7.175781-16-16v-17.042969c85.597657-17.679687 238.640626-70 344.078126-222.957031h23.921874c8.824219.023438 15.972657 7.171875 16 16zm0 0" fill="#00ccb3"/><path d="m79.664062 134.625c.027344-8.828125 7.171876-15.976562 16-16h106.160157l189.4375-25.121094-6.238281-47.519531-380.640626 50.480469 6.242188 47.519531 69.039062-9.121094zm0 0" fill="#808285"/><path d="m351.664062 198.625c0 17.671875-14.328124 32-32 32-17.671874 0-32-14.328125-32-32 0-17.675781 14.328126-32 32-32 17.671876 0 32 14.324219 32 32zm0 0" fill="#ff7956"/><path d="m415.664062 198.625c0 17.671875-14.328124 32-32 32-17.671874 0-32-14.328125-32-32 0-17.675781 14.328126-32 32-32 17.671876 0 32 14.324219 32 32zm0 0" fill="#ffde55"/><path d="m127.664062 278.625h288v48h-288zm0 0" fill="#ff9275"/><path d="m119.664062 166.625h16v16h-16zm0 0" fill="#3d9ae2"/><path d="m151.664062 166.625h96v16h-96zm0 0" fill="#3d9ae2"/><path d="m119.664062 198.625h128v16h-128zm0 0" fill="#3d9ae2"/></svg>