<svg height="512pt" viewBox="0 -35 512.001 512" width="512pt" xmlns="http://www.w3.org/2000/svg"><path d="m508.003906 349.488281h-504.007812c-2.207032 0-3.996094-1.789062-3.996094-3.996093v-341.496094c0-2.207032 1.789062-3.996094 3.996094-3.996094h504.007812c2.207032 0 3.996094 1.789062 3.996094 3.996094v341.496094c0 2.207031-1.789062 3.996093-3.996094 3.996093zm0 0" fill="#b5fcff"/><path d="m0 287.816406h512v30.835938h-512zm0 0" fill="#3be3eb"/><path d="m508.003906 349.488281h-25.898437c-.558594 0-1.011719-.453125-1.011719-1.011719v-347.464843c0-.558594.453125-1.011719 1.011719-1.011719h25.898437c2.207032 0 3.996094 1.789062 3.996094 3.996094v341.496094c0 2.207031-1.789062 3.996093-3.996094 3.996093zm0 0" fill="#71f6fc"/><path d="m508.003906 349.488281h-25.898437c-.558594 0-1.011719-.453125-1.011719-1.011719v-348.476562h26.910156c2.207032 0 3.996094 1.789062 3.996094 3.996094v341.496094c0 2.207031-1.789062 3.996093-3.996094 3.996093zm0 0" fill="#71f6fc"/><path d="m512 287.816406v57.679688c0 2.195312-1.800781 3.992187-4 3.992187h-25.894531c-.554688 0-1.011719-.453125-1.011719-1.007812v-60.664063zm0 0" fill="#2bc3d4"/><path d="m0 345.492188v-26.839844h512v26.839844c0 2.207031-1.789062 3.996093-3.996094 3.996093h-504.007812c-2.207032 0-3.996094-1.789062-3.996094-3.996093zm0 0" fill="#685c79"/><path d="m481.09375 318.652344v26.726562c0 2.269532-1.84375 4.109375-4.121094 4.109375h31.027344c2.210938 0 4-1.785156 4-3.988281v-26.847656zm0 0" fill="#594f69"/><path d="m81.914062 392.660156h-.03125c-8.527343 0-15.4375-6.910156-15.4375-15.4375v-27.734375h30.90625v27.734375c0 8.527344-6.910156 15.4375-15.4375 15.4375zm0 0" fill="#594f69"/><path d="m430.117188 392.660156h-.03125c-8.527344 0-15.4375-6.910156-15.4375-15.4375v-27.734375h30.90625v27.734375c0 8.527344-6.910157 15.4375-15.4375 15.4375zm0 0" fill="#594f69"/><path d="m309.578125 442h-107.15625c-4.546875 0-8.234375-3.683594-8.234375-8.230469v-199.398437c0-4.546875 3.6875-8.230469 8.234375-8.230469h107.15625c4.546875 0 8.230469 3.6875 8.230469 8.230469v199.398437c.003906 4.546875-3.683594 8.230469-8.230469 8.230469zm0 0" fill="#d5dfe8"/><path d="m317.8125 304.261719v92.511719h-123.625v-92.511719zm0 0" fill="#ff2c5c"/><path d="m317.8125 234.363281v199.414063c0 4.542968-3.691406 8.222656-8.242188 8.222656h-30.90625c4.554688 0 8.242188-3.679688 8.242188-8.222656v-199.414063c0-4.542969-3.6875-8.222656-8.242188-8.222656h30.90625c4.550782 0 8.242188 3.679687 8.242188 8.222656zm0 0" fill="#cad2db"/><path d="m286.90625 304.261719h30.902344v92.511719h-30.902344zm0 0" fill="#e62753"/><path d="m128.269531 136.710938h-72.136719c-5.683593 0-10.289062-4.605469-10.289062-10.289063v-71.929687c0-5.683594 4.605469-10.292969 10.289062-10.292969h72.136719c5.679688 0 10.289063 4.609375 10.289063 10.292969v71.929687c0 5.683594-4.605469 10.289063-10.289063 10.289063zm0 0" fill="#ff2c5c"/><path d="m455.867188 136.710938h-270.046876c-5.683593 0-10.289062-4.605469-10.289062-10.289063v-71.929687c0-5.683594 4.605469-10.292969 10.289062-10.292969h270.046876c5.683593 0 10.289062 4.609375 10.289062 10.292969v71.929687c0 5.683594-4.605469 10.289063-10.289062 10.289063zm0 0" fill="#ffd659"/><path d="m247.757812 265.199219c0-8.515625-6.917968-15.417969-15.453124-15.417969-8.53125 0-15.453126 6.902344-15.453126 15.417969s6.921876 15.421875 15.453126 15.421875c8.535156 0 15.453124-6.90625 15.453124-15.421875zm0 0" fill="#ff2c5c"/><g fill="#ffd659"><path d="m239.261719 329.207031h-15.453125c-4.144532 0-7.5 3.359375-7.5 7.5 0 4.144531 3.355468 7.5 7.5 7.5h15.453125c4.140625 0 7.5-3.355469 7.5-7.5 0-4.140625-3.359375-7.5-7.5-7.5zm0 0"/><path d="m272.738281 344.207031h15.453125c4.144532 0 7.5-3.355469 7.5-7.5 0-4.140625-3.355468-7.5-7.5-7.5h-15.453125c-4.140625 0-7.5 3.359375-7.5 7.5 0 4.144531 3.359375 7.5 7.5 7.5zm0 0"/><path d="m239.261719 356.824219h-15.453125c-4.144532 0-7.5 3.359375-7.5 7.5s3.355468 7.5 7.5 7.5h15.453125c4.140625 0 7.5-3.359375 7.5-7.5s-3.359375-7.5-7.5-7.5zm0 0"/><path d="m288.191406 356.824219h-15.453125c-4.140625 0-7.5 3.359375-7.5 7.5s3.359375 7.5 7.5 7.5h15.453125c4.144532 0 7.5-3.359375 7.5-7.5s-3.355468-7.5-7.5-7.5zm0 0"/></g><path d="m135.46875 164.675781h-88.597656c-4.140625 0-7.5 3.355469-7.5 7.5 0 4.140625 3.359375 7.5 7.5 7.5h88.597656c4.144531 0 7.5-3.359375 7.5-7.5 0-4.144531-3.359375-7.5-7.5-7.5zm0 0" fill="#685c79"/><path d="m135.46875 195h-88.597656c-4.140625 0-7.5 3.355469-7.5 7.5 0 4.140625 3.359375 7.5 7.5 7.5h88.597656c4.144531 0 7.5-3.359375 7.5-7.5 0-4.144531-3.359375-7.5-7.5-7.5zm0 0" fill="#685c79"/><path d="m135.46875 225.320312h-88.597656c-4.140625 0-7.5 3.359376-7.5 7.5 0 4.144532 3.359375 7.5 7.5 7.5h88.597656c4.144531 0 7.5-3.355468 7.5-7.5 0-4.140624-3.359375-7.5-7.5-7.5zm0 0" fill="#685c79"/></svg>