<svg height="512pt" viewBox="0 0 512 512" width="512pt" xmlns="http://www.w3.org/2000/svg"><path d="m512 120v241h-512v-241l29.800781-30h454.601563zm0 0" fill="#ff9f00"/><path d="m484.402344 90 27.597656 30v241h-256v-271zm0 0" fill="#ff7816"/><path d="m512 60v60h-512v-60l37.300781-30h443.5zm0 0" fill="#5a5a5a"/><path d="m512 60v60h-256v-90h224.800781zm0 0" fill="#444"/><path d="m0 0h512v60h-512zm0 0" fill="#ff9f00"/><path d="m61 181h120v30h-120zm0 0" fill="#5a5a5a"/><path d="m256 0h256v60h-256zm0 0" fill="#ff7816"/><path d="m256 241c-74.398438 0-135 60.597656-135 135 0 74.398438 60.601562 136 135 136s136-61.601562 136-136c0-74.402344-61.601562-135-136-135zm0 0" fill="#73bcff"/><path d="m392 376c0 74.398438-61.601562 136-136 136v-271c74.398438 0 136 60.597656 136 135zm0 0" fill="#3aaaff"/><path d="m326.5 356.5-70.5 70.800781-15 15-55.5-55.800781 21-21 34.5 34.199219 15-15 49.5-49.199219zm0 0" fill="#deecf1"/><path d="m326.5 356.5-70.5 70.800781v-42.601562l49.5-49.199219zm0 0" fill="#c6e2e7"/></svg>