<?xml version="1.0"?>
<svg xmlns="http://www.w3.org/2000/svg" height="512px" viewBox="0 -21 512 512" width="512px" class=""><g><path d="m452 10h-392c-27.613281 0-50 22.386719-50 50v180h492v-180c0-27.613281-22.386719-50-50-50zm0 0" fill="#5ad2e6" data-original="#5AD2E6" class="" style="fill:#FFAA00" data-old_color="#FFD100"/><path d="m70 200h100c22.089844 0 40-17.910156 40-40v-60h-140zm0 0" fill="#e6e6e6" data-original="#E6E6E6" class=""/><path d="m10 240h492v60h-492zm0 0" fill="#6e6e6e" data-original="#6E6E6E" class=""/><path d="m10 300v10c0 27.613281 22.386719 50 50 50h392c27.613281 0 50-22.386719 50-50v-10zm0 0" fill="#4696e6" data-original="#4696E6" class="" style="fill:#FFAA00" data-old_color="#00B7FF"/><path d="m336 424.445312-44.445312-44.445312 44.445312-44.445312-35.554688-35.554688-44.445312 44.445312-44.445312-44.445312-35.554688 35.554688 44.445312 44.445312-44.445312 44.445312 35.554688 35.554688 44.445312-44.445312 44.445312 44.445312zm0 0" fill="#f03c32" data-original="#F03C32" class="" style="fill:#F03C32"/><path d="m452 0h-392c-33.085938 0-60 26.914062-60 60v250c0 33.085938 26.914062 60 60 60h136.300781l10 10-37.371093 37.371094c-3.90625 3.90625-3.90625 10.238281 0 14.144531l35.554687 35.554687c3.90625 3.90625 10.238281 3.90625 14.144531 0l37.371094-37.371093 37.371094 37.371093c1.953125 1.953126 4.515625 2.929688 7.074218 2.929688 2.558594 0 5.117188-.976562 7.070313-2.929688l35.554687-35.554687c3.90625-3.90625 3.90625-10.238281 0-14.144531l-37.371093-37.371094 10-10h136.300781c33.085938 0 60-26.914062 60-60v-250c0-33.085938-26.914062-60-60-60zm-432 290v-40h472v40zm256.300781 20-20.300781 20.300781-20.300781-20.300781zm-256.300781-250c0-22.054688 17.945312-40 40-40h392c22.054688 0 40 17.945312 40 40v170h-472zm40 290c-22.054688 0-40-17.945312-40-40h167.414062l-18.484374 18.484375c-3.90625 3.90625-3.90625 10.238281 0 14.144531l7.371093 7.371094zm224.484375 37.070312 37.375 37.375-21.414063 21.410157-37.375-37.371094c-1.953124-1.953125-4.511718-2.929687-7.070312-2.929687s-5.117188.976562-7.070312 2.929687l-37.375 37.371094-21.414063-21.410157 37.375-37.375c3.90625-3.90625 3.90625-10.234374 0-14.140624l-37.375-37.375 21.414063-21.414063 37.375 37.375c3.90625 3.902344 10.234374 3.902344 14.140624 0l37.375-37.375 21.414063 21.414063-37.375 37.375c-3.90625 3.90625-3.90625 10.234374 0 14.140624zm167.515625-37.070312h-116.300781l7.371093-7.371094c3.90625-3.90625 3.90625-10.238281 0-14.144531l-18.484374-18.484375h167.414062c0 22.054688-17.945312 40-40 40zm0 0" data-original="#000000" class="active-path" style="fill:#00B7FF" data-old_color="#BAFF00"/><path d="m210 90h-140c-5.523438 0-10 4.476562-10 10v100c0 5.523438 4.476562 10 10 10h100c27.570312 0 50-22.429688 50-50v-60c0-5.523438-4.476562-10-10-10zm-40 100h-10v-30c0-5.523438-4.476562-10-10-10s-10 4.476562-10 10v30h-20v-40h4c5.523438 0 10-4.476562 10-10s-4.476562-10-10-10h-14c-5.523438 0-10 4.476562-10 10v50h-20v-80h81v10c0 5.523438 4.476562 10 10 10s10-4.476562 10-10v-10h19v40h-10c-5.523438 0-10 4.476562-10 10s4.476562 10 10 10h8.28125c-4.128906 11.640625-15.246094 20-28.28125 20zm0 0" data-original="#000000" class="active-path" style="fill:#00B7FF" data-old_color="#BAFF00"/><path d="m210 40h-140c-5.523438 0-10 4.476562-10 10s4.476562 10 10 10h140c5.523438 0 10-4.476562 10-10s-4.476562-10-10-10zm0 0" data-original="#000000" class="active-path" style="fill:#00B7FF" data-old_color="#BAFF00"/><path d="m430 40h-140c-5.523438 0-10 4.476562-10 10s4.476562 10 10 10h140c5.523438 0 10-4.476562 10-10s-4.476562-10-10-10zm0 0" data-original="#000000" class="active-path" style="fill:#00B7FF" data-old_color="#BAFF00"/><path d="m370 100c0-5.511719-4.488281-10-10-10s-10 4.488281-10 10 4.488281 10 10 10 10-4.488281 10-10zm0 0" data-original="#000000" class="active-path" style="fill:#00B7FF" data-old_color="#BAFF00"/><path d="m290 110h30c5.511719 0 10-4.488281 10-10s-4.488281-10-10-10h-30c-5.511719 0-10 4.488281-10 10s4.488281 10 10 10zm0 0" data-original="#000000" class="active-path" style="fill:#00B7FF" data-old_color="#BAFF00"/><path d="m430 90h-30c-5.511719 0-10 4.488281-10 10s4.488281 10 10 10h30c5.511719 0 10-4.488281 10-10s-4.488281-10-10-10zm0 0" data-original="#000000" class="active-path" style="fill:#00B7FF" data-old_color="#BAFF00"/><path d="m430 140c-5.511719 0-10 4.488281-10 10s4.488281 10 10 10 10-4.488281 10-10-4.488281-10-10-10zm0 0" data-original="#000000" class="active-path" style="fill:#00B7FF" data-old_color="#BAFF00"/><path d="m290 160h100c5.511719 0 10-4.488281 10-10s-4.488281-10-10-10h-100c-5.511719 0-10 4.488281-10 10s4.488281 10 10 10zm0 0" data-original="#000000" class="active-path" style="fill:#00B7FF" data-old_color="#BAFF00"/><path d="m430 190h-80c-5.523438 0-10 4.476562-10 10s4.476562 10 10 10h80c5.523438 0 10-4.476562 10-10s-4.476562-10-10-10zm0 0" data-original="#000000" class="active-path" style="fill:#00B7FF" data-old_color="#BAFF00"/><path d="m310 190h-20c-5.523438 0-10 4.476562-10 10s4.476562 10 10 10h20c5.523438 0 10-4.476562 10-10s-4.476562-10-10-10zm0 0" data-original="#000000" class="active-path" style="fill:#00B7FF" data-old_color="#BAFF00"/></g> </svg>
