<svg height="441pt" viewBox="-29 0 441 441.935" width="441pt" xmlns="http://www.w3.org/2000/svg"><path d="m293.507812 361.664062v50.269532c0 16.570312-13.429687 30-30 30h-233.039062c-16.570312 0-30-13.429688-30-30v-311.46875c0-16.570313 13.429688-30 30-30h70v261.199218c0 16.570313 13.429688 30 30 30zm0 0" fill="#fedb41"/><path d="m382.777344 88.800781-1.148438 1-85.101562-87.671875.96875-1.035156-1.027344-1.09375h-176c-16.570312 0-30.480469 13.570312-30.480469 30.128906v311.472656c.191407 16.738282 13.738281 30.25 30.480469 30.398438h233.039062c16.742188-.148438 30.285157-13.660156 30.480469-30.398438v-251.800781zm0 0" fill="#00acea"/><path d="m382.539062 88.863281-1.03125 1h-68.742187c-9 0-16.296875-7.296875-16.296875-16.296875v-71.367187l1-.96875zm0 0" fill="#fedb41"/><path d="m328.289062 321.375h-187.621093c-5.523438 0-10-4.476562-10-10s4.476562-10 10-10h187.621093c5.519532 0 10 4.476562 10 10s-4.480468 10-10 10zm0 0" fill="#00efd1"/><path d="m252.988281 277.433594h-112.320312c-5.523438 0-10-4.476563-10-10 0-5.523438 4.476562-10 10-10h112.320312c5.523438 0 10 4.476562 10 10 0 5.523437-4.476562 10-10 10zm0 0" fill="#00efd1"/><path d="m236.988281 113.179688c9.671875.011718 17.507813 7.847656 17.519531 17.519531 0 5.523437 4.476563 10 10 10 5.523438 0 10-4.476563 10-10-.023437-17.246094-11.785156-32.261719-28.519531-36.421875v-9.277344c0-5.523438-4.476562-10-10-10-5.523437 0-10 4.476562-10 10v9.828125c-19.8125 6.082031-30.945312 27.074219-24.863281 46.886719 4.835938 15.753906 19.382812 26.507812 35.863281 26.515625 9.679688-.003907 17.527344 7.839843 17.527344 17.519531.003906 9.679688-7.839844 17.527344-17.519531 17.527344-9.675782.003906-17.527344-7.839844-17.527344-17.519532 0 0 0-.003906 0-.007812 0-5.523438-4.476562-10-10-10s-10 4.476562-10 10c.019531 16.480469 10.769531 31.023438 26.519531 35.882812v8.367188c0 5.523438 4.476563 10 10 10 5.523438 0 10-4.476562 10-10v-7.820312c20.117188-4.972657 32.394531-25.316407 27.417969-45.433594-4.140625-16.746094-19.167969-28.511719-36.417969-28.515625-9.679687 0-17.527343-7.847657-17.527343-17.527344 0-9.675781 7.847656-17.523437 17.527343-17.523437zm0 0" fill="#fedb41"/></svg>