<svg height="512pt" viewBox="-37 0 512 512" width="512pt" xmlns="http://www.w3.org/2000/svg"><path d="m438.257812 108.417969-.019531 68.175781c-3.78125 66.574219-23.019531 130.917969-55.625 186.070312-34.667969 58.625-82.453125 105.128907-142.035156 138.238282l-.390625.21875-21.058594 10.878906-21.449218-11.097656c-59.582032-33.109375-107.367188-79.613282-142.035157-138.238282-32.605469-55.152343-51.84375-119.496093-55.6249998-186.070312l-.0195312-.851562v-67.324219l8.410156-4.109375c54.605469-26.695313 76.839844-52.554688 103.378906-97l4.371094-7.308594h205.9375l4.371094 7.308594c26.535156 44.445312 48.773438 70.304687 103.378906 97zm0 0" fill="#ff623f"/><path d="m438.257812 108.417969-.019531 68.175781c-3.78125 66.574219-23.019531 130.917969-55.625 186.070312-34.667969 58.625-82.453125 105.128907-142.035156 138.238282l-.390625.21875-21.058594 10.878906v-512h102.96875l4.371094 7.308594c26.535156 44.445312 48.773438 70.304687 103.378906 97zm0 0" fill="#e70020"/><path d="m326.316406 186.832031v80.703125h-66.832031v66.84375h-80.710937v-66.84375h-66.835938v-80.703125h66.835938v-66.84375h80.710937v66.84375zm0 0" fill="#e1e1e3"/><path d="m326.316406 186.832031v80.703125h-66.832031v66.84375h-40.355469v-214.390625h40.355469v66.84375zm0 0" fill="#d9d9db"/></svg>