<?xml version="1.0" encoding="iso-8859-1"?>
<!-- Generator: Adobe Illustrator 19.0.0, SVG Export Plug-In . SVG Version: 6.00 Build 0)  -->
<svg version="1.1" id="Layer_1" xmlns="http://www.w3.org/2000/svg" xmlns:xlink="http://www.w3.org/1999/xlink" x="0px" y="0px"
	 viewBox="0 0 512.001 512.001" style="enable-background:new 0 0 512.001 512.001;" xml:space="preserve">
<polyline style="fill:#FD5D65;" points="406.939,130.162 406.939,58.494 355.189,58.494 355.189,95.904 "/>
<path style="fill:#E0B394;" d="M386.555,345.483l28.721-59.638c5.857-12.173,20.119-17.711,32.627-12.741
	c0.063,0.025,0.125,0.049,0.189,0.075c13.192,5.352,19.504,20.414,14.09,33.581l-5.891,14.323"/>
<polygon style="fill:#E6E6E6;" points="213.058,139.3 213.058,387.396 420.739,387.396 420.739,139.3 316.898,70.54 "/>
<polygon style="fill:#CCCCCC;" points="316.898,70.54 213.058,139.299 213.058,178.399 316.898,109.641 420.739,178.399 
	420.739,139.299 "/>
<path style="fill:#415E72;" d="M457.794,172.468c-1.635,0-3.288-0.465-4.754-1.435L316.898,80.885l-136.141,90.148
	c-3.97,2.63-9.322,1.543-11.953-2.43c-2.63-3.972-1.542-9.323,2.43-11.953l140.903-93.301c2.887-1.911,6.637-1.911,9.523,0
	l140.903,93.301c3.972,2.63,5.059,7.981,2.43,11.953C463.334,171.109,460.59,172.468,457.794,172.468z"/>
<polyline style="fill:#B7E8ED;" points="344.827,289.645 361.744,289.645 361.744,189.595 272.043,189.595 272.043,236.871 "/>
<path style="fill:#F7CBA4;" d="M492.214,376.577l-170.166,70.978c-17.101,7.153-36.214,7.878-53.809,2.07L91.402,391.366
	c-9.085-3.001-18.975-2.53-27.75,1.323l-7.015,3.071L12.57,293.569L0,264.405l82.961-55.269
	c25.277-16.836,57.029-21.701,85.733-11.845c1.161,0.403,2.323,0.817,3.473,1.265l156.044,59.858
	c7.084,2.703,12.328,8.073,15.088,14.49c2.852,6.601,3.094,14.306-0.034,21.448c-5.612,12.857-20.148,19.263-33.431,14.709
	l-99.004-33.856c-6.13-2.104-12.489-1.668-17.963,0.702c-6.785,2.921-12.225,8.798-14.272,16.549
	c-3.347,12.616,3.6,25.657,15.916,29.969l113.46,39.651c10.097,3.531,21.08,3.519,31.154,0l130.089-45.517
	c15.951-5.589,33.477,2.139,40.147,17.607c0.035,0.069,0.069,0.15,0.092,0.23C516.399,350.805,508.648,369.722,492.214,376.577z"/>
<polygon style="fill:#B3B3B3;" points="370.369,298.27 336.202,298.27 336.202,281.02 353.119,281.02 353.119,198.22 
	280.668,198.22 280.668,245.497 263.418,245.497 263.418,180.97 370.369,180.97 "/>
<path style="fill:#E0B394;" d="M172.167,198.556c-55.016,10.58-130.388,70.38-159.598,95.014L0,264.405l82.961-55.269
	c25.277-16.836,57.029-21.701,85.733-11.845C169.856,197.693,171.017,198.107,172.167,198.556z"/>
<g>
</g>
<g>
</g>
<g>
</g>
<g>
</g>
<g>
</g>
<g>
</g>
<g>
</g>
<g>
</g>
<g>
</g>
<g>
</g>
<g>
</g>
<g>
</g>
<g>
</g>
<g>
</g>
<g>
</g>
</svg>
