<svg xmlns="http://www.w3.org/2000/svg" height="512pt" version="1.1" viewBox="-26 0 512 512" width="512pt">
<g id="surface1">
<path d="M 264.828125 0 L 35.308594 0 C 15.808594 0 0 15.808594 0 35.308594 L 0 52.964844 L 300.136719 52.964844 L 300.136719 35.308594 C 300.136719 15.808594 284.328125 0 264.828125 0 Z M 264.828125 0 " style=" stroke:none;fill-rule:nonzero;fill:rgb(74.509804%,74.509804%,76.078431%);fill-opacity:1;" />
<path d="M 0 52.964844 L 300.136719 52.964844 L 300.136719 459.035156 L 0 459.035156 Z M 0 52.964844 " style=" stroke:none;fill-rule:nonzero;fill:rgb(80%,99.215686%,100%);fill-opacity:1;" />
<path d="M 88.277344 459.035156 L 300.136719 459.035156 L 300.136719 247.171875 C 300.207031 364.113281 205.464844 458.964844 88.523438 459.035156 C 88.441406 459.035156 88.359375 459.035156 88.277344 459.035156 Z M 88.277344 459.035156 " style=" stroke:none;fill-rule:nonzero;fill:rgb(60.784314%,98.431373%,100%);fill-opacity:1;" />
<path d="M 35.308594 512 L 264.828125 512 C 284.328125 512 300.136719 496.191406 300.136719 476.691406 L 300.136719 459.035156 L 0 459.035156 L 0 476.691406 C 0 496.191406 15.808594 512 35.308594 512 Z M 35.308594 512 " style=" stroke:none;fill-rule:nonzero;fill:rgb(74.509804%,74.509804%,76.078431%);fill-opacity:1;" />
<path d="M 344.277344 176.550781 L 114.757812 176.550781 C 114.757812 200.929688 95 220.691406 70.621094 220.691406 L 70.621094 344.277344 C 95 344.277344 114.757812 364.039062 114.757812 388.414062 L 344.277344 388.414062 C 344.277344 364.039062 364.039062 344.277344 388.414062 344.277344 L 388.414062 220.691406 C 364.039062 220.691406 344.277344 200.929688 344.277344 176.550781 Z M 229.519531 361.929688 C 185.640625 361.929688 150.070312 326.359375 150.070312 282.480469 C 150.070312 238.605469 185.640625 203.035156 229.519531 203.035156 C 273.394531 203.035156 308.964844 238.605469 308.964844 282.480469 C 308.964844 326.359375 273.394531 361.929688 229.519531 361.929688 Z M 229.519531 361.929688 " style=" stroke:none;fill-rule:nonzero;fill:rgb(50.980392%,74.509804%,33.333333%);fill-opacity:1;" />
<path d="M 344.277344 388.414062 L 388.414062 388.414062 L 388.414062 344.277344 C 364.039062 344.277344 344.277344 364.039062 344.277344 388.414062 Z M 344.277344 388.414062 " style=" stroke:none;fill-rule:nonzero;fill:rgb(60.784314%,87.45098%,41.176471%);fill-opacity:1;" />
<path d="M 114.757812 176.550781 L 70.621094 176.550781 L 70.621094 220.691406 C 95 220.691406 114.757812 200.929688 114.757812 176.550781 Z M 114.757812 176.550781 " style=" stroke:none;fill-rule:nonzero;fill:rgb(60.784314%,87.45098%,41.176471%);fill-opacity:1;" />
<path d="M 141.242188 176.550781 L 388.414062 176.550781 L 388.414062 335.449219 L 459.035156 335.449219 L 459.035156 123.585938 L 141.242188 123.585938 Z M 141.242188 176.550781 " style=" stroke:none;fill-rule:nonzero;fill:rgb(45.882353%,66.27451%,31.372549%);fill-opacity:1;" />
<path d="M 229.519531 203.035156 C 185.640625 203.035156 150.070312 238.605469 150.070312 282.480469 C 150.070312 326.359375 185.640625 361.929688 229.519531 361.929688 C 273.394531 361.929688 308.964844 326.359375 308.964844 282.480469 C 308.964844 238.605469 273.394531 203.035156 229.519531 203.035156 Z M 229.519531 282.480469 C 239.269531 282.480469 247.171875 290.386719 247.171875 300.136719 C 247.171875 309.886719 239.269531 317.792969 229.519531 317.792969 C 219.765625 317.792969 211.863281 309.886719 211.863281 300.136719 C 211.863281 309.886719 219.765625 317.792969 229.519531 317.792969 C 239.269531 317.792969 247.171875 309.886719 247.171875 300.136719 C 247.171875 290.386719 239.269531 282.480469 229.519531 282.480469 C 219.765625 282.480469 211.863281 274.578125 211.863281 264.828125 C 211.863281 255.078125 219.765625 247.171875 229.519531 247.171875 C 239.269531 247.171875 247.171875 255.078125 247.171875 264.828125 C 247.171875 255.078125 239.269531 247.171875 229.519531 247.171875 C 219.765625 247.171875 211.863281 255.078125 211.863281 264.828125 C 211.863281 274.578125 219.765625 282.480469 229.519531 282.480469 Z M 229.519531 282.480469 " style=" stroke:none;fill-rule:nonzero;fill:rgb(60.784314%,87.45098%,41.176471%);fill-opacity:1;" />
<path d="M 70.621094 344.277344 L 70.621094 388.414062 L 114.757812 388.414062 C 114.757812 364.039062 95 344.277344 70.621094 344.277344 Z M 70.621094 344.277344 " style=" stroke:none;fill-rule:nonzero;fill:rgb(60.784314%,87.45098%,41.176471%);fill-opacity:1;" />
<path d="M 388.414062 220.691406 L 388.414062 176.550781 L 344.277344 176.550781 C 344.277344 200.929688 364.039062 220.691406 388.414062 220.691406 Z M 388.414062 220.691406 " style=" stroke:none;fill-rule:nonzero;fill:rgb(60.784314%,87.45098%,41.176471%);fill-opacity:1;" />
<path d="M 176.550781 35.308594 L 158.898438 35.308594 C 154.019531 35.308594 150.070312 31.359375 150.070312 26.484375 C 150.070312 21.609375 154.023438 17.65625 158.898438 17.65625 L 176.550781 17.65625 C 181.425781 17.65625 185.378906 21.609375 185.378906 26.484375 C 185.378906 31.359375 181.425781 35.308594 176.550781 35.308594 Z M 176.550781 35.308594 " style=" stroke:none;fill-rule:nonzero;fill:rgb(94.509804%,94.901961%,94.901961%);fill-opacity:1;" />
<path d="M 167.722656 494.34375 L 132.414062 494.34375 C 127.539062 494.34375 123.585938 490.390625 123.585938 485.519531 C 123.585938 480.640625 127.539062 476.691406 132.414062 476.691406 L 167.722656 476.691406 C 172.597656 476.691406 176.550781 480.644531 176.550781 485.519531 C 176.550781 490.390625 172.597656 494.34375 167.722656 494.34375 Z M 167.722656 494.34375 " style=" stroke:none;fill-rule:nonzero;fill:rgb(94.509804%,94.901961%,94.901961%);fill-opacity:1;" />
<path d="M 132.414062 35.308594 L 123.585938 35.308594 C 118.710938 35.308594 114.761719 31.359375 114.761719 26.484375 C 114.761719 21.609375 118.710938 17.65625 123.585938 17.65625 L 132.414062 17.65625 C 137.289062 17.65625 141.242188 21.609375 141.242188 26.484375 C 141.242188 31.359375 137.289062 35.308594 132.414062 35.308594 Z M 132.414062 35.308594 " style=" stroke:none;fill-rule:nonzero;fill:rgb(94.509804%,94.901961%,94.901961%);fill-opacity:1;" />
<path d="M 44.136719 123.585938 L 26.484375 123.585938 L 26.484375 79.449219 L 70.621094 79.449219 L 70.621094 97.101562 L 44.136719 97.101562 Z M 44.136719 123.585938 " style=" stroke:none;fill-rule:nonzero;fill:rgb(60.784314%,98.431373%,100%);fill-opacity:1;" />
<path d="M 70.621094 432.550781 L 26.484375 432.550781 L 26.484375 388.414062 L 44.136719 388.414062 L 44.136719 414.894531 L 70.621094 414.894531 Z M 70.621094 432.550781 " style=" stroke:none;fill-rule:nonzero;fill:rgb(60.784314%,98.431373%,100%);fill-opacity:1;" />
<path d="M 123.585938 291.308594 L 105.929688 291.308594 C 101.054688 291.308594 97.105469 287.359375 97.105469 282.484375 C 97.105469 277.609375 101.054688 273.65625 105.929688 273.65625 L 123.585938 273.65625 C 128.460938 273.65625 132.414062 277.609375 132.414062 282.484375 C 132.414062 287.359375 128.460938 291.308594 123.585938 291.308594 Z M 123.585938 291.308594 " style=" stroke:none;fill-rule:nonzero;fill:rgb(30.588235%,56.470588%,11.764706%);fill-opacity:1;" />
<path d="M 353.101562 291.308594 L 335.449219 291.308594 C 330.574219 291.308594 326.621094 287.359375 326.621094 282.484375 C 326.621094 277.609375 330.574219 273.65625 335.449219 273.65625 L 353.101562 273.65625 C 357.980469 273.65625 361.929688 277.609375 361.929688 282.484375 C 361.929688 287.359375 357.980469 291.308594 353.101562 291.308594 Z M 353.101562 291.308594 " style=" stroke:none;fill-rule:nonzero;fill:rgb(30.588235%,56.470588%,11.764706%);fill-opacity:1;" />
<path d="M 229.519531 291.308594 C 214.890625 291.308594 203.035156 279.453125 203.035156 264.828125 C 203.035156 250.203125 214.890625 238.34375 229.519531 238.34375 C 244.144531 238.34375 256 250.203125 256 264.828125 C 256 269.703125 252.046875 273.65625 247.171875 273.65625 C 242.296875 273.65625 238.34375 269.703125 238.34375 264.828125 C 238.34375 259.953125 234.394531 256 229.519531 256 C 224.644531 256 220.691406 259.953125 220.691406 264.828125 C 220.691406 269.703125 224.644531 273.65625 229.519531 273.65625 C 234.394531 273.65625 238.34375 277.609375 238.34375 282.480469 C 238.34375 287.359375 234.394531 291.308594 229.519531 291.308594 Z M 229.519531 291.308594 " style=" stroke:none;fill-rule:nonzero;fill:rgb(30.588235%,56.470588%,11.764706%);fill-opacity:1;" />
<path d="M 229.519531 326.621094 C 214.890625 326.621094 203.035156 314.765625 203.035156 300.136719 C 203.035156 295.261719 206.988281 291.3125 211.863281 291.3125 C 216.738281 291.3125 220.691406 295.265625 220.691406 300.136719 C 220.691406 305.015625 224.640625 308.964844 229.515625 308.964844 C 234.390625 308.964844 238.34375 305.011719 238.34375 300.136719 C 238.34375 295.261719 234.390625 291.3125 229.515625 291.3125 C 224.640625 291.3125 220.691406 287.359375 220.691406 282.484375 C 220.691406 277.609375 224.640625 273.65625 229.515625 273.65625 C 244.144531 273.65625 256 285.515625 256 300.140625 C 256 314.765625 244.144531 326.621094 229.519531 326.621094 Z M 229.519531 326.621094 " style=" stroke:none;fill-rule:nonzero;fill:rgb(30.588235%,56.470588%,11.764706%);fill-opacity:1;" />
<path d="M 229.519531 256 C 224.640625 256 220.691406 252.046875 220.691406 247.171875 L 220.691406 229.519531 C 220.691406 224.640625 224.644531 220.691406 229.519531 220.691406 C 234.394531 220.691406 238.34375 224.644531 238.34375 229.519531 L 238.34375 247.171875 C 238.34375 252.046875 234.394531 256 229.519531 256 Z M 229.519531 256 " style=" stroke:none;fill-rule:nonzero;fill:rgb(30.588235%,56.470588%,11.764706%);fill-opacity:1;" />
<path d="M 229.519531 344.277344 C 224.640625 344.277344 220.691406 340.324219 220.691406 335.449219 L 220.691406 317.792969 C 220.691406 312.917969 224.644531 308.964844 229.519531 308.964844 C 234.394531 308.964844 238.34375 312.917969 238.34375 317.792969 L 238.34375 335.449219 C 238.34375 340.324219 234.394531 344.277344 229.519531 344.277344 Z M 229.519531 344.277344 " style=" stroke:none;fill-rule:nonzero;fill:rgb(30.588235%,56.470588%,11.764706%);fill-opacity:1;" />
</g>
</svg>