<?xml version="1.0"?>
<svg xmlns="http://www.w3.org/2000/svg" xmlns:xlink="http://www.w3.org/1999/xlink" version="1.1" id="Capa_1" x="0px" y="0px" viewBox="0 0 512 512" style="enable-background:new 0 0 512 512;" xml:space="preserve" width="512px" height="512px" class=""><g><g>
	<path style="fill:#000000" d="M99.62,119.467h19.845v-51.2H99.62c-3.414,0-6.181,2.767-6.181,6.181v38.838   C93.439,116.7,96.206,119.467,99.62,119.467z" data-original="#2E4F5A" class="" data-old_color="#1"/>
	<path style="fill:#000000" d="M99.62,162.135h19.845v-25.6H99.62c-3.414,0-6.181,2.767-6.181,6.181v13.238   C93.439,159.367,96.206,162.135,99.62,162.135z" data-original="#2E4F5A" class="" data-old_color="#1"/>
	<path style="fill:#000000" d="M392.532,93.866h19.847c3.414,0,6.181-2.767,6.181-6.181V74.447c0-3.414-2.767-6.181-6.181-6.181   h-19.847V93.866z" data-original="#2E4F5A" class="" data-old_color="#1"/>
	<path style="fill:#000000" d="M110.933,34.132C110.933,15.282,126.214,0,145.065,0h221.869c18.85,0,34.132,15.282,34.132,34.132   v443.736c0,18.85-15.282,34.132-34.132,34.132H145.065c-18.85,0-34.132-15.282-34.132-34.132   C110.933,477.868,110.933,34.132,110.933,34.132z" data-original="#2E4F5A" class="" data-old_color="#1"/>
</g><path style="fill:#0E3003" d="M366.933,0h-25.6c18.85,0,34.132,15.281,34.132,34.132v443.736c0,18.85-15.282,34.132-34.132,34.132  h25.6c18.85,0,34.132-15.282,34.132-34.132V34.132C401.065,15.282,385.785,0,366.933,0z" data-original="#2A4752" class="" data-old_color="#3FFF00"/><path style="fill:#C1C1C1;" d="M281.601,42.366h-51.202c-4.418,0-8-3.581-8-8s3.582-8,8-8h51.202c4.418,0,8,3.581,8,8  S286.019,42.366,281.601,42.366z" data-original="#C1C1C1" class=""/><rect x="110.929" y="68.27" style="fill:#4AAA25" width="290.13" height="375.47" data-original="#00A7CC" class="active-path" data-old_color="#4EAF29"/><circle style="fill:#076D06" cx="255.999" cy="256" r="85.33" data-original="#F4B641" class="" data-old_color="#055004"/><path style="fill:#5EC023" d="M264,248.973v-34.228c5.69,2.92,9.6,8.835,9.6,15.657c0,4.418,3.581,8,8,8c4.418,0,8-3.581,8-8  c0-15.77-10.924-29.03-25.6-32.63v-1.502c0-4.418-3.581-8-8-8c-4.418,0-8,3.581-8,8v1.502c-14.676,3.599-25.6,16.86-25.6,32.63  c0,15.769,10.923,29.029,25.6,32.629v34.228c-5.69-2.92-9.599-8.835-9.599-15.657c0-4.418-3.582-8-8-8c-4.418,0-8,3.581-8,8  c0,15.77,10.923,29.03,25.6,32.63v1.505c0,4.418,3.582,8,8,8c4.418,0,8-3.581,8-8v-1.505c14.676-3.599,25.6-16.86,25.6-32.63  C289.6,265.832,278.676,252.573,264,248.973z M238.4,230.402c0-6.822,3.91-12.737,9.599-15.657v31.312  C242.309,243.138,238.4,237.224,238.4,230.402z M264,297.259v-31.312c5.69,2.92,9.6,8.834,9.6,15.656  C273.599,288.424,269.69,294.339,264,297.259z" data-original="#FB8436" class="" data-old_color="#6CCA34"/><rect x="375.47" y="68.27" style="fill:#63C86A" width="25.598" height="375.47" data-original="#0095C2" class="" data-old_color="#64D36C"/></g> </svg>
