<svg height="512pt" viewBox="0 0 512 512" width="512pt" xmlns="http://www.w3.org/2000/svg"><path d="m512 256c0 141.386719-114.613281 256-256 256s-256-114.613281-256-256 114.613281-256 256-256 256 114.613281 256 256zm0 0" fill="#0c99e6"/><path d="m141.160156 114.839844v99.777344h47.042969v-99.777344c0-37.445313 30.355469-67.796875 67.796875-67.796875s67.796875 30.351562 67.796875 67.796875v99.777344h47.042969v-99.777344c0-63.425782-51.414063-114.839844-114.839844-114.839844s-114.839844 51.414062-114.839844 114.839844zm0 0" fill="#3e4a68"/><path d="m256 20.90625c-51.792969 0-93.929688 42.140625-93.929688 93.933594v99.777344h26.132813v-99.777344c0-37.441406 30.355469-67.796875 67.796875-67.796875s67.792969 30.355469 67.792969 67.796875v99.777344h26.136719v-99.777344c0-51.792969-42.136719-93.933594-93.929688-93.933594zm0 0" fill="#303a59"/><path d="m382.929688 226.039062h-68.613282c-2.992187 0-5.417968-2.429687-5.417968-5.421874v-39.234376c0-2.992187 2.425781-5.421874 5.417968-5.421874h68.613282c2.992187 0 5.417968 2.429687 5.417968 5.421874v39.234376c0 2.996093-2.425781 5.421874-5.417968 5.421874zm0 0" fill="#ebf0f3"/><path d="m348.898438 220.617188v-39.234376c0-2.992187 2.425781-5.421874 5.417968-5.421874h-40c-2.992187 0-5.417968 2.429687-5.417968 5.421874v39.234376c0 2.992187 2.425781 5.421874 5.417968 5.421874h40c-2.992187 0-5.417968-2.425781-5.417968-5.421874zm0 0" fill="#c7d9ff"/><path d="m197.683594 226.039062h-68.613282c-2.992187 0-5.417968-2.429687-5.417968-5.421874v-39.234376c0-2.992187 2.425781-5.421874 5.417968-5.421874h68.613282c2.992187 0 5.417968 2.429687 5.417968 5.421874v39.234376c0 2.996093-2.425781 5.421874-5.417968 5.421874zm0 0" fill="#ebf0f3"/><path d="m163.652344 220.617188v-39.234376c0-2.992187 2.425781-5.421874 5.417968-5.421874h-40c-2.992187 0-5.417968 2.429687-5.417968 5.421874v39.234376c0 2.992187 2.425781 5.421874 5.417968 5.421874h40c-2.992187 0-5.417968-2.425781-5.417968-5.421874zm0 0" fill="#c7d9ff"/><path d="m428 215c0-7.730469-6.269531-14-14-14h-316c-7.730469 0-14 6.269531-14 14v230.609375c45.449219 41.253906 105.789062 66.390625 172 66.390625s126.550781-25.136719 172-66.390625zm0 0" fill="#ff3345"/><path d="m84 215v230.609375c15.128906 13.730469 31.90625 25.679687 50 35.503906v-266.113281c0-7.730469 6.269531-14 14-14h-50c-7.730469 0-14 6.269531-14 14zm0 0" fill="#e32828"/><g fill="#aa1e1e"><path d="m158.101562 335.019531h-74.101562v-30h74.101562c8.285157 0 15 6.714844 15 15 0 8.285157-6.714843 15-15 15zm0 0"/><path d="m158.101562 414.019531h-74.101562v-30h74.101562c8.285157 0 15 6.714844 15 15 0 8.285157-6.714843 15-15 15zm0 0"/><path d="m353.898438 384.019531h74.101562v30h-74.101562c-8.285157 0-15-6.71875-15-15 0-8.285156 6.714843-15 15-15zm0 0"/><path d="m353.898438 305.019531h74.101562v30h-74.101562c-8.285157 0-15-6.71875-15-15 0-8.285156 6.714843-15 15-15zm0 0"/><path d="m291.222656 305.859375c-7.765625-7.765625-20.351562-7.765625-28.117187 0l-6.597657 6.597656c-.28125.28125-.734374.28125-1.015624 0l-6.261719-6.261719c-7.621094-7.621093-20.042969-8.1875-27.929688-.839843-8.28125 7.714843-8.457031 20.683593-.523437 28.621093l7.109375 7.105469 13.113281 13.113281v49.804688c0 8.285156 6.714844 15 15 15s15-6.714844 15-15v-49.804688l13.113281-13.113281 7.109375-7.105469c7.761719-7.765624 7.761719-20.355468 0-28.117187zm0 0"/></g></svg>