<svg height="480pt" viewBox="0 0 480 480" width="480pt" xmlns="http://www.w3.org/2000/svg"><path d="m8 8h464v464h-464zm0 0" fill="#fff7d9"/><path d="m48 48h64v64h-64zm0 0" fill="#78b9eb"/><path d="m368 48h64v64h-64zm0 0" fill="#78b9eb"/><path d="m48 368h64v64h-64zm0 0" fill="#78b9eb"/><path d="m72 72h16v16h-16zm0 0" fill="#ffb655"/><path d="m16 16h64v-16h-72c-4.417969 0-8 3.582031-8 8v72h16zm0 0" fill="#ff6243"/><path d="m16 400h-16v72c0 4.417969 3.582031 8 8 8h72v-16h-64zm0 0" fill="#ff6243"/><path d="m472 0h-72v16h64v64h16v-72c0-4.417969-3.582031-8-8-8zm0 0" fill="#ff6243"/><path d="m464 464h-48v16h56c4.417969 0 8-3.582031 8-8v-72h-16zm0 0" fill="#ff6243"/><path d="m392 72h16v16h-16zm0 0" fill="#ffb655"/><path d="m72 392h16v16h-16zm0 0" fill="#ffb655"/><g fill="#ff7956"><path d="m136 72h16v16h-16zm0 0"/><path d="m248 72h16v16h-16zm0 0"/><path d="m280 72v32h32v-16h-16v-16zm0 0"/><path d="m168 80v16h16v-32h128v16h16v-32h-176v16h16zm0 0"/><path d="m136 104h16v32h-16zm0 0"/><path d="m152 136h16v16h-16zm0 0"/><path d="m168 104v16h16v16h32v-32h8v-16h8v-16h-32v16h8v16zm0 0"/><path d="m232 120h16v16h-16zm0 0"/><path d="m320 168v32h16v-16h16v-16zm0 0"/><path d="m248 104h16v16h-16zm0 0"/><path d="m168 376h32v-16h-16v-16h-16zm0 0"/><path d="m328 88h16v16h-16zm0 0"/><path d="m320 120h32v32h-32zm0 0"/><path d="m48 248v80h16v-64h16v-16zm0 0"/><path d="m48 136h80v16h-80zm0 0"/><path d="m80 168h-32v48h16v-16h16zm0 0"/><path d="m200 248v-16h16v-32h16v-16h16v-16h-16v-16h-16v32h-16v-16h-32v32h16v48zm0 0"/><path d="m136 432h16v-16h24v16h16v-16h8v-16h-48v-16h-16zm0 0"/><path d="m304 272v-16h16v-16h16v-32h-48v32h-16v16h16v16zm0 0"/><path d="m280 176h16v-16h-16v-16h-16v48h16zm0 0"/><path d="m88 168h32v16h-32zm0 0"/><path d="m136 168h16v16h-16zm0 0"/><path d="m88 248h16v16h-16zm0 0"/><path d="m136 264h16v16h-16zm0 0"/><path d="m152 248h16v16h-16zm0 0"/><path d="m152 376h16v16h-16zm0 0"/><path d="m72 216h16v16h-16zm0 0"/><path d="m88 200h32v16h-32zm0 0"/><path d="m120 216h16v16h-16zm0 0"/><path d="m248 208h16v16h-16zm0 0"/><path d="m232 224h16v16h-16zm0 0"/><path d="m256 264h16v16h-16zm0 0"/><path d="m360 248h32v16h-32zm0 0"/><path d="m392 264h16v16h-16zm0 0"/><path d="m224 264h16v16h-16zm0 0"/><path d="m216 264h-32v16h-16v16h32v-16h16zm0 0"/><path d="m232 400v16h-16v16h32v-16h16v-16zm0 0"/><path d="m312 400v16h-16v16h32v-16h16v-16zm0 0"/><path d="m384 168v-16h16v-16h-32v16h-16v16zm0 0"/><path d="m240 320h16v16h-16zm0 0"/><path d="m240 352h16v16h-16zm0 0"/><path d="m216 392h16v16h-16zm0 0"/><path d="m224 320v-16h-16v32h16zm0 0"/><path d="m256 368h16v16h-16zm0 0"/><path d="m376 416h-32v16h48v-32h-16zm0 0"/><path d="m376 376h16v16h-16zm0 0"/><path d="m344 376h16v16h-16zm0 0"/><path d="m312 376h16v16h-16zm0 0"/><path d="m328 360h16v16h-16zm0 0"/><path d="m280 408h16v16h-16zm0 0"/><path d="m136 232h16v16h-16zm0 0"/><path d="m416 432h16v-48h-32v16h16zm0 0"/><path d="m408 360h16v16h-16zm0 0"/><path d="m432 344v-48h-16v32h-16v16zm0 0"/><path d="m416 264h16v16h-16zm0 0"/><path d="m432 136h-16v72h-32v-16h-32v32h64v24h16zm0 0"/><path d="m272 352h48v-32h-16v-32h-48v32h16zm0 0"/><path d="m136 296v-16h-64v64h32v-16h-16v-16h32v48h16v-16h32v-16h-16v-16h16v-16zm0 0"/><path d="m408 296h-32v-16h-32v32h16v48h16v-16h16v-32h16zm0 0"/></g></svg>