<?xml version="1.0" encoding="iso-8859-1"?>
<!-- Generator: Adobe Illustrator 19.0.0, SVG Export Plug-In . SVG Version: 6.00 Build 0)  -->
<svg version="1.1" id="Layer_1" xmlns="http://www.w3.org/2000/svg" xmlns:xlink="http://www.w3.org/1999/xlink" x="0px" y="0px"
	 viewBox="0 0 491.52 491.52" style="enable-background:new 0 0 491.52 491.52;" xml:space="preserve">
<path style="fill:#27A2DB;" d="M386.599,0H104.92C90.825,0,79.399,11.426,79.399,25.521v440.477
	c0,14.095,11.426,25.521,25.521,25.521h281.679c14.095,0,25.521-11.426,25.521-25.521V25.521C412.121,11.426,400.694,0,386.599,0z"
	/>
<rect x="106.209" y="40.484" style="fill:#EBF0F3;" width="279.091" height="382.413"/>
<rect x="106.209" y="407.603" style="fill:#D5D6DB;" width="279.091" height="15.304"/>
<path style="fill:#2D93BA;" d="M245.764,477.459c-12.82,0-23.249-10.429-23.249-23.249s10.429-23.249,23.249-23.249
	c12.812,0,23.241,10.429,23.241,23.249S258.576,477.459,245.764,477.459z M245.764,439.897c-7.889,0-14.313,6.423-14.313,14.313
	c0,7.889,6.423,14.313,14.313,14.313s14.304-6.423,14.304-14.313C260.068,446.32,253.654,439.897,245.764,439.897z"/>
<rect x="146.913" y="334.08" style="fill:#D5D6DB;" width="197.699" height="39.542"/>
<rect x="146.913" y="327.731" style="fill:#64798A;" width="197.699" height="39.542"/>
<g>
	<path style="fill:#FFFFFF;" d="M228.273,336.479c1.882,1.598,2.821,4.05,2.821,7.361c0,3.311-0.967,5.732-2.896,7.268
		c-1.932,1.532-4.877,2.3-8.84,2.3h-3.564v7.477h-5.982v-26.802h9.471C223.398,334.083,226.394,334.882,228.273,336.479z
		 M223.882,347.023c0.718-0.805,1.077-1.982,1.077-3.529c0-1.545-0.468-2.643-1.401-3.295s-2.384-0.98-4.353-0.98h-3.411v9.012
		h4.025C221.813,348.231,223.168,347.828,223.882,347.023z"/>
	<path style="fill:#FFFFFF;" d="M253.293,360.885l-2.493-5.789h-11.234l-2.493,5.789h-6.363l11.58-26.802h5.789l11.58,26.802
		H253.293z M245.201,342.059l-3.373,7.783h6.709L245.201,342.059z"/>
	<path style="fill:#FFFFFF;" d="M272.428,360.885h-5.979v-10.582l-9.28-16.22h6.481l5.789,9.97l5.789-9.97h6.481l-9.28,16.22
		V360.885z"/>
</g>
<rect x="172.308" y="57.487" style="fill:#3EA69B;" width="146.903" height="250.076"/>
<path style="fill:#44C4A1;" d="M293.356,297.071h-95.192c0-8.483-6.877-15.36-15.36-15.36V83.346c8.483,0,15.36-6.877,15.36-15.36
	h95.192c0,8.483,6.877,15.36,15.36,15.36v198.365C300.233,281.711,293.356,288.588,293.356,297.071z"/>
<g>
	<ellipse style="fill:#3EA69B;" cx="245.76" cy="182.528" rx="50.109" ry="39.588"/>
	<circle style="fill:#3EA69B;" cx="245.76" cy="89.682" r="8.955"/>
	<circle style="fill:#3EA69B;" cx="245.76" cy="275.374" r="8.955"/>
</g>
<path style="fill:#44C4A1;" d="M286.116,184.668h-7.107c-0.907,8.898-4.445,16.885-10.61,23.953l-8.47-7.107
	c4.738-5.451,7.559-11.061,8.47-16.845h-18.89c-1.751,7.337-4.057,12.709-6.913,16.116c-2.856,3.407-7.092,5.111-12.705,5.111
	c-5.614,0-10.205-1.957-13.779-5.887c-3.57-3.93-5.515-9.041-5.84-15.34h-4.869v-6.228h4.964c0.523-7.139,2.955-13.89,7.305-20.252
	l8.958,6.331c-3.051,4.287-4.932,8.922-5.649,13.922h18.303v-0.293c1.755-7.464,4.124-12.947,7.107-16.449
	c2.987-3.51,7.321-5.261,12.999-5.261c5.681,0,10.308,2.013,13.874,6.038c3.574,4.025,5.519,9.342,5.844,15.966h7.008V184.668z
	 M223.271,191.538c1.458,1.656,3.276,2.48,5.451,2.48s3.894-0.65,5.158-1.949c1.268-1.292,2.484-3.764,3.653-7.401h-16.845
	C220.95,187.592,221.809,189.882,223.271,191.538z M265.963,171.04c-1.49-1.814-3.371-2.726-5.646-2.726
	c-2.27,0-4.073,0.713-5.404,2.139c-1.331,1.434-2.579,4.096-3.748,7.987h17.523C268.368,175.326,267.457,172.862,265.963,171.04z"/>
<g>
	<path style="fill:#64798A;" d="M282.705,15.641h-53.084c-3.094,0-5.602,2.508-5.602,5.602s2.508,5.602,5.602,5.602h53.084
		c3.094,0,5.603-2.508,5.603-5.602S285.799,15.641,282.705,15.641z"/>
	<circle style="fill:#64798A;" cx="208.814" cy="21.243" r="5.601"/>
</g>
<g>
</g>
<g>
</g>
<g>
</g>
<g>
</g>
<g>
</g>
<g>
</g>
<g>
</g>
<g>
</g>
<g>
</g>
<g>
</g>
<g>
</g>
<g>
</g>
<g>
</g>
<g>
</g>
<g>
</g>
</svg>
