<?xml version="1.0" encoding="iso-8859-1"?>
<!-- Generator: Adobe Illustrator 19.0.0, SVG Export Plug-In . SVG Version: 6.00 Build 0)  -->
<svg version="1.1" id="Layer_1" xmlns="http://www.w3.org/2000/svg" xmlns:xlink="http://www.w3.org/1999/xlink" x="0px" y="0px"
	 viewBox="0 0 491.52 491.52" style="enable-background:new 0 0 491.52 491.52;" xml:space="preserve">
<circle style="fill:#EFC84A;" cx="245.76" cy="245.76" r="245.76"/>
<path style="opacity:0.1;enable-background:new    ;" d="M309.299,146.483l-37.427-37.427c-2.713-2.509-6.349-4.096-10.393-4.096
	h-141.21c-8.448,0-15.309,6.861-15.309,15.309v250.983c0,4.147,1.638,7.833,4.25,10.547l0.256,0.256l107.729,107.76
	c9.378,1.086,18.897,1.706,28.566,1.706c130.722,0,237.56-102.074,245.269-230.86L365.977,135.577L309.299,146.483z"/>
<path style="fill:#3A556A;" d="M261.481,114.841H120.279c-8.46,0-15.319,6.859-15.319,15.319v241.081
	c0,8.461,6.859,15.319,15.319,15.319h141.202c8.461,0,15.319-6.858,15.319-15.319V130.16
	C276.801,121.699,269.943,114.841,261.481,114.841z"/>
<path style="fill:#64798A;" d="M261.481,104.96H120.279c-8.46,0-15.319,6.859-15.319,15.319V361.36
	c0,8.461,6.859,15.319,15.319,15.319h141.202c8.461,0,15.319-6.858,15.319-15.319V120.279
	C276.801,111.819,269.943,104.96,261.481,104.96z"/>
<path style="fill:#EBF0F3;" d="M120.277,336.097c-0.275,0-0.497-0.188-0.497-0.422V131.142c0-0.233,0.222-0.424,0.497-0.424h141.205
	c0.275,0,0.497,0.19,0.497,0.424v204.533c0,0.233-0.222,0.422-0.497,0.422H120.277z"/>
<g>
	<path style="fill:#3A556A;" d="M190.88,370.723c-7.531,0-13.658-6.127-13.658-13.661c0-7.534,6.127-13.661,13.658-13.661
		s13.658,6.127,13.658,13.661C204.539,364.596,198.412,370.723,190.88,370.723z M190.88,348.342c-4.805,0-8.718,3.913-8.718,8.72
		c0,4.808,3.913,8.72,8.718,8.72c4.805,0,8.718-3.913,8.718-8.72C199.598,352.255,195.686,348.342,190.88,348.342z"/>
	<path style="fill:#3A556A;" d="M212.268,121.268h-42.776c-2.06,0-3.73-1.67-3.73-3.73l0,0c0-2.06,1.67-3.73,3.73-3.73h42.776
		c2.06,0,3.73,1.67,3.73,3.73l0,0C215.999,119.598,214.329,121.268,212.268,121.268z"/>
</g>
<rect x="163.839" y="154.83" transform="matrix(-0.982 0.1888 -0.1888 -0.982 576.6795 363.8433)" style="fill:#3EA69B;" width="214.353" height="109.102"/>
<path style="fill:#44C4A1;" d="M179.345,258.973l-11.852-61.662c8.331-1.601,13.786-9.653,12.185-17.983L344.7,147.61
	c1.601,8.331,9.653,13.786,17.983,12.185l11.852,61.662c-8.331,1.601-13.786,9.653-12.185,17.983l-165.022,31.718
	C195.727,262.828,187.676,257.372,179.345,258.973z"/>
<g>
	
		<ellipse transform="matrix(-0.1888 -0.982 0.982 -0.1888 116.5437 515.0447)" style="fill:#3EA69B;" cx="271.011" cy="209.384" rx="37.217" ry="29.399"/>
	<ellipse style="fill:#3EA69B;" cx="352.785" cy="193.673" rx="6.651" ry="6.651"/>
	<ellipse style="fill:#3EA69B;" cx="189.237" cy="225.099" rx="6.651" ry="6.651"/>
</g>
<path style="fill:#44C4A1;" d="M275.111,239.117l-0.996-5.184c-6.617,0.586-12.938-0.875-18.956-4.38l3.996-7.174
	c4.64,2.692,9.127,3.962,13.473,3.816l-2.648-13.776c-5.597-0.249-9.838-1.177-12.723-2.783c-2.885-1.606-4.721-4.456-5.508-8.55
	c-0.787-4.094-0.003-7.717,2.362-10.874c2.366-3.154,5.82-5.289,10.369-6.409l-0.683-3.551l4.542-0.873l0.696,3.62
	c5.28-0.619,10.544,0.208,15.794,2.489l-3.362,7.42c-3.554-1.624-7.198-2.347-10.945-2.169l2.566,13.349l0.214-0.041
	c5.69,0.234,10.021,1.193,12.993,2.878c2.979,1.687,4.863,4.602,5.659,8.742c0.796,4.143-0.023,7.8-2.459,10.965
	c-2.435,3.17-6.04,5.334-10.825,6.5l0.982,5.111L275.111,239.117z M261.291,194.245c-1.003,1.295-1.349,2.737-1.045,4.323
	c0.305,1.586,1.02,2.749,2.145,3.489c1.12,0.744,3.093,1.284,5.909,1.627l-2.361-12.286
	C263.844,191.999,262.294,192.947,261.291,194.245z M282.225,222.508c1.115-1.341,1.515-2.841,1.196-4.499
	c-0.318-1.656-1.091-2.87-2.318-3.641c-1.233-0.77-3.349-1.307-6.35-1.614l2.456,12.78
	C279.436,224.863,281.106,223.853,282.225,222.508z"/>
<g>
	<polygon style="fill:#64798A;" points="128.689,213.097 127.352,208 153.703,202.125 155.041,207.221 	"/>
	<polygon style="fill:#64798A;" points="128.689,233.475 127.352,228.378 157.482,221.394 158.819,226.49 	"/>
	<polygon style="fill:#64798A;" points="128.689,253.852 127.352,248.755 160.508,240.334 161.845,245.431 	"/>
	<polygon style="fill:#64798A;" points="128.689,274.232 127.352,269.135 163.937,258.165 165.275,263.262 	"/>
</g>
<rect x="154.266" y="296.064" style="fill:#E56353;" width="73.272" height="20.183"/>
<g>
	<path style="fill:#FFFFFF;" d="M172.676,302.099c-0.551,0-1.002,0.112-1.355,0.337c-0.354,0.225-0.53,0.565-0.53,1.019
		c0,0.455,0.176,0.802,0.53,1.042c0.352,0.241,1.103,0.501,2.253,0.778c1.149,0.279,2.015,0.669,2.599,1.171
		c0.582,0.503,0.873,1.243,0.873,2.222s-0.368,1.773-1.107,2.382c-0.737,0.61-1.705,0.914-2.903,0.914
		c-1.753,0-3.309-0.604-4.666-1.812l1.186-1.428c1.133,0.984,2.309,1.476,3.528,1.476c0.61,0,1.094-0.131,1.451-0.393
		c0.359-0.262,0.538-0.61,0.538-1.042c0-0.433-0.168-0.77-0.505-1.011c-0.337-0.24-0.918-0.459-1.74-0.657
		c-0.824-0.198-1.45-0.38-1.877-0.546c-0.428-0.166-0.808-0.382-1.139-0.649c-0.663-0.503-0.993-1.273-0.993-2.31
		s0.376-1.837,1.13-2.398c0.753-0.561,1.686-0.842,2.798-0.842c0.717,0,1.428,0.117,2.133,0.352
		c0.706,0.236,1.316,0.567,1.829,0.995l-1.01,1.427c-0.332-0.299-0.781-0.545-1.347-0.737
		C173.786,302.196,173.227,302.099,172.676,302.099z"/>
	<path style="fill:#FFFFFF;" d="M187.262,300.624v1.78h-5.982v2.967h5.372v1.684h-5.372v3h6.175v1.78h-8.068v-11.212H187.262z"/>
	<path style="fill:#FFFFFF;" d="M198.283,300.624h1.893v11.212h-2.053l-6.351-8.18v8.18h-1.893v-11.212h1.893l6.512,8.373V300.624z"
		/>
	<path style="fill:#FFFFFF;" d="M211.77,302.091c1.081,0.978,1.62,2.339,1.62,4.082c0,1.743-0.523,3.122-1.572,4.138
		c-1.048,1.016-2.652,1.524-4.811,1.524h-3.721v-11.212h3.849C209.145,300.624,210.691,301.113,211.77,302.091z M211.482,306.221
		c0-2.566-1.47-3.849-4.41-3.849h-1.893v7.683h2.101c1.357,0,2.398-0.323,3.12-0.97
		C211.121,308.438,211.482,307.483,211.482,306.221z"/>
</g>
<g>
</g>
<g>
</g>
<g>
</g>
<g>
</g>
<g>
</g>
<g>
</g>
<g>
</g>
<g>
</g>
<g>
</g>
<g>
</g>
<g>
</g>
<g>
</g>
<g>
</g>
<g>
</g>
<g>
</g>
</svg>
