<?xml version="1.0" encoding="iso-8859-1"?>
<!-- Generator: Adobe Illustrator 19.0.0, SVG Export Plug-In . SVG Version: 6.00 Build 0)  -->
<svg xmlns="http://www.w3.org/2000/svg" xmlns:xlink="http://www.w3.org/1999/xlink" version="1.1" id="Layer_1" x="0px" y="0px" viewBox="0 0 512 512" style="enable-background:new 0 0 512 512;" xml:space="preserve" width="512" height="512">
<g id="XMLID_1954_">
	<g id="XMLID_1955_">
		<g id="XMLID_1956_">
			<rect id="XMLID_1957_" x="96.5" y="26" style="fill:#E29C6D;" width="35" height="310.9"/>
			<rect id="XMLID_1958_" x="96.5" y="43.21" style="fill:#C97F4C;" width="35" height="278.58"/>
		</g>
		<g id="XMLID_1959_">
			<rect id="XMLID_1960_" x="380.5" y="26" style="fill:#E29C6D;" width="35" height="310.9"/>
			<rect id="XMLID_1961_" x="380.5" y="43.21" style="fill:#C97F4C;" width="35" height="278.58"/>
		</g>
	</g>
	<g id="XMLID_1962_">
		<g id="XMLID_1963_">
			<path id="XMLID_1964_" style="fill:#E29C6D;" d="M61.3,419v57c0,5.52-4.47,10-10,10c-5.52,0-10-4.48-10-10v-57H61.3z"/>
			<rect id="XMLID_1965_" x="41.3" y="419" style="fill:#C97F4C;" width="20" height="27.99"/>
		</g>
		<g id="XMLID_1966_">
			<path id="XMLID_1967_" style="fill:#E29C6D;" d="M470.7,419v57c0,5.52-4.48,10-10,10c-5.53,0-10-4.48-10-10v-57H470.7z"/>
			<rect id="XMLID_1968_" x="450.7" y="419" style="fill:#C97F4C;" width="20" height="27.99"/>
		</g>
	</g>
	<g id="XMLID_1969_">
		<g id="XMLID_1970_">
			<g id="XMLID_1971_">
				<rect id="XMLID_3127_" x="59.609" y="55.208" style="fill:#385F82;" width="392.783" height="254.586"/>
				<rect id="XMLID_1972_" x="59.609" y="55.206" style="fill:#FD6568;" width="392.783" height="226.02"/>
				<polygon id="XMLID_1974_" style="fill:#FF838F;" points="386.243,55.206 160.215,281.226 138.062,281.226 364.082,55.206           "/>
				<polygon id="XMLID_1975_" style="fill:#FF838F;" points="446.306,55.206 220.278,281.226 174.417,281.226 400.437,55.206           "/>
			</g>
		</g>
	</g>
	<rect id="XMLID_3119_" x="7.5" y="362.051" style="fill:#F4E6D3;" width="497" height="72.943"/>
	<rect id="XMLID_3118_" x="7.5" y="423.068" style="fill:#EAD2B1;" width="497" height="11.926"/>
	<g id="XMLID_1976_">
		<path id="XMLID_1977_" d="M201.089,62.708h243.803v142.203c0,4.142,3.357,7.5,7.5,7.5s7.5-3.358,7.5-7.5V55.208    c0-4.142-3.357-7.5-7.5-7.5H423V26c0-4.142-3.357-7.5-7.5-7.5h-35c-4.143,0-7.5,3.358-7.5,7.5v21.708H201.089    c-4.142,0-7.5,3.358-7.5,7.5S196.947,62.708,201.089,62.708z M388,33.5h20v14.208h-20V33.5z"/>
		<path id="XMLID_1980_" d="M504.5,354.55H333.833v-37.256H373v19.607c0,4.142,3.357,7.5,7.5,7.5h35c4.143,0,7.5-3.358,7.5-7.5    v-19.607h29.392c4.143,0,7.5-3.358,7.5-7.5v-70.705c0-4.142-3.357-7.5-7.5-7.5s-7.5,3.358-7.5,7.5v34.637H67.108V62.708h99.803    c4.142,0,7.5-3.358,7.5-7.5s-3.358-7.5-7.5-7.5H139V26c0-4.142-3.358-7.5-7.5-7.5h-35c-4.142,0-7.5,3.358-7.5,7.5v21.708H59.608    c-4.142,0-7.5,3.358-7.5,7.5v254.586c0,4.142,3.358,7.5,7.5,7.5H89v19.607c0,4.142,3.358,7.5,7.5,7.5h35    c4.142,0,7.5-3.358,7.5-7.5v-19.607h155.167v37.256H7.5c-4.142,0-7.5,3.358-7.5,7.5v72.943c0,4.142,3.358,7.5,7.5,7.5h26.304V476    c0,9.649,7.851,17.5,17.5,17.5s17.5-7.851,17.5-17.5v-33.506h106.107c4.142,0,7.5-3.358,7.5-7.5s-3.358-7.5-7.5-7.5h-14.38V369.55    h190.938v57.943h-142.38c-4.142,0-7.5,3.358-7.5,7.5s3.358,7.5,7.5,7.5h85.078v3.552c0,20.652,16.802,37.455,37.454,37.455    c4.321,0,8.469-0.744,12.333-2.096c3.865,1.352,8.013,2.096,12.333,2.096c20.652,0,37.455-16.802,37.455-37.455v-3.552h49.452V476    c0,9.649,7.851,17.5,17.5,17.5s17.5-7.851,17.5-17.5v-33.506H504.5c4.143,0,7.5-3.358,7.5-7.5V362.05    C512,357.908,508.643,354.55,504.5,354.55z M104,33.5h20v14.208h-20V33.5z M408,329.401h-20v-12.107h20V329.401z M67.108,288.726    h377.783v13.568H67.108V288.726z M124,329.401h-20v-12.107h20V329.401z M309.167,317.294h9.666v37.256h-9.666V317.294z     M53.804,476c0,1.378-1.122,2.5-2.5,2.5s-2.5-1.122-2.5-2.5v-33.506h5V476z M145.531,427.494H15V369.55h130.531V427.494z     M354.076,446.045c0,7.829-4.03,14.731-10.122,18.751c-6.092-4.02-10.122-10.922-10.122-18.751v-3.552h20.243V446.045z     M309.167,446.045v-3.552h9.666v3.552c0,8.074,2.577,15.554,6.94,21.677C316.219,465.142,309.167,456.404,309.167,446.045z     M378.743,446.045c0,10.358-7.052,19.097-16.607,21.677c4.363-6.123,6.94-13.603,6.94-21.677v-3.552h9.667V446.045z M463.195,476    c0,1.378-1.121,2.5-2.5,2.5s-2.5-1.122-2.5-2.5v-33.506h5V476z M497,427.494H366.469V369.55H497V427.494z"/>
		<path id="XMLID_1994_" d="M262,417.5c4.143,0,7.5-3.358,7.5-7.5s-3.357-7.5-7.5-7.5h-12c-4.142,0-7.5,3.358-7.5,7.5    s3.358,7.5,7.5,7.5H262z"/>
		<path id="XMLID_1995_" d="M67.848,417.5h12c4.142,0,7.5-3.358,7.5-7.5s-3.358-7.5-7.5-7.5h-12c-4.142,0-7.5,3.358-7.5,7.5    S63.706,417.5,67.848,417.5z"/>
		<path id="XMLID_1996_" d="M432.152,417.5h12c4.143,0,7.5-3.358,7.5-7.5s-3.357-7.5-7.5-7.5h-12c-4.143,0-7.5,3.358-7.5,7.5    S428.01,417.5,432.152,417.5z"/>
	</g>
</g>















</svg>
