<svg viewBox="-13 0 512 512.001" xmlns="http://www.w3.org/2000/svg"><path d="m107.621094 512h-48.953125c-1.589844 0-2.878907-1.289062-2.878907-2.878906v-22.925782h54.710938v22.925782c0 1.589844-1.289062 2.878906-2.878906 2.878906zm0 0" fill="#bec8dc"/><path d="m427.816406 511.484375h-48.957031c-1.589844 0-2.878906-1.289063-2.878906-2.878906v-21.894531h54.714843v21.894531c0 1.589843-1.289062 2.878906-2.878906 2.878906zm0 0" fill="#bec8dc"/><path d="m486.21875 243.101562c0 134.257813-108.839844 243.089844-243.109375 243.089844-90.550781 0-169.539063-49.5-211.367187-122.921875-20.203126-35.4375-31.742188-76.457031-31.742188-120.167969 0-93.3125 52.570312-174.339843 129.710938-215.089843 33.859374-17.878907 72.449218-28.011719 113.398437-28.011719 134.269531 0 243.109375 108.839844 243.109375 243.101562zm0 0" fill="#b9ebff"/><path d="m486.230469 243.101562c0 32.507813-6.378907 63.53125-17.96875 91.878907-.601563 1.46875-1.222657 2.929687-1.859375 4.390625-13.171875 30.519531-32.421875 57.800781-56.222656 80.308594-43.558594 41.230468-102.359376 66.511718-167.058594 66.511718-12.820313 0-25.390625-1-37.660156-2.902344 59.109374-9.1875 111.179687-39.679687 148.089843-83.359374 35.398438-41.859376 56.898438-95.847657 57.359375-154.847657v-.011719c.011719-.660156.011719-1.308593.011719-1.96875 0-66.230468-26.492187-126.28125-69.453125-170.121093-28.066406-28.640625-63.167969-50.371094-102.5-62.390625-10.859375-3.320313-22.046875-5.898438-33.507812-7.6875 12.269531-1.902344 24.839843-2.902344 37.660156-2.902344h.507812c15.410156.03125 30.5 1.5 45.113282 4.261719 2.117187.410156 4.226562.839843 6.328124 1.300781.980469.21875 1.960938.4375 2.949219.660156 1.949219.449219 3.910157.917969 5.851563 1.429688.96875.257812 1.9375.5 2.910156.769531 3.078125.828125 6.128906 1.730469 9.179688 2.6875 1.109374.339844 2.21875.703125 3.320312 1.0625 1.109375.367187 2.210938.738281 3.308594 1.128906 1.101562.378907 2.199218.769531 3.300781 1.160157 1.089844.398437 2.191406.808593 3.28125 1.21875 2.136719.820312 4.269531 1.660156 6.386719 2.542968 1.0625.429688 2.121094.878906 3.171875 1.328125.269531.109375.539062.230469.808593.351563.820313.339844 1.652344.699218 2.460938 1.089844 1.441406.628906 2.851562 1.289062 4.28125 1.949218.859375.410156 1.71875.820313 2.589844 1.238282.917968.453124 1.828125.902343 2.75 1.359374h.007812c79 39.460938 133.511719 120.683594 134.582032 214.742188.007812.941406.019531 1.878906.019531 2.820312zm0 0" fill="#a0dcf0"/><path d="m486.484375 242.839844c0-.042969 0-.085938 0-.128906-.015625-6.824219-6.105469-12.046876-12.875-11.207032l-36.730469 4.554688c-.824218.101562-1.632812.296875-2.417968.574218l-22.289063 7.902344c-1.898437.675782-3.585937 1.835938-4.894531 3.371094l-16.207032 19.027344c-.890624 1.042968-1.960937 1.917968-3.160156 2.585937l-4.132812 2.292969c-1.125.628906-2.140625 1.441406-3 2.40625l-36.878906 41.484375c-1.710938 1.925781-2.722657 4.371094-2.875 6.941406l-2.167969 36.882813c-.097657 1.65625.164062 3.3125.769531 4.855468l14.371094 36.652344c1.09375 2.800782 3.246094 5.054688 5.992187 6.28125l25.980469 11.617188c1.355469.605468 2.820312.945312 4.304688.992187l13.699218.445313c3.125.105468 6.144532-1.078125 8.390625-3.25 45.59375-44.132813 74.121094-105.796875 74.121094-174.28125zm0 0" fill="#b4e173"/><path d="m269.089844 95.21875 26.949218 29.191406c1.855469 2.007813 4.996094 2.105469 6.972657.21875l14.6875-14.019531c.277343-.261719.519531-.554687.726562-.875l19.953125-30.773437c.089844-.140626.171875-.285157.25-.433594l17.027344-33.257813c.460938-.902343.628906-1.921875.488281-2.921875l-1.882812-13.125c-.226563-1.582031-1.207031-2.964844-2.636719-3.683594-33.515625-16.785156-70.492188-25.53515575-107.996094-25.539062-.019531 0-.035156 0-.050781 0-2.703125.0078125-4.835937 2.324219-4.757813 5.03125l1.863282 66.257812c.039062 1.484376.75 2.867188 1.933594 3.761719l25.835937 19.585938c.230469.175781.445313.367187.636719.582031zm0 0" fill="#b4e173"/><path d="m170.75 102.660156-5.140625 33.550782c-.128906.800781-.390625 1.558593-.769531 2.269531l-11.550782 21.121093c-.328124.597657-.738281 1.140626-1.230468 1.621094l-26.957032 26.417969c-.199218.199219-.421874.390625-.640624.558594l-30.769532 23.472656c-1.320312 1.007813-2.230468 2.449219-2.570312 4.070313l-5.730469 27.117187c-.089844.472656-.140625.953125-.140625 1.429687v12.722657c0 2.007812.878906 3.929687 2.410156 5.238281l32.679688 28.019531c.210937.179688.402344.371094.589844.570313l15.179687 16.5625c.300781.320312.5625.667968.792969 1.039062l19.289062 31.25c.859375 1.398438 1.199219 3.070313.949219 4.699219l-2.671875 17.070313c-.339844 2.210937-1.738281 4.121093-3.738281 5.121093l-10 5c-1.730469.859375-3.738281.957031-5.550781.269531l-40.277344-15.339843c-1.5625-.601563-2.851563-1.742188-3.640625-3.210938l-8.671875-16.25c-1.050782-1.96875-3-3.320312-5.21875-3.601562l-11.402344-1.449219c-1.328125-.167969-2.6875.050781-3.898438.640625l-7.628906 3.710937c-2.382812 1.160157-3.890625 3.570313-3.890625 6.210938v2.257812c0 1.359376-.398437 2.699219-1.160156 3.832032l-8.359375 12.527344c-.640625.960937-1.5 1.730468-2.492188 2.261718-.988281.53125-2.097656.820313-3.257812.820313-1.269531 0-2.492188-.351563-3.539062-.992188-20.203126-35.4375-31.742188-76.457031-31.742188-120.167969 0-93.3125 52.570312-174.339843 129.710938-215.089843 3.328124-.351563 6.640624 1.757812 7.46875 5.269531l6.121093 25.800781c.199219.847657.550781 1.648438 1.050781 2.359375l25.238282 36.21875c1.011718 1.460938 1.421875 3.25 1.160156 5zm0 0" fill="#b4e173"/><path d="m486.230469 243.101562c0 32.507813-6.378907 63.53125-17.96875 91.878907-.601563 1.46875-1.222657 2.929687-1.859375 4.390625-13.171875 30.519531-32.421875 57.800781-56.222656 80.308594-2.230469.519531-4.597657.742187-6.210938.691406l-13.699219-.449219c-1.480469-.050781-2.949219-.382813-4.300781-.992187l-25.976562-11.609376c-2.75-1.230468-4.902344-3.488281-6-6.289062l-.441407-1.101562c35.398438-41.859376 56.898438-95.847657 57.359375-154.847657v-.011719c.398438-.210937.832032-.378906 1.261719-.539062l22.289063-7.898438c.78125-.273437 1.597656-.472656 2.417968-.570312l36.722656-4.5625c5.949219-.738281 11.359376 3.191406 12.609376 8.78125.007812.941406.019531 1.878906.019531 2.820312zm0 0" fill="#a7d16c"/><path d="m355.660156 45.265625-14.195312 27.714844c-28.066406-28.644531-63.167969-50.375-102.5-62.390625l-.152344-5.636719c-.074219-2.691406 2.0625-4.9140625 4.738281-4.953125h.082031c17.351563 0 34.605469 1.878906 51.441407 5.5625.980469.21875 1.960937.433594 2.941406.664062 1.949219.441407 3.914063.917969 5.851563 1.421876.972656.257812 1.941406.507812 2.914062.777343 3.074219.824219 6.128906 1.722657 9.175781 2.683594 1.113281.339844 2.21875.699219 3.324219 1.0625 1.105469.371094 2.207031.742187 3.3125 1.125 1.09375.382813 2.199219.773437 3.292969 1.164063 1.09375.402343 2.191406.804687 3.285156 1.21875 7.628906 2.902343 15.121094 6.183593 22.453125 9.859374 1.433594.722657 2.414062 2.09375 2.640625 3.683594l1.878906 13.121094c.144531 1.003906-.027343 2.023438-.484375 2.921875zm0 0" fill="#a7d16c"/><path d="m450.835938 486.710938h-415.1875c-6.410157 0-11.605469-5.195313-11.605469-11.601563v-50.085937c0-6.410157 5.195312-11.601563 11.605469-11.601563h415.1875c6.40625 0 11.601562 5.191406 11.601562 11.601563v50.085937c0 6.40625-5.195312 11.601563-11.601562 11.601563zm0 0" fill="#e4eaf7"/><path d="m450.8125 413.421875h-10.054688c0 32.199219-26.105468 58.304687-58.308593 58.304687h-358.40625v3.359376c0 6.421874 5.207031 11.625 11.625 11.625h415.144531c6.421875 0 11.625-5.203126 11.625-11.625v-50.039063c0-6.421875-5.203125-11.625-11.625-11.625zm0 0" fill="#d2dcf0"/><path d="m272.550781 438.195312h-58.621093c-2.53125 0-4.585938-2.054687-4.585938-4.585937v-20.1875h67.789062v20.1875c.003907 2.53125-2.050781 4.585937-4.582031 4.585937zm0 0" fill="#54a1ff"/><path d="m417.1875 413.421875h-27.871094v-241.246094c0-1.515625 1.792969-2.324219 2.925782-1.3125l.472656.417969c15.566406 13.835938 24.472656 33.667969 24.472656 54.492188zm0 0" fill="#fff"/><path d="m97.167969 413.421875h-27.875v-241.246094c0-1.515625 1.796875-2.324219 2.929687-1.3125l.472656.417969c15.566407 13.835938 24.472657 33.667969 24.472657 54.492188zm0 0" fill="#fff"/><g fill="#54a1ff"><path d="m250.042969 281.808594c0 4.273437-3.464844 7.742187-7.742188 7.742187-4.273437 0-7.742187-3.46875-7.742187-7.742187 0-4.277344 3.46875-7.742188 7.742187-7.742188 4.277344 0 7.742188 3.464844 7.742188 7.742188zm0 0"/><path d="m263.402344 270.515625c-2.046875 0-4.089844-.808594-5.613282-2.410156-3.941406-4.144531-9.257812-6.425781-14.972656-6.425781-5.464844 0-10.625 2.117187-14.527344 5.964843-3.046874 3.003907-7.949218 2.96875-10.949218-.078125-3.003906-3.042968-2.96875-7.945312.078125-10.945312 6.816406-6.722656 15.839843-10.425782 25.398437-10.425782 9.855469 0 19.402344 4.097657 26.195313 11.242188 2.949219 3.101562 2.824219 8-.273438 10.949219-1.5 1.421875-3.417969 2.128906-5.335937 2.128906zm0 0"/><path d="m283.109375 250.808594c-2.015625 0-4.03125-.78125-5.546875-2.339844-9.203125-9.457031-21.542969-14.660156-34.746094-14.660156-12.863281 0-24.976562 4.976562-34.109375 14.015625-3.042969 3.011719-7.945312 2.984375-10.949219-.054688-3.007812-3.039062-2.984374-7.941406.054688-10.949219 12.050781-11.925781 28.035156-18.496093 45.003906-18.496093 17.417969 0 33.695313 6.867187 45.839844 19.339843 2.984375 3.066407 2.917969 7.96875-.148438 10.949219-1.503906 1.464844-3.453124 2.195313-5.398437 2.195313zm0 0"/><path d="m303.550781 230.371094c-2.007812 0-4.007812-.773438-5.523437-2.316406-14.664063-14.929688-34.273438-23.152344-55.210938-23.152344-20.5 0-39.835937 7.949218-54.441406 22.375-3.042969 3.003906-7.945312 2.976562-10.949219-.066406-3.003906-3.042969-2.976562-7.945313.066407-10.949219 17.523437-17.308594 40.722656-26.84375 65.328124-26.84375 25.125 0 48.652344 9.867187 66.253907 27.78125 2.996093 3.050781 2.953125 7.953125-.097657 10.949219-1.507812 1.484374-3.46875 2.222656-5.425781 2.222656zm0 0"/></g></svg>