<?xml version="1.0" encoding="utf-8"?>
<!-- Generator: Adobe Illustrator 16.0.0, SVG Export Plug-In . SVG Version: 6.00 Build 0)  -->
<!DOCTYPE svg PUBLIC "-//W3C//DTD SVG 1.1//EN" "http://www.w3.org/Graphics/SVG/1.1/DTD/svg11.dtd">
<svg version="1.1" id="Layer_1" xmlns="http://www.w3.org/2000/svg" xmlns:xlink="http://www.w3.org/1999/xlink" x="0px" y="0px"
	 width="512px" height="512px" viewBox="0 0 512 512" enable-background="new 0 0 512 512" xml:space="preserve">
<path fill="#387EF5" d="M512,256C512,114.638,397.362,0,256,0C114.638,0,0,114.638,0,256c0,141.362,114.638,256,256,256
	C397.362,512,512,397.362,512,256z"/>
<path fill="#84DBFF" d="M316.202,179.876c-2.201-8.811-5.872-17.621-10.276-25.696l8.809-20.558l-30.836-30.101l-20.556,8.81
	c-8.076-4.404-16.152-8.076-25.697-10.278l-7.341-21.291h-43.316l-8.076,21.291c-8.811,2.202-17.621,5.874-25.696,10.278
	l-20.558-8.81l-30.101,30.101l8.811,20.558c-4.405,8.076-8.077,16.152-10.279,25.696l-21.291,8.076v43.316l21.291,8.077
	c2.203,8.81,5.874,17.62,10.279,25.696l-8.811,20.557l30.835,30.102l20.557-8.811c8.076,4.404,16.152,8.076,25.696,10.277
	l8.076,21.292h42.582l8.076-21.292c8.811-2.201,17.621-5.872,25.696-10.277l20.558,8.811l30.834-30.102l-8.809-20.557
	c4.404-8.077,8.075-16.153,10.278-25.696l21.29-8.077v-43.316L316.202,179.876z M208.28,262.104
	c-29.367,0-52.861-23.493-52.861-52.86c0-29.367,23.495-52.861,52.861-52.861c29.366,0,52.86,23.494,52.86,52.861
	C261.14,238.61,237.646,262.104,208.28,262.104z"/>
<g>
	<path fill="#54C0EB" d="M245.722,246.687c-20.558,20.557-53.595,20.557-74.152,0l-19.089,19.089
		c30.836,30.836,81.494,30.836,112.329,0c30.835-30.836,30.836-80.76,0-112.329l-19.088,19.088
		C266.279,193.091,266.279,226.129,245.722,246.687z"/>
	<path fill="#54C0EB" d="M152.481,153.446c-30.835,30.835-30.835,80.759,0,112.329l19.089-19.089
		c-20.557-20.557-20.557-53.595,0-74.152c20.557-20.557,53.594-20.557,74.152,0l19.088-19.088
		C233.975,122.61,183.317,122.61,152.481,153.446z"/>
</g>
<path fill="#4CDBC4" d="M328.685,381.773c0.734-4.404,0.734-8.075,0-12.479l7.342-7.342l-7.342-18.354h-10.279
	c-2.203-2.937-5.873-5.874-8.81-8.811v-10.279l-18.355-7.343l-7.342,7.343c-4.403-0.733-8.075-0.733-12.479,0l-7.342-7.343
	l-18.354,7.343v10.279c-2.937,2.202-5.873,5.874-8.811,8.811h-10.279l-7.341,18.354l7.341,7.342c-0.734,4.404-0.734,8.075,0,12.479
	l-7.341,7.344l7.341,18.354h10.279c2.202,2.938,5.874,5.872,8.811,8.81v10.28l18.354,7.341l7.342-7.341
	c4.404,0.732,8.076,0.732,12.479,0l7.342,7.341l18.355-7.341v-10.28c2.937-2.203,5.872-5.872,8.81-8.81h10.279l7.342-18.354
	L328.685,381.773z M269.951,397.193c-12.481-5.14-18.355-19.089-13.217-30.837c5.139-12.481,19.089-18.354,30.837-13.215
	c12.479,5.14,18.354,19.09,13.215,30.837C295.646,396.458,281.696,402.33,269.951,397.193z"/>
<path fill="#FF7058" d="M424.86,285.598c0.735-4.404,0.735-8.076,0-12.48l7.342-7.342l-7.342-18.354h-10.277
	c-2.204-2.937-5.874-5.873-8.812-8.81v-10.279l-18.354-7.342l-7.342,7.342c-4.404-0.735-8.076-0.735-12.48,0l-7.342-7.342
	l-18.354,7.342v10.279c-2.937,2.202-5.873,5.873-8.81,8.81h-10.279l-7.343,18.354l7.343,7.342c-0.734,4.404-0.734,8.076,0,12.48
	l-7.343,7.343l7.343,18.354h10.279c2.202,2.938,5.873,5.872,8.81,8.81v10.279l18.354,7.342l7.342-7.342
	c4.404,0.733,8.076,0.733,12.48,0l7.342,7.342l18.354-7.342v-10.279c2.938-2.202,5.874-5.872,8.812-8.81h10.277l7.342-18.354
	L424.86,285.598z M365.394,301.749c-12.481-5.138-18.354-19.088-13.216-30.835c5.14-12.48,19.089-18.354,30.836-13.215
	c12.48,5.139,18.354,19.088,13.215,30.835C391.823,301.015,377.874,306.889,365.394,301.749z"/>
</svg>
