<?xml version="1.0" encoding="utf-8"?>
<!-- Generator: Adobe Illustrator 16.0.0, SVG Export Plug-In . SVG Version: 6.00 Build 0)  -->
<!DOCTYPE svg PUBLIC "-//W3C//DTD SVG 1.1//EN" "http://www.w3.org/Graphics/SVG/1.1/DTD/svg11.dtd">
<svg version="1.1" id="Layer_1" xmlns="http://www.w3.org/2000/svg" xmlns:xlink="http://www.w3.org/1999/xlink" x="0px" y="0px"
	 width="512px" height="512px" viewBox="0 0 512 512" enable-background="new 0 0 512 512" xml:space="preserve">
<path fill="#387EF5" d="M512,256C512,114.638,397.362,0,256,0C114.638,0,0,114.638,0,256c0,141.362,114.638,256,256,256
	C397.362,512,512,397.362,512,256z"/>
<g>
	<g>
		<path fill="#52C306" d="M389.297,360.488c-11.256-21.272-52.777-45.605-52.777-45.605c-9.394-5.354-20.727-5.954-26.087,3.594
			c0,0-13.486,16.18-16.919,18.502c-15.675,10.623-30.193,10.214-44.848-4.446l-34.059-34.06l-34.059-34.059
			c-14.661-14.66-15.069-29.172-4.448-44.846c2.324-3.435,18.503-16.92,18.503-16.92c9.542-5.361,8.949-16.695,3.594-26.088
			c0,0-24.333-41.52-45.606-52.775c-9.05-4.792-20.163-3.119-27.404,4.122l-15.046,15.046
			C62.43,190.663,85.92,244.535,133.632,292.246l43.607,43.607l43.607,43.606c47.709,47.712,101.584,71.208,149.294,23.491
			l15.046-15.046C392.416,380.659,394.089,369.539,389.297,360.488z"/>
		<path fill="#388F04" d="M313.262,435.012c-6.252,0-12.621-0.754-19.12-2.253c-24.506-5.664-50.582-22.188-77.5-49.112
			l-87.208-87.22c-59.263-59.257-67.388-113.777-23.496-157.675l15.046-15.045c9.139-9.145,22.933-11.215,34.374-5.172
			c22.512,11.909,46.922,53.262,47.947,55.018c4.354,7.632,5.717,15.467,3.873,22.127c-1.388,5.011-4.555,9.085-9.168,11.837
			c-7.235,6.049-15.692,13.551-17.015,15.39c-9.507,14.02-8.386,25.188,3.742,37.315l68.118,68.117
			c12.117,12.116,23.272,13.244,37.333,3.729c1.809-1.309,9.312-9.761,15.372-17.001c2.746-4.615,6.826-7.781,11.831-9.169
			c6.666-1.857,14.501-0.486,22.068,3.832c1.819,1.066,43.174,25.482,55.081,47.989l0,0c6.05,11.422,3.969,25.234-5.17,34.373
			l-15.046,15.045C355.777,425.678,335.306,435.012,313.262,435.012z M141.65,126.975c-4.495,0-8.92,1.755-12.276,5.112
			l-15.045,15.045c-38.952,38.958-31.046,86.367,23.497,140.91l87.208,87.213c54.543,54.549,101.95,62.442,140.91,23.491
			l15.044-15.046c5.434-5.432,6.666-13.646,3.079-20.437l0,0c-8.587-16.226-39.398-36.733-50.534-43.268
			c-4.603-2.628-9.49-3.612-12.958-2.67c-2.135,0.6-3.76,1.921-4.958,4.056l-0.617,0.896c-4.217,5.06-14.429,17.087-18.146,19.613
			c-18.682,12.65-36.296,10.918-52.374-5.16l-68.13-68.124c-16.083-16.077-17.821-33.703-5.166-52.372
			c2.52-3.719,14.56-13.931,19.619-18.152l0.889-0.617c2.135-1.198,3.464-2.823,4.057-4.958c0.967-3.487-0.048-8.356-2.71-13.023
			c-0.196-0.339-23.693-40.138-43.227-50.475C147.219,127.645,144.413,126.975,141.65,126.975z"/>
	</g>
	<path fill="#388F04" d="M315.301,369.764c-0.2,0-0.408-0.011-0.616-0.03c-40.892-4.245-67.662-30.227-68.788-31.33
		c-2.331-2.296-2.354-6.043-0.066-8.373c2.29-2.344,6.043-2.373,8.386-0.079c0.243,0.239,25.067,24.181,61.69,27.981
		c3.254,0.345,5.621,3.256,5.29,6.519C320.876,367.492,318.302,369.764,315.301,369.764z"/>
	<path fill="#388F04" d="M184.818,274.875c-1.329,0-2.657-0.443-3.767-1.356c-1.357-1.116-33.436-27.963-37.712-69.198
		c-0.338-3.261,2.034-6.173,5.291-6.518c3.273-0.291,6.173,2.034,6.518,5.29c3.766,36.295,33.164,61.03,33.459,61.274
		c2.521,2.093,2.877,5.823,0.795,8.349C188.216,274.14,186.526,274.875,184.818,274.875z"/>
	<g>
		<path fill="#EFCE4A" d="M240.364,84.975c-3.28,0-5.931,2.651-5.931,5.931s2.65,5.93,5.931,5.93
			c100.178,0,181.681,81.503,181.681,181.681c0,3.28,2.649,5.932,5.931,5.932c3.28,0,5.931-2.651,5.931-5.932
			C433.906,171.797,347.083,84.975,240.364,84.975z"/>
		<path fill="#EFCE4A" d="M240.364,126.666c-3.28,0-5.931,2.651-5.931,5.931s2.65,5.93,5.931,5.93
			c77.192,0,139.984,62.798,139.984,139.984c0,3.28,2.65,5.933,5.931,5.933c3.279,0,5.93-2.652,5.93-5.933
			C392.214,194.79,324.091,126.666,240.364,126.666z"/>
		<path fill="#EFCE4A" d="M240.364,168.358c-3.28,0-5.931,2.65-5.931,5.931c0,3.279,2.65,5.93,5.931,5.93
			c54.204,0,98.297,44.1,98.297,98.298c0,3.28,2.651,5.932,5.932,5.932c3.279,0,5.93-2.651,5.93-5.932
			C350.522,217.776,301.104,168.358,240.364,168.358z"/>
	</g>
</g>
</svg>
