<?xml version="1.0" encoding="utf-8"?>
<!-- Generator: Adobe Illustrator 16.0.0, SVG Export Plug-In . SVG Version: 6.00 Build 0)  -->
<!DOCTYPE svg PUBLIC "-//W3C//DTD SVG 1.1//EN" "http://www.w3.org/Graphics/SVG/1.1/DTD/svg11.dtd">
<svg version="1.1" id="Layer_1" xmlns="http://www.w3.org/2000/svg" xmlns:xlink="http://www.w3.org/1999/xlink" x="0px" y="0px"
	 width="512px" height="512px" viewBox="0 0 512 512" enable-background="new 0 0 512 512" xml:space="preserve">
<path fill="#387EF5" d="M512,256C512,114.638,397.362,0,256,0C114.638,0,0,114.638,0,256c0,141.362,114.638,256,256,256
	C397.362,512,512,397.362,512,256z"/>
<g id="surface1">
	<path fill="#FDB62F" d="M119.994,116.073c-2.108-12.65-12.019-22.561-24.667-24.669c12.647-2.108,22.558-12.019,24.667-24.667
		c2.108,12.647,12.02,22.558,24.667,24.667C132.013,93.512,122.102,103.423,119.994,116.073z"/>
	<path fill="#6B962A" d="M169.33,66.738h172.668v308.338H169.33V66.738z"/>
	<path fill="#88B337" d="M341.998,399.745H169.33V91.404h123.335l49.333,49.335V399.745z"/>
	<path fill="#80A834" d="M169.33,355.035v44.71h172.668V182.364L169.33,355.035z"/>
	<path fill="#6B962A" d="M292.665,375.076h-74.002c0-13.622-11.045-24.667-24.667-24.667V140.74
		c13.622,0,24.667-11.045,24.667-24.667h74.002c0,13.622,11.045,24.667,24.666,24.667v209.669
		C303.71,350.409,292.665,361.454,292.665,375.076z"/>
	<path fill="#88B337" d="M317.331,245.575c0-27.247-27.608-49.335-61.666-49.335c-34.062,0-61.669,22.088-61.669,49.335
		c0,27.247,27.608,49.335,61.669,49.335C289.723,294.91,317.331,272.821,317.331,245.575z"/>
	<path fill="#88B337" d="M267.998,159.24c0,6.811-5.521,12.333-12.333,12.333c-6.814,0-12.336-5.522-12.336-12.333
		s5.522-12.333,12.336-12.333C262.477,146.906,267.998,152.429,267.998,159.24z"/>
	<path fill="#88B337" d="M267.998,331.91c0,6.812-5.521,12.333-12.333,12.333c-6.814,0-12.336-5.521-12.336-12.333
		c0-6.811,5.522-12.334,12.336-12.334C262.477,319.576,267.998,325.1,267.998,331.91z"/>
	<path fill="#99C93E" d="M292.665,91.404l49.333,49.335h-49.333V91.404z"/>
	<path fill="#FFB782" d="M382.244,266.912l-40.246-46.004v80.17l-40.082-40.087c-8.654-8.374-22.46-8.151-30.835,0.501
		c-8.183,8.454-8.183,21.878,0,30.332l52.417,52.419l-5.076,8.886c-11.827,20.689-9.81,46.506,5.076,65.117v12.333H397.5V307.516
		C397.5,292.578,392.078,278.155,382.244,266.912z"/>
	<path fill="#F2A46F" d="M360.501,325.742c-1.637,0-3.209-0.646-4.361-1.808l-18.5-18.499c-2.368-2.448-2.303-6.351,0.148-8.719
		c2.392-2.307,6.179-2.307,8.57,0l18.503,18.499c2.403,2.411,2.403,6.316,0,8.719C363.699,325.097,362.133,325.742,360.501,325.742z
		"/>
</g>
</svg>
