<?xml version="1.0" encoding="utf-8"?>
<!-- Generator: Adobe Illustrator 16.0.0, SVG Export Plug-In . SVG Version: 6.00 Build 0)  -->
<!DOCTYPE svg PUBLIC "-//W3C//DTD SVG 1.1//EN" "http://www.w3.org/Graphics/SVG/1.1/DTD/svg11.dtd">
<svg version="1.1" id="Layer_1" xmlns="http://www.w3.org/2000/svg" xmlns:xlink="http://www.w3.org/1999/xlink" x="0px" y="0px"
	 width="512px" height="512px" viewBox="0 0 512 512" enable-background="new 0 0 512 512" xml:space="preserve">
<path fill="#387EF5" d="M512,256C512,114.638,397.362,0,256,0S0,114.638,0,256s114.638,256,256,256S512,397.362,512,256z"/>
<g>
	<g>
		<rect x="133.538" y="185.893" fill="#D1D4D1" width="295.725" height="147.863"/>
		<path fill="#556080" d="M435.424,339.917H127.376V179.732h308.047V339.917z M139.699,327.594h283.403v-135.54H139.699V327.594z"/>
	</g>
	<path fill="#556080" d="M133.538,136.605h-30.805c-3.4,0-6.161-2.754-6.161-6.161s2.76-6.161,6.161-6.161h30.805
		c3.401,0,6.161,2.754,6.161,6.161S136.939,136.605,133.538,136.605z"/>
	<path fill="#556080" d="M133.538,192.054c-3.401,0-6.162-2.754-6.162-6.162v-55.448c0-3.407,2.761-6.161,6.162-6.161
		s6.161,2.754,6.161,6.161v55.448C139.699,189.3,136.939,192.054,133.538,192.054z"/>
	<path fill="#556080" d="M133.538,383.044c-3.401,0-6.162-2.756-6.162-6.161v-43.127c0-3.407,2.761-6.162,6.162-6.162
		s6.161,2.755,6.161,6.162v43.127C139.699,380.288,136.939,383.044,133.538,383.044z"/>
	<circle fill="#556080" cx="195.147" cy="407.688" r="24.644"/>
	<circle fill="#556080" cx="343.01" cy="407.688" r="24.644"/>
	<path fill="#556080" d="M398.46,383.044H133.538c-3.401,0-6.162-2.756-6.162-6.161c0-3.407,2.761-6.161,6.162-6.161H398.46
		c3.399,0,6.161,2.754,6.161,6.161C404.621,380.288,401.859,383.044,398.46,383.044z"/>
	<path fill="#556080" d="M429.263,241.342H133.538c-3.401,0-6.162-2.754-6.162-6.162c0-3.407,2.761-6.16,6.162-6.16h295.725
		c3.401,0,6.161,2.753,6.161,6.16C435.424,238.587,432.664,241.342,429.263,241.342z"/>
	<path fill="#556080" d="M429.263,290.629H133.538c-3.401,0-6.162-2.754-6.162-6.161c0-3.405,2.761-6.16,6.162-6.16h295.725
		c3.401,0,6.161,2.755,6.161,6.16C435.424,287.875,432.664,290.629,429.263,290.629z"/>
	<path fill="#556080" d="M182.825,339.917c-3.4,0-6.16-2.755-6.16-6.161V185.893c0-3.406,2.76-6.16,6.16-6.16
		c3.401,0,6.161,2.754,6.161,6.16v147.863C188.986,337.162,186.226,339.917,182.825,339.917z"/>
	<path fill="#556080" d="M232.113,339.917c-3.401,0-6.161-2.755-6.161-6.161V185.893c0-3.406,2.76-6.16,6.161-6.16
		s6.162,2.754,6.162,6.16v147.863C238.274,337.162,235.514,339.917,232.113,339.917z"/>
	<path fill="#556080" d="M281.4,339.917c-3.399,0-6.16-2.755-6.16-6.161V185.893c0-3.406,2.761-6.16,6.16-6.16
		s6.161,2.754,6.161,6.16v147.863C287.562,337.162,284.8,339.917,281.4,339.917z"/>
	<path fill="#556080" d="M330.688,339.917c-3.401,0-6.16-2.755-6.16-6.161V185.893c0-3.406,2.759-6.16,6.16-6.16
		s6.161,2.754,6.161,6.16v147.863C336.849,337.162,334.089,339.917,330.688,339.917z"/>
	<path fill="#556080" d="M379.977,339.917c-3.402,0-6.161-2.755-6.161-6.161V185.893c0-3.406,2.759-6.16,6.161-6.16
		c3.401,0,6.16,2.754,6.16,6.16v147.863C386.137,337.162,383.378,339.917,379.977,339.917z"/>
	<circle fill="#D8625E" cx="96.572" cy="130.445" r="18.483"/>
	<rect x="164.342" y="130.444" fill="#F0C419" width="86.253" height="49.288"/>
	<rect x="250.596" y="81.157" fill="#8697CB" width="98.575" height="98.576"/>
	<rect x="349.171" y="99.64" fill="#FB7B76" width="61.608" height="80.092"/>
</g>
</svg>
