<?xml version="1.0" encoding="utf-8"?>
<!-- Generator: Adobe Illustrator 16.0.0, SVG Export Plug-In . SVG Version: 6.00 Build 0)  -->
<!DOCTYPE svg PUBLIC "-//W3C//DTD SVG 1.1//EN" "http://www.w3.org/Graphics/SVG/1.1/DTD/svg11.dtd">
<svg version="1.1" id="Layer_1" xmlns="http://www.w3.org/2000/svg" xmlns:xlink="http://www.w3.org/1999/xlink" x="0px" y="0px"
	 width="512px" height="512px" viewBox="0 0 512 512" enable-background="new 0 0 512 512" xml:space="preserve">
<path fill="#387EF5" d="M512,256C512,114.638,397.362,0,256,0C114.638,0,0,114.638,0,256c0,141.362,114.638,256,256,256
	C397.362,512,512,397.362,512,256z"/>
<path fill="#A78966" d="M136.523,232.696v-35.063H89.771v169.472c0,19.366,15.699,35.063,35.063,35.063h298.039
	c3.227,0,5.844-2.614,5.844-5.842V232.696H136.523z M259.244,367.105c-25.821,0-46.751-20.93-46.751-46.752
	c0-25.819,20.931-46.75,46.751-46.75c25.821,0,46.751,20.931,46.751,46.75C305.995,346.176,285.065,367.105,259.244,367.105z"/>
<path fill="#57565C" d="M154.056,162.57h-29.222c-19.363,0-35.063,15.699-35.063,35.063c0,19.366,15.699,35.063,35.063,35.063
	h29.222v-64.282h11.686v-5.844H154.056z"/>
<path fill="#57565C" d="M422.873,162.57h-28.81l20.687,35.847c1.614,2.795,0.657,6.369-2.138,7.983l-45.547,26.296h61.651v-64.282
	C428.717,165.188,426.1,162.57,422.873,162.57z"/>
<path fill="#FFB655" d="M414.75,198.417l-20.687-35.847L338.78,66.823c-1.613-2.792-5.188-3.751-7.982-2.139L161.242,162.57
	l-43.027,24.838c-2.798,1.611-3.758,5.182-2.147,7.98c0,0,0,0,0.003,0.003l21.562,37.307h40.499l-17.063-29.513l40.439-23.375
	l17.53,30.331l-39.035,22.557h187.063l45.547-26.299C415.407,204.786,416.364,201.212,414.75,198.417z M282.508,133.042
	c5.083-2.953,11.311-3.15,16.567-0.52c0.608-9.664,8.933-17.005,18.597-16.4c9.663,0.607,17.004,8.932,16.399,18.595
	c-0.607,9.664-8.934,17.005-18.596,16.401c-2.33-0.148-4.608-0.758-6.7-1.795c-0.607,9.664-8.934,17.003-18.598,16.395
	c-9.665-0.607-17.003-8.934-16.396-18.598C274.152,141.262,277.427,135.977,282.508,133.042z"/>
<path fill="#FFDE55" d="M306.456,139.465c1.715,2.992,2.526,6.416,2.337,9.857c8.674,4.306,19.196,0.766,23.502-7.907
	c4.305-8.671,0.766-19.193-7.908-23.499c-8.673-4.306-19.192-0.766-23.498,7.908c-1.037,2.089-1.647,4.368-1.795,6.697
	C302.166,134.079,304.724,136.489,306.456,139.465z"/>
<path fill="#FF6243" d="M300.04,163.411c5.098-2.927,8.381-8.221,8.738-14.089c0.43-7.039-3.391-13.656-9.703-16.801
	c-8.673-4.306-19.192-0.765-23.498,7.908c-4.303,8.673-0.764,19.196,7.91,23.499C288.745,166.538,294.957,166.343,300.04,163.411z"
	/>
<path fill="#FFE477" d="M201.508,179.811l-40.441,23.375l17.064,29.511H180l39.038-22.557L201.508,179.811z"/>
<path fill="#FFD422" d="M305.995,320.354c0,25.822-20.93,46.752-46.751,46.752c-25.821,0-46.751-20.93-46.751-46.752
	c0-25.817,20.931-46.75,46.751-46.75C285.065,273.604,305.995,294.536,305.995,320.354z"/>
<path fill="#D1D3D4" d="M363.384,176.597l-97.186,56.1h-5.376l-4.5-7.771l101.216-58.44L363.384,176.597z"/>
<path fill="#D1D3D4" d="M375.069,196.873l-62.004,35.823H301.32l-2.922-5.084l70.829-40.907L375.069,196.873z"/>
<g>
	<path fill="#FF6243" d="M259.244,302.824c3.228,0,5.845,2.614,5.845,5.845h11.688c-0.03-7.403-4.708-13.99-11.688-16.457v-6.921
		H253.4v6.921c-9.11,3.209-13.894,13.196-10.685,22.306c2.467,7.011,9.098,11.697,16.529,11.681c3.228,0,5.845,2.617,5.845,5.845
		s-2.617,5.844-5.845,5.844c-3.227,0-5.844-2.616-5.844-5.844h-11.688c0.031,7.403,4.709,13.988,11.688,16.457v6.917h11.689V348.5
		c9.11-3.209,13.895-13.196,10.686-22.31c-2.468-7.01-9.098-11.693-16.53-11.681c-3.227,0-5.844-2.614-5.844-5.841
		C253.4,305.438,256.018,302.824,259.244,302.824z"/>
	<path fill="#FF6243" d="M282.619,314.51h11.688v11.688h-11.688V314.51z"/>
	<path fill="#FF6243" d="M224.182,314.51h11.688v11.688h-11.688V314.51z"/>
</g>
</svg>
