<?xml version="1.0" encoding="UTF-8" standalone="no"?>
<!DOCTYPE svg PUBLIC "-//W3C//DTD SVG 1.1//EN" "http://www.w3.org/Graphics/SVG/1.1/DTD/svg11.dtd">
<svg width="100%" height="100%" viewBox="0 0 2845 2845" version="1.1" xmlns="http://www.w3.org/2000/svg" xmlns:xlink="http://www.w3.org/1999/xlink" xml:space="preserve" xmlns:serif="http://www.serif.com/" style="fill-rule:evenodd;clip-rule:evenodd;stroke-linejoin:round;stroke-miterlimit:1.41421;">
    <g transform="matrix(5.55556,0,0,5.55556,0,0)">
        <path d="M512,256C512,114.638 397.362,0 256,0C114.638,0 0,114.638 0,256C0,397.362 114.638,512 256,512C397.362,512 512,397.362 512,256Z" style="fill:rgb(56,126,245);fill-rule:nonzero;"/>
        <path d="M136.523,232.696L136.523,197.633L89.771,197.633L89.771,367.105C89.771,386.471 105.47,402.168 124.834,402.168L422.873,402.168C426.1,402.168 428.717,399.554 428.717,396.326L428.717,232.696L136.523,232.696ZM259.244,367.105C233.423,367.105 212.493,346.175 212.493,320.353C212.493,294.534 233.424,273.603 259.244,273.603C285.065,273.603 305.995,294.534 305.995,320.353C305.995,346.176 285.065,367.105 259.244,367.105Z" style="fill:rgb(167,137,102);fill-rule:nonzero;"/>
        <path d="M154.056,162.57L124.834,162.57C105.471,162.57 89.771,178.269 89.771,197.633C89.771,216.999 105.47,232.696 124.834,232.696L154.056,232.696L154.056,168.414L165.742,168.414L165.742,162.57L154.056,162.57Z" style="fill:rgb(87,86,92);fill-rule:nonzero;"/>
        <path d="M422.873,162.57L394.063,162.57L414.75,198.417C416.364,201.212 415.407,204.786 412.612,206.4L367.065,232.696L428.716,232.696L428.716,168.414C428.717,165.188 426.1,162.57 422.873,162.57Z" style="fill:rgb(87,86,92);fill-rule:nonzero;"/>
        <path d="M414.75,198.417L394.063,162.57L338.78,66.823C337.167,64.031 333.592,63.072 330.798,64.684L161.242,162.57L118.215,187.408C115.417,189.019 114.457,192.59 116.068,195.388L116.071,195.391L137.633,232.698L178.132,232.698L161.069,203.185L201.508,179.81L219.038,210.141L180.003,232.698L367.066,232.698L412.613,206.399C415.407,204.786 416.364,201.212 414.75,198.417ZM282.508,133.042C287.591,130.089 293.819,129.892 299.075,132.522C299.683,122.858 308.008,115.517 317.672,116.122C327.335,116.729 334.676,125.054 334.071,134.717C333.464,144.381 325.137,151.722 315.475,151.118C313.145,150.97 310.867,150.36 308.775,149.323C308.168,158.987 299.841,166.326 290.177,165.718C280.512,165.111 273.174,156.784 273.781,147.12C274.152,141.262 277.427,135.977 282.508,133.042Z" style="fill:rgb(255,182,85);fill-rule:nonzero;"/>
        <path d="M306.456,139.465C308.171,142.457 308.982,145.881 308.793,149.322C317.467,153.628 327.989,150.088 332.295,141.415C336.6,132.744 333.061,122.222 324.387,117.916C315.714,113.61 305.195,117.15 300.889,125.824C299.852,127.913 299.242,130.192 299.094,132.521C302.166,134.079 304.724,136.489 306.456,139.465Z" style="fill:rgb(255,222,85);fill-rule:nonzero;"/>
        <path d="M300.04,163.411C305.138,160.484 308.421,155.19 308.778,149.322C309.208,142.283 305.387,135.666 299.075,132.521C290.402,128.215 279.883,131.756 275.577,140.429C271.274,149.102 274.813,159.625 283.487,163.928C288.745,166.538 294.957,166.343 300.04,163.411Z" style="fill:rgb(255,98,67);fill-rule:nonzero;"/>
        <path d="M201.508,179.811L161.067,203.186L178.131,232.697L180,232.697L219.038,210.14L201.508,179.811Z" style="fill:rgb(255,228,119);fill-rule:nonzero;"/>
        <path d="M305.995,320.354C305.995,346.176 285.065,367.106 259.244,367.106C233.423,367.106 212.493,346.176 212.493,320.354C212.493,294.537 233.424,273.604 259.244,273.604C285.065,273.604 305.995,294.536 305.995,320.354Z" style="fill:rgb(255,212,34);fill-rule:nonzero;"/>
        <path d="M363.384,176.597L266.198,232.697L260.822,232.697L256.322,224.926L357.538,166.486L363.384,176.597Z" style="fill:rgb(209,211,212);fill-rule:nonzero;"/>
        <path d="M375.069,196.873L313.065,232.696L301.32,232.696L298.398,227.612L369.227,186.705L375.069,196.873Z" style="fill:rgb(209,211,212);fill-rule:nonzero;"/>
        <g>
            <rect x="282.619" y="314.51" width="11.688" height="11.688" style="fill:rgb(255,98,67);fill-rule:nonzero;"/>
            <rect x="224.182" y="314.51" width="11.688" height="11.688" style="fill:rgb(255,98,67);fill-rule:nonzero;"/>
            <g transform="matrix(2.45254,0,0,2.54866,-231.771,-607.002)">
                <text x="192.306px" y="366.962px" style="font-family:'ArialMT', 'Arial', sans-serif;font-size:12px;fill:rgb(255,98,67);">Rp</text>
            </g>
        </g>
    </g>
</svg>
