<?xml version="1.0" encoding="utf-8"?>
<!-- Generator: Adobe Illustrator 16.0.0, SVG Export Plug-In . SVG Version: 6.00 Build 0)  -->
<!DOCTYPE svg PUBLIC "-//W3C//DTD SVG 1.1//EN" "http://www.w3.org/Graphics/SVG/1.1/DTD/svg11.dtd">
<svg version="1.1" id="Layer_1" xmlns="http://www.w3.org/2000/svg" xmlns:xlink="http://www.w3.org/1999/xlink" x="0px" y="0px"
	 width="512px" height="512px" viewBox="0 0 512 512" enable-background="new 0 0 512 512" xml:space="preserve">
<path fill="#387EF5" d="M512,256C512,114.638,397.362,0,256,0C114.638,0,0,114.638,0,256c0,141.362,114.638,256,256,256
	C397.362,512,512,397.362,512,256z"/>
<g id="surface1">
	<path fill="#4398D1" d="M83.684,122.764h80.16v91.613h-80.16V122.764z"/>
	<path fill="#88B337" d="M300.548,217.954l-39.368-37.933h-22.902l-39.37,37.933c-22.106,20.728-34.772,49.597-35.063,79.897
		c0,42.437,38.453,76.843,85.885,76.843c47.43,0,85.885-34.406,85.885-76.843C335.322,267.551,322.657,238.682,300.548,217.954z"/>
	<path fill="#80A834" d="M311.456,230.183c0.827,5.796,1.242,11.642,1.257,17.493c0,51.176-46.38,92.664-103.569,92.664
		c-11.754-0.011-23.439-1.844-34.641-5.421c16.554,25.33,44.971,40.36,75.226,39.774c47.43,0,85.885-34.406,85.885-76.843
		C335.43,273.212,326.916,249.366,311.456,230.183z"/>
	<path fill="#FFB782" d="M304.122,122.764h-60.119V94.136h-28.63l-28.628,28.627h-22.902v91.613h125.963
		c6.329,0,11.452-5.125,11.452-11.453v-51.53h2.863c7.908,0,14.314-6.407,14.314-14.313
		C318.437,129.171,312.03,122.764,304.122,122.764z"/>
	<path fill="#3582BD" d="M135.214,185.747h11.454v11.451h-11.454V185.747z"/>
	<path fill="#FFB782" d="M290.628,338.853l-2.728,1.487h-43.897c-9.487,0-17.177,7.689-17.177,17.178
		c0,9.486,7.689,17.176,17.177,17.176h-11.451l-59.239-27.132c-8.055-3.676-17.566-0.132-21.243,7.924
		c-0.103,0.217-0.192,0.439-0.285,0.663c-2.948,7.375-0.109,15.803,6.699,19.891l65.907,39.542
		c5.337,3.213,11.446,4.913,17.676,4.919h122.173v-74.435C343.509,328.786,314.318,325.93,290.628,338.853z"/>
	<path fill="#DE4C3C" d="M364.241,346.065h51.532V420.5h-51.532V346.065z"/>
	<path fill="#7A4930" d="M381.419,391.872h11.45v11.452h-11.45V391.872z"/>
	<path fill="#88B337" d="M275.494,122.764l14.313-34.354h-80.158l14.313,34.354H275.494z"/>
	<path fill="#FDB62F" d="M358.517,225.828c-1.957-11.745-11.16-20.945-22.902-22.904c11.742-1.958,20.945-11.159,22.902-22.902
		c1.957,11.743,11.159,20.945,22.902,22.902C369.676,204.883,360.474,214.083,358.517,225.828z"/>
	<path fill="#DADDDF" d="M366.486,319.247l-10.879-3.619c3.402-10.187,3.819-21.126,1.214-31.543l-1.335-5.342l11.107-2.771
		l1.335,5.336C371.072,293.837,370.568,306.992,366.486,319.247z"/>
	<path fill="#DADDDF" d="M169.569,105.587h-11.451c0-12.647,10.255-22.902,22.902-22.902v11.451
		C174.694,94.136,169.569,99.261,169.569,105.587z"/>
	<path fill="#FFFFFF" d="M255.455,271.632h-11.451c-3.161,0-5.726-2.565-5.726-5.726c0-3.161,2.565-5.726,5.726-5.726h22.901
		v-11.451h-11.45v-11.451h-11.451v11.451c-9.487,0-17.177,7.689-17.177,17.177s7.689,17.177,17.177,17.177h11.451
		c3.161,0,5.725,2.566,5.725,5.726c0,3.161-2.564,5.728-5.725,5.728h-22.902v11.451h11.451v11.45h11.451v-11.45
		c9.487,0,17.176-7.689,17.176-17.179C272.631,279.321,264.941,271.632,255.455,271.632z"/>
	<path fill="#F2A46F" d="M289.807,380.422h-45.803c-3.161,0-5.726-2.567-5.726-5.729c0-3.158,2.565-5.726,5.726-5.726h45.803
		c3.162,0,5.727,2.567,5.727,5.726C295.533,377.854,292.969,380.422,289.807,380.422z"/>
	<path fill="#F5AB76" d="M289.807,214.376c6.329,0,11.452-5.125,11.452-11.453v-47.007c-28.838,30.135-69.21,48.239-99.745,58.46
		H289.807z"/>
</g>
</svg>
