<?xml version="1.0" encoding="iso-8859-1"?>
<!-- Generator: Adobe Illustrator 19.0.0, SVG Export Plug-In . SVG Version: 6.00 Build 0)  -->
<svg version="1.1" id="Layer_1" xmlns="http://www.w3.org/2000/svg" xmlns:xlink="http://www.w3.org/1999/xlink" x="0px" y="0px"
	 viewBox="0 0 491.525 491.525" style="enable-background:new 0 0 491.525 491.525;" xml:space="preserve">
<polygon style="fill:#31978C;" points="412.119,267.84 324.537,237.664 154.321,297.597 0,315.409 0,351.933 166.981,409.466 
	491.52,295.197 491.52,258.674 "/>
<polygon style="fill:#3EA69B;" points="324.537,201.141 0,315.409 166.981,372.943 491.52,258.674 "/>
<path style="fill:#44C4A1;" d="M144.943,357.128L45.64,322.913c11.97-4.214,11.864-11.011-0.236-15.18l257.59-90.696
	c12.1,4.169,31.612,4.132,43.582-0.082l99.303,34.215c-11.97,4.214-11.864,11.011,0.236,15.18l-257.59,90.696
	C176.425,352.877,156.913,352.914,144.943,357.128z"/>
<g>
	<path style="fill:#3EA69B;" d="M290.272,271.369c31.458,10.839,37.03,26.642,12.446,35.298
		c-24.584,8.656-70.014,6.886-101.472-3.952c-31.458-10.839-37.03-26.642-12.446-35.298
		C213.384,258.761,258.814,260.53,290.272,271.369z"/>
	<path style="fill:#3EA69B;" d="M381.904,239.106c5.623,1.937,5.672,5.096,0.11,7.054c-5.562,1.959-14.63,1.976-20.253,0.038
		c-5.623-1.937-5.672-5.096-0.11-7.054C367.213,237.186,376.281,237.169,381.904,239.106z"/>
	<path style="fill:#3EA69B;" d="M129.758,327.885c5.623,1.937,5.672,5.096,0.11,7.054c-5.562,1.959-14.63,1.976-20.253,0.038
		c-5.623-1.937-5.672-5.096-0.11-7.054C115.067,325.965,124.135,325.948,129.758,327.885z"/>
</g>
<path style="fill:#44C4A1;" d="M289.226,303.694l-8.079-2.784c-11.036,3.167-24.039,4.944-38.993,5.328l-1.636-6.131
	c11.516-0.303,21.03-1.419,28.569-3.352l-21.471-7.398c-10.241,2.219-18.902,3.443-25.98,3.673
	c-7.078,0.23-13.807-0.754-20.188-2.953c-6.381-2.199-9.4-4.772-9.043-7.727c0.362-2.954,3.897-5.739,10.611-8.36l-5.534-1.907
	l7.003-2.466l5.643,1.944c8.622-2.622,18.978-4.342,31.076-5.157l3.063,6.015c-8.287,0.502-15.638,1.6-22.075,3.299l20.805,7.168
	l0.33-0.116c10.388-2.268,19.246-3.511,26.575-3.729c7.342-0.22,14.238,0.784,20.691,3.008c6.458,2.225,9.454,4.834,8.981,7.824
	c-0.464,2.993-4.231,5.86-11.31,8.61l7.966,2.745L289.226,303.694z M210.067,281.801c-0.205,1.227,0.936,2.265,3.408,3.117
	c2.472,0.852,5.157,1.268,8.055,1.248c2.893-0.015,7.055-0.517,12.473-1.499l-19.148-6.597
	C211.865,279.33,210.267,280.573,210.067,281.801z M281.642,290.406c0.347-1.302-0.767-2.4-3.352-3.29
	c-2.58-0.889-5.431-1.313-8.548-1.269c-3.126,0.046-7.538,0.612-13.241,1.694l19.918,6.863
	C279.556,293.044,281.291,291.712,281.642,290.406z"/>
<polygon style="fill:#31978C;" points="412.119,224.94 324.537,194.764 154.321,254.697 0,272.51 0,309.033 166.981,366.566 
	491.52,252.298 491.52,215.775 "/>
<polygon style="fill:#3EA69B;" points="324.537,158.241 0,272.51 166.981,330.043 491.52,215.775 "/>
<path style="fill:#44C4A1;" d="M144.943,314.229L45.64,280.014c11.97-4.214,11.864-11.011-0.236-15.18l257.59-90.696
	c12.1,4.169,31.612,4.132,43.582-0.082l99.303,34.215c-11.97,4.214-11.864,11.011,0.236,15.18l-257.59,90.696
	C176.425,309.978,156.913,310.015,144.943,314.229z"/>
<g>
	<path style="fill:#3EA69B;" d="M290.272,228.47c31.458,10.839,37.03,26.642,12.446,35.298
		c-24.584,8.656-70.014,6.886-101.472-3.952s-37.03-26.642-12.446-35.298C213.384,215.861,258.814,217.631,290.272,228.47z"/>
	<path style="fill:#3EA69B;" d="M381.904,196.207c5.623,1.937,5.672,5.096,0.11,7.054c-5.562,1.959-14.63,1.976-20.253,0.038
		c-5.623-1.937-5.672-5.096-0.11-7.054C367.213,194.286,376.281,194.269,381.904,196.207z"/>
	<path style="fill:#3EA69B;" d="M129.758,284.986c5.623,1.937,5.672,5.096,0.11,7.054c-5.562,1.959-14.63,1.976-20.253,0.038
		c-5.623-1.937-5.672-5.096-0.11-7.054C115.067,283.066,124.135,283.049,129.758,284.986z"/>
</g>
<path style="fill:#44C4A1;" d="M289.226,260.795l-8.079-2.784c-11.036,3.167-24.039,4.944-38.993,5.328l-1.636-6.131
	c11.516-0.303,21.03-1.419,28.569-3.352l-21.471-7.398c-10.241,2.219-18.902,3.443-25.98,3.673
	c-7.078,0.23-13.807-0.754-20.188-2.953c-6.381-2.199-9.4-4.772-9.043-7.727c0.362-2.954,3.897-5.739,10.611-8.36l-5.534-1.907
	l7.003-2.466l5.643,1.944c8.622-2.622,18.978-4.342,31.076-5.157l3.063,6.015c-8.287,0.502-15.638,1.601-22.075,3.299l20.805,7.168
	l0.33-0.116c10.388-2.268,19.246-3.511,26.575-3.729c7.342-0.22,14.238,0.784,20.691,3.008c6.458,2.225,9.454,4.834,8.981,7.824
	c-0.464,2.993-4.231,5.86-11.31,8.61l7.966,2.745L289.226,260.795z M210.067,238.902c-0.205,1.227,0.936,2.265,3.408,3.117
	c2.472,0.852,5.157,1.268,8.055,1.248c2.893-0.015,7.055-0.517,12.473-1.499l-19.148-6.597
	C211.865,236.43,210.267,237.674,210.067,238.902z M281.642,247.506c0.347-1.302-0.767-2.399-3.352-3.29
	c-2.58-0.889-5.431-1.313-8.548-1.269c-3.126,0.046-7.538,0.612-13.241,1.694l19.918,6.863
	C279.556,250.145,281.291,248.813,281.642,247.506z"/>
<polygon style="fill:#31978C;" points="412.119,182.041 324.537,151.865 154.321,211.798 0,229.611 0,266.134 166.981,323.667 
	491.52,209.399 491.52,172.876 "/>
<polygon style="fill:#3EA69B;" points="324.537,115.342 0,229.611 166.981,287.144 491.52,172.876 "/>
<path style="fill:#44C4A1;" d="M144.943,271.33L45.64,237.115c11.97-4.214,11.864-11.011-0.236-15.18l257.59-90.696
	c12.1,4.169,31.612,4.132,43.582-0.082l99.303,34.215c-11.97,4.214-11.864,11.011,0.236,15.18l-257.59,90.696
	C176.425,267.078,156.913,267.115,144.943,271.33z"/>
<g>
	<path style="fill:#3EA69B;" d="M290.272,185.57c31.458,10.839,37.03,26.642,12.446,35.298s-70.014,6.886-101.472-3.952
		s-37.03-26.642-12.446-35.298C213.384,172.962,258.814,174.732,290.272,185.57z"/>
	<path style="fill:#3EA69B;" d="M381.904,153.307c5.623,1.937,5.672,5.096,0.11,7.054c-5.562,1.959-14.63,1.976-20.253,0.038
		c-5.623-1.937-5.672-5.096-0.11-7.054C367.213,151.387,376.281,151.37,381.904,153.307z"/>
	<path style="fill:#3EA69B;" d="M129.758,242.087c5.623,1.937,5.672,5.096,0.11,7.054c-5.562,1.959-14.63,1.976-20.253,0.038
		c-5.623-1.937-5.672-5.096-0.11-7.054C115.067,240.166,124.135,240.149,129.758,242.087z"/>
</g>
<path style="fill:#44C4A1;" d="M289.226,217.895l-8.079-2.784c-11.036,3.167-24.039,4.944-38.993,5.328l-1.636-6.131
	c11.516-0.303,21.03-1.419,28.569-3.352l-21.471-7.398c-10.241,2.219-18.902,3.443-25.98,3.673
	c-7.078,0.23-13.807-0.754-20.188-2.953c-6.381-2.199-9.4-4.772-9.043-7.727c0.362-2.954,3.897-5.739,10.611-8.36l-5.534-1.907
	l7.003-2.466l5.643,1.944c8.622-2.622,18.978-4.342,31.076-5.157l3.063,6.015c-8.287,0.502-15.638,1.601-22.075,3.299l20.805,7.168
	l0.33-0.116c10.388-2.268,19.246-3.511,26.575-3.729c7.342-0.22,14.238,0.784,20.691,3.008c6.458,2.225,9.454,4.834,8.981,7.824
	c-0.464,2.993-4.231,5.86-11.31,8.61l7.966,2.745L289.226,217.895z M210.067,196.002c-0.205,1.227,0.936,2.265,3.408,3.117
	c2.472,0.852,5.157,1.268,8.055,1.248c2.893-0.015,7.055-0.517,12.473-1.499l-19.148-6.597
	C211.865,193.531,210.267,194.774,210.067,196.002z M281.642,204.607c0.347-1.302-0.767-2.4-3.352-3.29
	c-2.58-0.889-5.431-1.313-8.548-1.269c-3.126,0.046-7.538,0.612-13.241,1.694l19.918,6.863
	C279.556,207.246,281.291,205.913,281.642,204.607z"/>
<polygon style="fill:#31978C;" points="412.119,139.141 324.537,108.965 154.321,168.899 0,186.711 0,223.234 166.981,280.768 
	491.52,166.499 491.52,129.976 "/>
<polygon style="fill:#3EA69B;" points="324.537,72.443 0,186.711 166.981,244.245 491.52,129.976 "/>
<path style="fill:#44C4A1;" d="M144.943,228.43L45.64,194.215c11.97-4.214,11.864-11.011-0.236-15.18l257.59-90.696
	c12.1,4.169,31.612,4.132,43.582-0.082l99.303,34.215c-11.97,4.214-11.864,11.011,0.236,15.18l-257.59,90.696
	C176.425,224.179,156.913,224.216,144.943,228.43z"/>
<g>
	<path style="fill:#3EA69B;" d="M290.272,142.671c31.458,10.839,37.03,26.642,12.446,35.298
		c-24.584,8.656-70.014,6.886-101.472-3.952c-31.458-10.839-37.03-26.642-12.446-35.298
		C213.384,130.063,258.814,131.832,290.272,142.671z"/>
	<path style="fill:#3EA69B;" d="M381.904,110.408c5.623,1.937,5.672,5.096,0.11,7.054c-5.562,1.959-14.63,1.976-20.253,0.038
		c-5.623-1.937-5.672-5.096-0.11-7.054C367.213,108.487,376.281,108.47,381.904,110.408z"/>
	<path style="fill:#3EA69B;" d="M129.758,199.187c5.623,1.937,5.672,5.096,0.11,7.054c-5.562,1.959-14.63,1.976-20.253,0.038
		s-5.672-5.096-0.11-7.054C115.067,197.267,124.135,197.25,129.758,199.187z"/>
</g>
<path style="fill:#44C4A1;" d="M289.226,174.996l-8.079-2.784c-11.036,3.168-24.039,4.944-38.993,5.328l-1.636-6.131
	c11.516-0.303,21.03-1.419,28.569-3.352l-21.471-7.398c-10.241,2.219-18.902,3.443-25.98,3.673
	c-7.078,0.23-13.807-0.754-20.188-2.953c-6.381-2.199-9.4-4.772-9.043-7.727c0.362-2.954,3.897-5.739,10.611-8.36l-5.534-1.907
	l7.003-2.466l5.643,1.944c8.622-2.622,18.978-4.342,31.076-5.157l3.063,6.015c-8.287,0.502-15.638,1.601-22.075,3.299l20.805,7.168
	l0.33-0.116c10.388-2.268,19.246-3.511,26.575-3.729c7.342-0.22,14.238,0.784,20.691,3.008c6.458,2.225,9.454,4.834,8.981,7.824
	c-0.464,2.993-4.231,5.86-11.31,8.61l7.966,2.745L289.226,174.996z M210.067,153.103c-0.205,1.227,0.936,2.265,3.408,3.117
	c2.472,0.852,5.157,1.268,8.055,1.248c2.893-0.015,7.055-0.517,12.473-1.499l-19.148-6.597
	C211.865,150.631,210.267,151.875,210.067,153.103z M281.642,161.707c0.347-1.302-0.767-2.4-3.352-3.29
	c-2.58-0.889-5.431-1.313-8.548-1.269c-3.126,0.046-7.538,0.612-13.241,1.694l19.918,6.863
	C279.556,164.346,281.291,163.014,281.642,161.707z"/>
<polygon style="fill:#31978C;" points="412.119,96.242 324.537,66.066 154.321,125.999 0,143.812 0,180.335 166.981,237.868 
	491.52,123.6 491.52,87.077 "/>
<polygon style="fill:#3EA69B;" points="324.537,29.543 0,143.812 166.981,201.345 491.52,87.077 "/>
<path style="fill:#44C4A1;" d="M144.943,185.531L45.64,151.316c11.97-4.214,11.864-11.011-0.236-15.18l257.59-90.696
	c12.1,4.169,31.612,4.132,43.582-0.082l99.303,34.215c-11.97,4.214-11.864,11.011,0.236,15.18l-257.59,90.696
	C176.425,181.28,156.913,181.316,144.943,185.531z"/>
<g>
	<path style="fill:#3EA69B;" d="M290.272,99.771c31.458,10.839,37.03,26.642,12.446,35.298s-70.014,6.886-101.472-3.952
		s-37.03-26.642-12.446-35.298C213.384,87.163,258.814,88.933,290.272,99.771z"/>
	<path style="fill:#3EA69B;" d="M381.904,67.508c5.623,1.937,5.672,5.096,0.11,7.054c-5.562,1.959-14.63,1.976-20.253,0.038
		c-5.623-1.937-5.672-5.096-0.11-7.054C367.213,65.588,376.281,65.571,381.904,67.508z"/>
	<path style="fill:#3EA69B;" d="M129.758,156.288c5.623,1.937,5.672,5.096,0.11,7.054c-5.562,1.959-14.63,1.976-20.253,0.038
		c-5.623-1.937-5.672-5.096-0.11-7.054C115.067,154.368,124.135,154.35,129.758,156.288z"/>
</g>
<path style="fill:#44C4A1;" d="M289.226,132.096l-8.079-2.784c-11.036,3.167-24.039,4.944-38.993,5.328l-1.636-6.131
	c11.516-0.303,21.03-1.419,28.569-3.352l-21.471-7.398c-10.241,2.219-18.902,3.443-25.98,3.673
	c-7.078,0.23-13.807-0.754-20.188-2.953c-6.381-2.199-9.4-4.772-9.043-7.727c0.362-2.954,3.897-5.739,10.611-8.36l-5.534-1.907
	l7.003-2.466l5.643,1.944c8.622-2.622,18.978-4.342,31.076-5.157l3.063,6.015c-8.287,0.502-15.638,1.601-22.075,3.299l20.805,7.168
	l0.33-0.116c10.388-2.268,19.246-3.511,26.575-3.729c7.342-0.22,14.238,0.784,20.691,3.008c6.458,2.225,9.454,4.834,8.981,7.824
	c-0.464,2.993-4.231,5.86-11.31,8.61l7.966,2.745L289.226,132.096z M210.067,110.203c-0.205,1.227,0.936,2.265,3.408,3.117
	c2.472,0.852,5.157,1.268,8.055,1.248c2.893-0.015,7.055-0.517,12.473-1.499l-19.148-6.597
	C211.865,107.732,210.267,108.975,210.067,110.203z M281.642,118.808c0.347-1.302-0.767-2.4-3.352-3.29
	c-2.58-0.889-5.431-1.313-8.548-1.269c-3.126,0.046-7.538,0.612-13.241,1.694l19.918,6.863
	C279.556,121.447,281.291,120.114,281.642,118.808z"/>
<polygon style="fill:#FFFFFF;" points="291.156,157.624 291.156,365.8 365.817,339.512 365.817,131.336 "/>
<g>
	<polygon style="fill:#FCD462;" points="300.067,154.486 300.067,362.662 307.771,359.95 307.771,151.774 	"/>
	<polygon style="fill:#FCD462;" points="349.202,137.186 349.202,345.362 356.907,342.65 356.907,134.474 	"/>
</g>
<path style="fill:#F6C358;" d="M357.623,435.279c0,14.744-28.427,26.696-63.493,26.696s-63.493-11.952-63.493-26.696v-21.838
	h126.987V435.279z"/>
<ellipse style="fill:#FCD462;" cx="294.144" cy="413.439" rx="63.493" ry="26.696"/>
<g>
	<path style="fill:#DC8744;" d="M294.13,391.96c-30.604,0-55.414,9.617-55.414,21.481c0,11.864,24.81,21.481,55.414,21.481
		s55.414-9.617,55.414-21.481C349.543,401.578,324.734,391.96,294.13,391.96z M294.13,432.536c-27.203,0-49.256-8.549-49.256-19.094
		c0-10.546,22.053-19.094,49.256-19.094c27.203,0,49.256,8.549,49.256,19.094C343.386,423.987,321.333,432.536,294.13,432.536z"/>
	<path style="fill:#DC8744;" d="M292.1,428.281v-2.613c-8.44-0.334-16.016-1.634-22.72-3.901l6.742-3.115
		c5.171,1.742,10.492,2.78,15.979,3.115v-6.946c-6.96-0.644-12.055-1.492-15.287-2.542c-3.232-1.05-4.848-2.608-4.848-4.672
		c0-2.064,1.856-3.753,5.584-5.067c3.728-1.313,8.576-2.028,14.551-2.147v-1.79h5.907v1.825c6.772,0.192,13.175,1.087,19.211,2.686
		l-6.005,3.294c-4.066-1.122-8.463-1.814-13.205-2.077v6.73h0.278c7.08,0.645,12.281,1.516,15.603,2.613
		c3.33,1.098,4.991,2.692,4.991,4.78c0,2.089-1.909,3.79-5.727,5.102c-3.818,1.314-8.861,2.029-15.144,2.149v2.577H292.1z
		 M285.584,405.172c-1.571,0.536-2.352,1.205-2.352,2.004s0.616,1.432,1.849,1.897c1.225,0.466,3.57,0.913,7.02,1.343v-6.194
		C289.327,404.318,287.155,404.635,285.584,405.172z M305.028,420.87c1.721-0.548,2.585-1.24,2.585-2.076
		c0-0.835-0.676-1.498-2.029-1.987c-1.36-0.49-3.886-0.948-7.576-1.378v6.443C300.961,421.754,303.299,421.419,305.028,420.87z"/>
</g>
<path style="fill:#F6C358;" d="M357.623,408.757c0,14.744-28.427,26.696-63.493,26.696s-63.493-11.952-63.493-26.696v-21.838
	h126.987V408.757z"/>
<ellipse style="fill:#FCD462;" cx="294.144" cy="386.918" rx="63.493" ry="26.696"/>
<g>
	<path style="fill:#DC8744;" d="M294.13,365.438c-30.604,0-55.414,9.617-55.414,21.481c0,11.864,24.81,21.481,55.414,21.481
		s55.414-9.617,55.414-21.481C349.543,375.056,324.734,365.438,294.13,365.438z M294.13,406.014
		c-27.203,0-49.256-8.549-49.256-19.094c0-10.546,22.053-19.094,49.256-19.094c27.203,0,49.256,8.549,49.256,19.094
		C343.386,397.465,321.333,406.014,294.13,406.014z"/>
	<path style="fill:#DC8744;" d="M292.1,401.759v-2.613c-8.44-0.334-16.016-1.634-22.72-3.901l6.742-3.115
		c5.171,1.742,10.492,2.78,15.979,3.115v-6.946c-6.96-0.644-12.055-1.492-15.287-2.542c-3.232-1.05-4.848-2.608-4.848-4.672
		c0-2.064,1.856-3.753,5.584-5.067c3.728-1.313,8.576-2.028,14.551-2.147v-1.79h5.907v1.825c6.772,0.192,13.175,1.087,19.211,2.686
		l-6.005,3.294c-4.066-1.122-8.463-1.814-13.205-2.077v6.73h0.278c7.08,0.645,12.281,1.516,15.603,2.613
		c3.33,1.098,4.991,2.692,4.991,4.78c0,2.089-1.909,3.79-5.727,5.102c-3.818,1.314-8.861,2.029-15.144,2.149v2.577H292.1z
		 M285.584,378.65c-1.571,0.536-2.352,1.205-2.352,2.005s0.616,1.432,1.849,1.897c1.225,0.466,3.57,0.913,7.02,1.343V377.7
		C289.327,377.796,287.155,378.113,285.584,378.65z M305.028,394.348c1.721-0.548,2.585-1.24,2.585-2.076
		c0-0.835-0.676-1.498-2.029-1.987c-1.36-0.489-3.886-0.948-7.576-1.378v6.443C300.961,395.232,303.299,394.897,305.028,394.348z"/>
</g>
<path style="fill:#F6C358;" d="M357.623,382.235c0,14.744-28.427,26.696-63.493,26.696s-63.493-11.952-63.493-26.696v-21.838
	h126.987V382.235z"/>
<ellipse style="fill:#FCD462;" cx="294.144" cy="360.396" rx="63.493" ry="26.696"/>
<g>
	<path style="fill:#DC8744;" d="M294.13,338.916c-30.604,0-55.414,9.617-55.414,21.481c0,11.864,24.81,21.481,55.414,21.481
		s55.414-9.617,55.414-21.481C349.543,348.534,324.734,338.916,294.13,338.916z M294.13,379.492
		c-27.203,0-49.256-8.549-49.256-19.094c0-10.546,22.053-19.094,49.256-19.094c27.203,0,49.256,8.549,49.256,19.094
		C343.386,370.943,321.333,379.492,294.13,379.492z"/>
	<path style="fill:#DC8744;" d="M292.1,375.237v-2.613c-8.44-0.334-16.016-1.634-22.72-3.901l6.742-3.115
		c5.171,1.742,10.492,2.78,15.979,3.115v-6.946c-6.96-0.644-12.055-1.492-15.287-2.542c-3.232-1.05-4.848-2.608-4.848-4.672
		c0-2.064,1.856-3.753,5.584-5.067c3.728-1.313,8.576-2.028,14.551-2.147v-1.79h5.907v1.825c6.772,0.192,13.175,1.087,19.211,2.686
		l-6.005,3.294c-4.066-1.122-8.463-1.814-13.205-2.077v6.73h0.278c7.08,0.645,12.281,1.516,15.603,2.613
		c3.33,1.098,4.991,2.692,4.991,4.78c0,2.089-1.909,3.79-5.727,5.102c-3.818,1.314-8.861,2.029-15.144,2.149v2.577H292.1z
		 M285.584,352.128c-1.571,0.536-2.352,1.205-2.352,2.005c0,0.8,0.616,1.432,1.849,1.897c1.225,0.466,3.57,0.913,7.02,1.343v-6.194
		C289.327,351.274,287.155,351.59,285.584,352.128z M305.028,367.826c1.721-0.548,2.585-1.24,2.585-2.076
		c0-0.835-0.676-1.498-2.029-1.987c-1.36-0.489-3.886-0.948-7.576-1.378v6.443C300.961,368.71,303.299,368.375,305.028,367.826z"/>
</g>
<path style="fill:#F6C358;" d="M357.623,355.713c0,14.744-28.427,26.696-63.493,26.696s-63.493-11.952-63.493-26.696v-21.838
	h126.987V355.713z"/>
<ellipse style="fill:#FCD462;" cx="294.144" cy="333.874" rx="63.493" ry="26.696"/>
<g>
	<path style="fill:#DC8744;" d="M294.13,312.394c-30.604,0-55.414,9.617-55.414,21.481c0,11.864,24.81,21.481,55.414,21.481
		s55.414-9.617,55.414-21.481C349.543,322.012,324.734,312.394,294.13,312.394z M294.13,352.97
		c-27.203,0-49.256-8.549-49.256-19.094c0-10.546,22.053-19.094,49.256-19.094c27.203,0,49.256,8.549,49.256,19.094
		C343.386,344.421,321.333,352.97,294.13,352.97z"/>
	<path style="fill:#DC8744;" d="M292.1,348.715v-2.613c-8.44-0.334-16.016-1.634-22.72-3.901l6.742-3.115
		c5.171,1.742,10.492,2.78,15.979,3.115v-6.946c-6.96-0.644-12.055-1.492-15.287-2.542c-3.232-1.05-4.848-2.608-4.848-4.672
		c0-2.064,1.856-3.753,5.584-5.067c3.728-1.313,8.576-2.028,14.551-2.147v-1.79h5.907v1.825c6.772,0.192,13.175,1.087,19.211,2.686
		l-6.005,3.294c-4.066-1.122-8.463-1.814-13.205-2.077v6.73h0.278c7.08,0.645,12.281,1.516,15.603,2.613
		c3.33,1.098,4.991,2.692,4.991,4.78c0,2.089-1.909,3.79-5.727,5.102c-3.818,1.314-8.861,2.029-15.144,2.149v2.577H292.1z
		 M285.584,325.606c-1.571,0.536-2.352,1.205-2.352,2.005c0,0.8,0.616,1.432,1.849,1.897c1.225,0.466,3.57,0.913,7.02,1.343v-6.194
		C289.327,324.752,287.155,325.068,285.584,325.606z M305.028,341.304c1.721-0.548,2.585-1.24,2.585-2.076
		c0-0.835-0.676-1.498-2.029-1.987c-1.36-0.489-3.886-0.948-7.576-1.378v6.443C300.961,342.188,303.299,341.853,305.028,341.304z"/>
</g>
<path style="fill:#F6C358;" d="M357.623,329.191c0,14.744-28.427,26.696-63.493,26.696s-63.493-11.952-63.493-26.696v-21.838
	h126.987V329.191z"/>
<ellipse style="fill:#FCD462;" cx="294.144" cy="307.353" rx="63.493" ry="26.696"/>
<g>
	<path style="fill:#DC8744;" d="M294.13,285.872c-30.604,0-55.414,9.617-55.414,21.481c0,11.864,24.81,21.481,55.414,21.481
		s55.414-9.617,55.414-21.481C349.543,295.49,324.734,285.872,294.13,285.872z M294.13,326.447
		c-27.203,0-49.256-8.549-49.256-19.094c0-10.546,22.053-19.094,49.256-19.094c27.203,0,49.256,8.549,49.256,19.094
		C343.386,317.899,321.333,326.447,294.13,326.447z"/>
	<path style="fill:#DC8744;" d="M292.1,322.193v-2.613c-8.44-0.334-16.016-1.634-22.72-3.901l6.742-3.115
		c5.171,1.742,10.492,2.779,15.979,3.115v-6.946c-6.96-0.644-12.055-1.492-15.287-2.542c-3.232-1.05-4.848-2.608-4.848-4.672
		s1.856-3.753,5.584-5.067c3.728-1.313,8.576-2.028,14.551-2.147v-1.79h5.907v1.825c6.772,0.192,13.175,1.087,19.211,2.686
		l-6.005,3.294c-4.066-1.122-8.463-1.814-13.205-2.077v6.73h0.278c7.08,0.645,12.281,1.516,15.603,2.613
		c3.33,1.098,4.991,2.692,4.991,4.78c0,2.089-1.909,3.79-5.727,5.102c-3.818,1.314-8.861,2.029-15.144,2.149v2.577H292.1z
		 M285.584,299.084c-1.571,0.536-2.352,1.205-2.352,2.005s0.616,1.432,1.849,1.897c1.225,0.466,3.57,0.913,7.02,1.343v-6.194
		C289.327,298.23,287.155,298.546,285.584,299.084z M305.028,314.782c1.721-0.548,2.585-1.24,2.585-2.076
		c0-0.835-0.676-1.498-2.029-1.987c-1.36-0.489-3.886-0.948-7.576-1.378v6.443C300.961,315.666,303.299,315.331,305.028,314.782z"/>
</g>
<path style="fill:#F6C358;" d="M357.623,302.669c0,14.744-28.427,26.696-63.493,26.696s-63.493-11.952-63.493-26.696v-21.838
	h126.987V302.669z"/>
<ellipse style="fill:#FCD462;" cx="294.144" cy="280.831" rx="63.493" ry="26.696"/>
<g>
	<path style="fill:#DC8744;" d="M294.13,259.35c-30.604,0-55.414,9.617-55.414,21.481c0,11.864,24.81,21.481,55.414,21.481
		s55.414-9.617,55.414-21.481C349.543,268.967,324.734,259.35,294.13,259.35z M294.13,299.925c-27.203,0-49.256-8.549-49.256-19.094
		c0-10.545,22.053-19.094,49.256-19.094c27.203,0,49.256,8.549,49.256,19.094C343.386,291.377,321.333,299.925,294.13,299.925z"/>
	<path style="fill:#DC8744;" d="M292.1,295.671v-2.613c-8.44-0.334-16.016-1.634-22.72-3.901l6.742-3.115
		c5.171,1.742,10.492,2.78,15.979,3.115v-6.946c-6.96-0.644-12.055-1.492-15.287-2.542c-3.232-1.05-4.848-2.608-4.848-4.672
		c0-2.064,1.856-3.753,5.584-5.067c3.728-1.313,8.576-2.028,14.551-2.147v-1.79h5.907v1.825c6.772,0.192,13.175,1.087,19.211,2.686
		l-6.005,3.294c-4.066-1.122-8.463-1.814-13.205-2.077v6.73h0.278c7.08,0.645,12.281,1.516,15.603,2.613
		c3.33,1.098,4.991,2.692,4.991,4.78c0,2.089-1.909,3.79-5.727,5.102c-3.818,1.314-8.861,2.029-15.144,2.149v2.577H292.1z
		 M285.584,272.562c-1.571,0.536-2.352,1.205-2.352,2.005s0.616,1.432,1.849,1.897c1.225,0.466,3.57,0.913,7.02,1.343v-6.194
		C289.327,271.708,287.155,272.024,285.584,272.562z M305.028,288.26c1.721-0.548,2.585-1.24,2.585-2.076
		c0-0.835-0.676-1.498-2.029-1.987c-1.36-0.489-3.886-0.948-7.576-1.378v6.443C300.961,289.144,303.299,288.809,305.028,288.26z"/>
</g>
<path style="fill:#F6C358;" d="M357.623,276.147c0,14.744-28.427,26.696-63.493,26.696s-63.493-11.952-63.493-26.696v-21.838
	h126.987V276.147z"/>
<ellipse style="fill:#FCD462;" cx="294.144" cy="254.31" rx="63.493" ry="26.696"/>
<g>
	<path style="fill:#DC8744;" d="M294.13,232.828c-30.604,0-55.414,9.617-55.414,21.481c0,11.864,24.81,21.481,55.414,21.481
		s55.414-9.617,55.414-21.481C349.543,242.445,324.734,232.828,294.13,232.828z M294.13,273.403
		c-27.203,0-49.256-8.549-49.256-19.094c0-10.546,22.053-19.094,49.256-19.094c27.203,0,49.256,8.549,49.256,19.094
		C343.386,264.855,321.333,273.403,294.13,273.403z"/>
	<path style="fill:#DC8744;" d="M292.1,269.148v-2.613c-8.44-0.334-16.016-1.634-22.72-3.901l6.742-3.115
		c5.171,1.742,10.492,2.78,15.979,3.115v-6.946c-6.96-0.644-12.055-1.492-15.287-2.542s-4.848-2.608-4.848-4.672
		c0-2.064,1.856-3.753,5.584-5.067c3.728-1.313,8.576-2.028,14.551-2.147v-1.79h5.907v1.825c6.772,0.192,13.175,1.087,19.211,2.686
		l-6.005,3.294c-4.066-1.122-8.463-1.814-13.205-2.077v6.73h0.278c7.08,0.645,12.281,1.516,15.603,2.613
		c3.33,1.098,4.991,2.692,4.991,4.78c0,2.089-1.909,3.791-5.727,5.102c-3.818,1.314-8.861,2.029-15.144,2.149v2.577H292.1z
		 M285.584,246.04c-1.571,0.536-2.352,1.205-2.352,2.005c0,0.8,0.616,1.432,1.849,1.897c1.225,0.466,3.57,0.913,7.02,1.343v-6.194
		C289.327,245.186,287.155,245.502,285.584,246.04z M305.028,261.738c1.721-0.548,2.585-1.24,2.585-2.076
		c0-0.835-0.676-1.498-2.029-1.987c-1.36-0.489-3.886-0.948-7.576-1.378v6.443C300.961,262.622,303.299,262.287,305.028,261.738z"/>
</g>
<path style="fill:#F6C358;" d="M357.623,249.625c0,14.744-28.427,26.696-63.493,26.696s-63.493-11.952-63.493-26.696v-21.838
	h126.987V249.625z"/>
<ellipse style="fill:#FCD462;" cx="294.144" cy="227.788" rx="63.493" ry="26.696"/>
<g>
	<path style="fill:#DC8744;" d="M294.13,206.306c-30.604,0-55.414,9.617-55.414,21.481c0,11.864,24.81,21.481,55.414,21.481
		s55.414-9.617,55.414-21.481C349.543,215.923,324.734,206.306,294.13,206.306z M294.13,246.881
		c-27.203,0-49.256-8.549-49.256-19.094c0-10.546,22.053-19.094,49.256-19.094c27.203,0,49.256,8.549,49.256,19.094
		C343.386,238.333,321.333,246.881,294.13,246.881z"/>
	<path style="fill:#DC8744;" d="M292.1,242.626v-2.613c-8.44-0.334-16.016-1.634-22.72-3.901l6.742-3.115
		c5.171,1.742,10.492,2.78,15.979,3.115v-6.946c-6.96-0.644-12.055-1.492-15.287-2.542c-3.232-1.05-4.848-2.608-4.848-4.672
		c0-2.064,1.856-3.753,5.584-5.067c3.728-1.313,8.576-2.028,14.551-2.147v-1.79h5.907v1.825c6.772,0.192,13.175,1.087,19.211,2.686
		l-6.005,3.294c-4.066-1.122-8.463-1.814-13.205-2.077v6.73h0.278c7.08,0.645,12.281,1.517,15.603,2.613
		c3.33,1.098,4.991,2.692,4.991,4.78c0,2.089-1.909,3.791-5.727,5.102c-3.818,1.314-8.861,2.029-15.144,2.149v2.577H292.1z
		 M285.584,219.518c-1.571,0.536-2.352,1.205-2.352,2.005c0,0.8,0.616,1.432,1.849,1.897c1.225,0.466,3.57,0.913,7.02,1.343v-6.194
		C289.327,218.664,287.155,218.98,285.584,219.518z M305.028,235.216c1.721-0.548,2.585-1.24,2.585-2.076
		c0-0.835-0.676-1.498-2.029-1.987c-1.36-0.489-3.886-0.948-7.576-1.378v6.443C300.961,236.1,303.299,235.765,305.028,235.216z"/>
</g>
<path style="fill:#F6C358;" d="M491.52,435.279c0,14.744-28.427,26.696-63.493,26.696s-63.493-11.952-63.493-26.696v-21.838H491.52
	V435.279z"/>
<ellipse style="fill:#FCD462;" cx="428.032" cy="413.439" rx="63.493" ry="26.696"/>
<g>
	<path style="fill:#DC8744;" d="M428.027,391.96c-30.604,0-55.414,9.617-55.414,21.481c0,11.864,24.81,21.481,55.414,21.481
		s55.414-9.617,55.414-21.481C483.44,401.578,458.631,391.96,428.027,391.96z M428.027,432.536
		c-27.203,0-49.256-8.549-49.256-19.094c0-10.546,22.053-19.094,49.256-19.094c27.203,0,49.256,8.549,49.256,19.094
		C477.283,423.987,455.23,432.536,428.027,432.536z"/>
	<path style="fill:#DC8744;" d="M425.997,428.281v-2.613c-8.44-0.334-16.016-1.634-22.72-3.901l6.742-3.115
		c5.171,1.742,10.492,2.78,15.979,3.115v-6.946c-6.96-0.644-12.055-1.492-15.287-2.542c-3.232-1.05-4.848-2.608-4.848-4.672
		c0-2.064,1.856-3.753,5.584-5.067c3.728-1.313,8.576-2.028,14.551-2.147v-1.79h5.907v1.825c6.772,0.192,13.175,1.087,19.211,2.686
		l-6.005,3.294c-4.066-1.122-8.463-1.814-13.205-2.077v6.73h0.278c7.08,0.645,12.281,1.516,15.603,2.613
		c3.33,1.098,4.991,2.692,4.991,4.78c0,2.089-1.909,3.79-5.727,5.102c-3.818,1.314-8.861,2.029-15.144,2.149v2.577H425.997z
		 M419.481,405.172c-1.571,0.536-2.352,1.205-2.352,2.004s0.616,1.432,1.849,1.897c1.225,0.466,3.57,0.913,7.02,1.343v-6.194
		C423.224,404.318,421.052,404.635,419.481,405.172z M438.925,420.87c1.721-0.548,2.585-1.24,2.585-2.076
		c0-0.835-0.676-1.498-2.029-1.987c-1.36-0.49-3.886-0.948-7.576-1.378v6.443C434.859,421.754,437.196,421.419,438.925,420.87z"/>
</g>
<path style="fill:#F6C358;" d="M491.52,408.757c0,14.744-28.427,26.696-63.493,26.696s-63.493-11.952-63.493-26.696v-21.838H491.52
	V408.757z"/>
<ellipse style="fill:#FCD462;" cx="428.032" cy="386.918" rx="63.493" ry="26.696"/>
<g>
	<path style="fill:#DC8744;" d="M428.027,365.438c-30.604,0-55.414,9.617-55.414,21.481c0,11.864,24.81,21.481,55.414,21.481
		s55.414-9.617,55.414-21.481C483.44,375.056,458.631,365.438,428.027,365.438z M428.027,406.014
		c-27.203,0-49.256-8.549-49.256-19.094c0-10.546,22.053-19.094,49.256-19.094c27.203,0,49.256,8.549,49.256,19.094
		C477.283,397.465,455.23,406.014,428.027,406.014z"/>
	<path style="fill:#DC8744;" d="M425.997,401.759v-2.613c-8.44-0.334-16.016-1.634-22.72-3.901l6.742-3.115
		c5.171,1.742,10.492,2.78,15.979,3.115v-6.946c-6.96-0.644-12.055-1.492-15.287-2.542c-3.232-1.05-4.848-2.608-4.848-4.672
		c0-2.064,1.856-3.753,5.584-5.067c3.728-1.313,8.576-2.028,14.551-2.147v-1.79h5.907v1.825c6.772,0.192,13.175,1.087,19.211,2.686
		l-6.005,3.294c-4.066-1.122-8.463-1.814-13.205-2.077v6.73h0.278c7.08,0.645,12.281,1.516,15.603,2.613
		c3.33,1.098,4.991,2.692,4.991,4.78c0,2.089-1.909,3.79-5.727,5.102c-3.818,1.314-8.861,2.029-15.144,2.149v2.577H425.997z
		 M419.481,378.65c-1.571,0.536-2.352,1.205-2.352,2.005s0.616,1.432,1.849,1.897c1.225,0.466,3.57,0.913,7.02,1.343V377.7
		C423.224,377.796,421.052,378.113,419.481,378.65z M438.925,394.348c1.721-0.548,2.585-1.24,2.585-2.076
		c0-0.835-0.676-1.498-2.029-1.987c-1.36-0.489-3.886-0.948-7.576-1.378v6.443C434.859,395.232,437.196,394.897,438.925,394.348z"/>
</g>
<path style="fill:#F6C358;" d="M491.52,382.235c0,14.744-28.427,26.696-63.493,26.696s-63.493-11.952-63.493-26.696v-21.838H491.52
	V382.235z"/>
<ellipse style="fill:#FCD462;" cx="428.032" cy="360.396" rx="63.493" ry="26.696"/>
<g>
	<path style="fill:#DC8744;" d="M428.027,338.916c-30.604,0-55.414,9.617-55.414,21.481c0,11.864,24.81,21.481,55.414,21.481
		s55.414-9.617,55.414-21.481C483.44,348.534,458.631,338.916,428.027,338.916z M428.027,379.492
		c-27.203,0-49.256-8.549-49.256-19.094c0-10.546,22.053-19.094,49.256-19.094c27.203,0,49.256,8.549,49.256,19.094
		C477.283,370.943,455.23,379.492,428.027,379.492z"/>
	<path style="fill:#DC8744;" d="M425.997,375.237v-2.613c-8.44-0.334-16.016-1.634-22.72-3.901l6.742-3.115
		c5.171,1.742,10.492,2.78,15.979,3.115v-6.946c-6.96-0.644-12.055-1.492-15.287-2.542c-3.232-1.05-4.848-2.608-4.848-4.672
		c0-2.064,1.856-3.753,5.584-5.067c3.728-1.313,8.576-2.028,14.551-2.147v-1.79h5.907v1.825c6.772,0.192,13.175,1.087,19.211,2.686
		l-6.005,3.294c-4.066-1.122-8.463-1.814-13.205-2.077v6.73h0.278c7.08,0.645,12.281,1.516,15.603,2.613
		c3.33,1.098,4.991,2.692,4.991,4.78c0,2.089-1.909,3.79-5.727,5.102c-3.818,1.314-8.861,2.029-15.144,2.149v2.577H425.997z
		 M419.481,352.128c-1.571,0.536-2.352,1.205-2.352,2.005c0,0.8,0.616,1.432,1.849,1.897c1.225,0.466,3.57,0.913,7.02,1.343v-6.194
		C423.224,351.274,421.052,351.59,419.481,352.128z M438.925,367.826c1.721-0.548,2.585-1.24,2.585-2.076
		c0-0.835-0.676-1.498-2.029-1.987c-1.36-0.489-3.886-0.948-7.576-1.378v6.443C434.859,368.71,437.196,368.375,438.925,367.826z"/>
</g>
<path style="fill:#F6C358;" d="M491.52,355.713c0,14.744-28.427,26.696-63.493,26.696s-63.493-11.952-63.493-26.696v-21.838H491.52
	V355.713z"/>
<ellipse style="fill:#FCD462;" cx="428.032" cy="333.874" rx="63.493" ry="26.696"/>
<g>
	<path style="fill:#DC8744;" d="M428.027,312.394c-30.604,0-55.414,9.617-55.414,21.481c0,11.864,24.81,21.481,55.414,21.481
		s55.414-9.617,55.414-21.481C483.44,322.012,458.631,312.394,428.027,312.394z M428.027,352.97
		c-27.203,0-49.256-8.549-49.256-19.094c0-10.546,22.053-19.094,49.256-19.094c27.203,0,49.256,8.549,49.256,19.094
		C477.283,344.421,455.23,352.97,428.027,352.97z"/>
	<path style="fill:#DC8744;" d="M425.997,348.715v-2.613c-8.44-0.334-16.016-1.634-22.72-3.901l6.742-3.115
		c5.171,1.742,10.492,2.78,15.979,3.115v-6.946c-6.96-0.644-12.055-1.492-15.287-2.542c-3.232-1.05-4.848-2.608-4.848-4.672
		c0-2.064,1.856-3.753,5.584-5.067c3.728-1.313,8.576-2.028,14.551-2.147v-1.79h5.907v1.825c6.772,0.192,13.175,1.087,19.211,2.686
		l-6.005,3.294c-4.066-1.122-8.463-1.814-13.205-2.077v6.73h0.278c7.08,0.645,12.281,1.516,15.603,2.613
		c3.33,1.098,4.991,2.692,4.991,4.78c0,2.089-1.909,3.79-5.727,5.102c-3.818,1.314-8.861,2.029-15.144,2.149v2.577H425.997z
		 M419.481,325.606c-1.571,0.536-2.352,1.205-2.352,2.005c0,0.8,0.616,1.432,1.849,1.897c1.225,0.466,3.57,0.913,7.02,1.343v-6.194
		C423.224,324.752,421.052,325.068,419.481,325.606z M438.925,341.304c1.721-0.548,2.585-1.24,2.585-2.076
		c0-0.835-0.676-1.498-2.029-1.987c-1.36-0.489-3.886-0.948-7.576-1.378v6.443C434.859,342.188,437.196,341.853,438.925,341.304z"/>
</g>
<path style="fill:#F6C358;" d="M491.52,329.191c0,14.744-28.427,26.696-63.493,26.696s-63.493-11.952-63.493-26.696v-21.838H491.52
	V329.191z"/>
<ellipse style="fill:#FCD462;" cx="428.032" cy="307.353" rx="63.493" ry="26.696"/>
<g>
	<path style="fill:#DC8744;" d="M428.027,285.872c-30.604,0-55.414,9.617-55.414,21.481c0,11.864,24.81,21.481,55.414,21.481
		s55.414-9.617,55.414-21.481C483.44,295.49,458.631,285.872,428.027,285.872z M428.027,326.447
		c-27.203,0-49.256-8.549-49.256-19.094c0-10.546,22.053-19.094,49.256-19.094c27.203,0,49.256,8.549,49.256,19.094
		C477.283,317.899,455.23,326.447,428.027,326.447z"/>
	<path style="fill:#DC8744;" d="M425.997,322.193v-2.613c-8.44-0.334-16.016-1.634-22.72-3.901l6.742-3.115
		c5.171,1.742,10.492,2.779,15.979,3.115v-6.946c-6.96-0.644-12.055-1.492-15.287-2.542c-3.232-1.05-4.848-2.608-4.848-4.672
		s1.856-3.753,5.584-5.067c3.728-1.313,8.576-2.028,14.551-2.147v-1.79h5.907v1.825c6.772,0.192,13.175,1.087,19.211,2.686
		l-6.005,3.294c-4.066-1.122-8.463-1.814-13.205-2.077v6.73h0.278c7.08,0.645,12.281,1.516,15.603,2.613
		c3.33,1.098,4.991,2.692,4.991,4.78c0,2.089-1.909,3.79-5.727,5.102c-3.818,1.314-8.861,2.029-15.144,2.149v2.577H425.997z
		 M419.481,299.084c-1.571,0.536-2.352,1.205-2.352,2.005s0.616,1.432,1.849,1.897c1.225,0.466,3.57,0.913,7.02,1.343v-6.194
		C423.224,298.23,421.052,298.546,419.481,299.084z M438.925,314.782c1.721-0.548,2.585-1.24,2.585-2.076
		c0-0.835-0.676-1.498-2.029-1.987c-1.36-0.489-3.886-0.948-7.576-1.378v6.443C434.859,315.666,437.196,315.331,438.925,314.782z"/>
</g>
<circle style="fill:#FCD462;" cx="315.597" cy="392.089" r="69.893"/>
<g>
	<path style="fill:#DC8744;" d="M315.577,331.086c-33.688,0-60.998,27.309-60.998,60.998c0,33.688,27.31,60.998,60.998,60.998
		s60.998-27.31,60.998-60.998C376.574,358.396,349.264,331.086,315.577,331.086z M315.577,446.304
		c-29.944,0-54.22-24.275-54.22-54.22c0-29.945,24.275-54.22,54.22-54.22c29.944,0,54.22,24.275,54.22,54.22
		C369.796,422.029,345.521,446.304,315.577,446.304z"/>
	<path style="fill:#DC8744;" d="M313.343,434.221V426.8c-9.291-0.947-17.63-4.641-25.01-11.078l7.421-8.844
		c5.692,4.947,11.549,7.893,17.589,8.844v-19.723c-7.661-1.828-13.27-4.236-16.828-7.218c-3.557-2.982-5.336-7.405-5.336-13.266
		c0-5.862,2.043-10.656,6.147-14.387c4.103-3.727,9.44-5.758,16.017-6.097v-5.084h6.503v5.183
		c7.454,0.546,14.503,3.086,21.146,7.628l-6.61,9.353c-4.476-3.185-9.316-5.15-14.536-5.899v19.111h0.306
		c7.793,1.832,13.518,4.306,17.175,7.421c3.665,3.119,5.493,7.644,5.493,13.572c0,5.932-2.101,10.763-6.304,14.486
		c-4.203,3.731-9.754,5.762-16.67,6.102v7.318H313.343z M306.17,368.602c-1.729,1.522-2.59,3.421-2.59,5.692
		c0,2.271,0.678,4.066,2.035,5.386c1.349,1.324,3.93,2.594,7.727,3.814v-17.589C310.29,366.178,307.899,367.076,306.17,368.602z
		 M327.573,413.178c1.895-1.555,2.846-3.52,2.846-5.895c0-2.37-0.745-4.252-2.234-5.642c-1.497-1.39-4.277-2.693-8.339-3.913v18.296
		C323.097,415.689,325.67,414.738,327.573,413.178z"/>
</g>
<g>
</g>
<g>
</g>
<g>
</g>
<g>
</g>
<g>
</g>
<g>
</g>
<g>
</g>
<g>
</g>
<g>
</g>
<g>
</g>
<g>
</g>
<g>
</g>
<g>
</g>
<g>
</g>
<g>
</g>
</svg>
