<?xml version="1.0" encoding="iso-8859-1"?>
<!-- Generator: Adobe Illustrator 19.0.0, SVG Export Plug-In . SVG Version: 6.00 Build 0)  -->
<svg version="1.1" id="Layer_1" xmlns="http://www.w3.org/2000/svg" xmlns:xlink="http://www.w3.org/1999/xlink" x="0px" y="0px"
	 viewBox="0 0 491.52 491.52" style="enable-background:new 0 0 491.52 491.52;" xml:space="preserve">
<rect y="127.032" style="fill:#FCD462;" width="432.691" height="34.796"/>
<g>
	<rect y="397.926" style="fill:#EBF0F3;" width="432.691" height="34.796"/>
	<polygon style="fill:#EBF0F3;" points="216.355,0 0,127.032 432.709,127.032 	"/>
</g>
<polygon style="fill:#E1E6E9;" points="86.813,103.428 216.357,27.37 345.901,103.428 "/>
<rect x="28.897" y="182.093" style="fill:#EBF0F3;" width="67.927" height="199.05"/>
<g>
	<path style="fill:#E1E6E9;" d="M98.064,371.438H27.658c-3.051,0-5.525,2.473-5.525,5.525v20.951h81.456v-20.951
		C103.589,373.911,101.115,371.438,98.064,371.438z"/>
	<path style="fill:#E1E6E9;" d="M22.133,161.828v20.951c0,3.051,2.474,5.525,5.525,5.525h70.406c3.051,0,5.525-2.473,5.525-5.525
		v-20.951H22.133z"/>
	<path style="fill:#E1E6E9;" d="M44.252,359.818c-2.174,0-3.934-1.759-3.934-3.934V207.347c0-2.174,1.759-3.934,3.934-3.934
		s3.934,1.759,3.934,3.934v148.538C48.186,358.059,46.427,359.818,44.252,359.818z"/>
	<path style="fill:#E1E6E9;" d="M62.861,359.818c-2.174,0-3.934-1.759-3.934-3.934V207.347c0-2.174,1.759-3.934,3.934-3.934
		c2.174,0,3.934,1.759,3.934,3.934v148.538C66.794,358.059,65.035,359.818,62.861,359.818z"/>
	<path style="fill:#E1E6E9;" d="M81.469,359.818c-2.174,0-3.934-1.759-3.934-3.934V207.347c0-2.174,1.759-3.934,3.934-3.934
		c2.174,0,3.934,1.759,3.934,3.934v148.538C85.403,358.059,83.643,359.818,81.469,359.818z"/>
</g>
<rect x="182.39" y="182.093" style="fill:#EBF0F3;" width="67.927" height="199.05"/>
<g>
	<path style="fill:#E1E6E9;" d="M251.557,371.438h-70.406c-3.051,0-5.525,2.473-5.525,5.525v20.951h81.456v-20.951
		C257.082,373.911,254.608,371.438,251.557,371.438z"/>
	<path style="fill:#E1E6E9;" d="M175.627,161.828v20.951c0,3.051,2.474,5.525,5.525,5.525h70.406c3.051,0,5.525-2.473,5.525-5.525
		v-20.951H175.627z"/>
	<path style="fill:#E1E6E9;" d="M197.746,359.818c-2.174,0-3.934-1.759-3.934-3.934V207.347c0-2.174,1.759-3.934,3.934-3.934
		c2.174,0,3.934,1.759,3.934,3.934v148.538C201.68,358.059,199.921,359.818,197.746,359.818z"/>
	<path style="fill:#E1E6E9;" d="M216.355,359.818c-2.174,0-3.934-1.759-3.934-3.934V207.347c0-2.174,1.759-3.934,3.934-3.934
		c2.174,0,3.934,1.759,3.934,3.934v148.538C220.288,358.059,218.529,359.818,216.355,359.818z"/>
	<path style="fill:#E1E6E9;" d="M234.963,359.818c-2.174,0-3.934-1.759-3.934-3.934V207.347c0-2.174,1.759-3.934,3.934-3.934
		c2.174,0,3.934,1.759,3.934,3.934v148.538C238.897,358.059,237.137,359.818,234.963,359.818z"/>
</g>
<rect x="335.872" y="182.093" style="fill:#EBF0F3;" width="67.927" height="199.05"/>
<g>
	<path style="fill:#E1E6E9;" d="M405.051,371.438h-70.406c-3.051,0-5.525,2.473-5.525,5.525v20.951h81.456v-20.951
		C410.576,373.911,408.102,371.438,405.051,371.438z"/>
	<path style="fill:#E1E6E9;" d="M329.121,161.828v20.951c0,3.051,2.474,5.525,5.525,5.525h70.406c3.051,0,5.525-2.473,5.525-5.525
		v-20.951H329.121z"/>
	<path style="fill:#E1E6E9;" d="M351.24,359.818c-2.174,0-3.934-1.759-3.934-3.934V207.347c0-2.174,1.759-3.934,3.934-3.934
		c2.174,0,3.934,1.759,3.934,3.934v148.538C355.174,358.059,353.414,359.818,351.24,359.818z"/>
	<path style="fill:#E1E6E9;" d="M369.848,359.818c-2.174,0-3.934-1.759-3.934-3.934V207.347c0-2.174,1.759-3.934,3.934-3.934
		s3.934,1.759,3.934,3.934v148.538C373.782,358.059,372.023,359.818,369.848,359.818z"/>
	<path style="fill:#E1E6E9;" d="M388.457,359.818c-2.174,0-3.934-1.759-3.934-3.934V207.347c0-2.174,1.759-3.934,3.934-3.934
		c2.174,0,3.934,1.759,3.934,3.934v148.538C392.39,358.059,390.631,359.818,388.457,359.818z"/>
</g>
<path style="fill:#DC8744;" d="M215.044,93.425V89.07c-5.452-0.556-10.345-2.723-14.676-6.5l4.355-5.19
	c3.34,2.903,6.777,4.631,10.321,5.19V70.997c-4.495-1.073-7.787-2.486-9.874-4.236c-2.087-1.75-3.131-4.345-3.131-7.784
	c0-3.439,1.199-6.253,3.607-8.442c2.408-2.187,5.539-3.379,9.399-3.578v-2.983h3.816v3.041c4.374,0.32,8.51,1.811,12.408,4.476
	l-3.879,5.488c-2.626-1.869-5.466-3.022-8.53-3.461v11.214h0.18c4.573,1.075,7.932,2.527,10.078,4.355
	c2.151,1.83,3.223,4.486,3.223,7.964c0,3.481-1.233,6.316-3.699,8.5c-2.466,2.189-5.724,3.381-9.782,3.58v4.294H215.044z
	 M210.835,54.92c-1.015,0.893-1.519,2.007-1.519,3.34s0.398,2.386,1.194,3.16c0.791,0.777,2.306,1.522,4.534,2.238V53.338
	C213.252,53.498,211.849,54.025,210.835,54.92z M223.394,81.077c1.112-0.913,1.67-2.066,1.67-3.459c0-1.391-0.437-2.495-1.311-3.311
	c-0.879-0.816-2.51-1.58-4.893-2.296v10.736C220.767,82.551,222.277,81.992,223.394,81.077z"/>
<path style="fill:#E56353;" d="M307.078,319.127c0,50.932,92.221,172.393,92.221,172.393V226.906
	C348.367,226.906,307.078,268.194,307.078,319.127z"/>
<path style="fill:#D15241;" d="M399.299,226.906V491.52c0,0,92.221-121.461,92.221-172.393
	C491.52,268.194,450.231,226.906,399.299,226.906z"/>
<path style="fill:#EBF0F3;" d="M399.302,375.88c-31.292,0-56.751-25.459-56.751-56.751s25.459-56.751,56.751-56.751
	s56.751,25.459,56.751,56.751S430.595,375.88,399.302,375.88z"/>
<g>
</g>
<g>
</g>
<g>
</g>
<g>
</g>
<g>
</g>
<g>
</g>
<g>
</g>
<g>
</g>
<g>
</g>
<g>
</g>
<g>
</g>
<g>
</g>
<g>
</g>
<g>
</g>
<g>
</g>
</svg>
