<svg height="512pt" viewBox="0 0 512 512" width="512pt" xmlns="http://www.w3.org/2000/svg"><path d="m512 512h-512v-480c0-17.679688 14.320312-32 32-32h448c17.679688 0 32 14.320312 32 32zm0 0" fill="#77959e"/><path d="m96 352h32v32h-32zm0 0" fill="#b0b4b9"/><path d="m160 352h32v32h-32zm0 0" fill="#b0b4b9"/><path d="m96 416h32v32h-32zm0 0" fill="#b0b4b9"/><path d="m160 416h32v32h-32zm0 0" fill="#b0b4b9"/><path d="m240 352h160v160h-160zm0 0" fill="#62808c"/><path d="m256 368h128v112h-128zm0 0" fill="#8eb259"/><g fill="#fff"><path d="m32 112h32v32h-32zm0 0"/><path d="m32 176h32v32h-32zm0 0"/><path d="m32 240h32v32h-32zm0 0"/><path d="m448 112h32v32h-32zm0 0"/><path d="m448 176h32v32h-32zm0 0"/><path d="m448 240h32v32h-32zm0 0"/></g><path d="m384 320h-256c-17.679688 0-32-14.320312-32-32v-192c0-17.679688 14.320312-32 32-32h256c17.679688 0 32 14.320312 32 32v192c0 17.679688-14.320312 32-32 32zm0 0" fill="#2668ed"/><path d="m384 64h-256c-17.679688 0-32 14.320312-32 32v32c0-17.679688 14.320312-32 32-32h256c17.679688 0 32 14.320312 32 32v-32c0-17.679688-14.320312-32-32-32zm0 0" fill="#1458e0"/><path d="m128 112h32v32h-32zm0 0" fill="#fff"/><path d="m192 112h32v32h-32zm0 0" fill="#fff"/><path d="m256 368h128v48h-128zm0 0" fill="#7ea33d"/><path d="m384 384h-128c-17.679688 0-32-14.320312-32-32h192c0 17.679688-14.320312 32-32 32zm0 0" fill="#e4edfb"/></svg>