<?xml version="1.0"?>
<svg xmlns="http://www.w3.org/2000/svg" xmlns:xlink="http://www.w3.org/1999/xlink" version="1.1" id="Layer_1" x="0px" y="0px" viewBox="0 0 491.52 491.52" style="enable-background:new 0 0 491.52 491.52;" xml:space="preserve" width="512px" height="512px" class=""><g><path style="fill:#64798A;" d="M378.835,0h-266.15C96.681,0,83.709,12.973,83.709,28.976v433.568  c0,16.003,12.973,28.976,28.976,28.976h266.15c16.004,0,28.976-12.973,28.976-28.976V28.976C407.811,12.973,394.839,0,378.835,0z" data-original="#64798A"/><rect x="119.46" y="35.748" style="fill:#EBF0F3;" width="252.621" height="384.87" data-original="#EBF0F3"/><rect x="119.46" y="399.616" style="fill:#E1E6E9;" width="252.621" height="21.012" data-original="#E1E6E9"/><rect x="142.561" y="77.967" style="fill:#27A2DB;" width="206.387" height="291.579" data-original="#27A2DB"/><g>
	<rect x="159.386" y="266.957" style="fill:#2D93BA" width="172.764" height="31.411" data-original="#2D93BA" class="active-path" data-old_color="#27A2DB"/>
	<rect x="159.386" y="320.614" style="fill:#2D93BA" width="172.764" height="31.411" data-original="#2D93BA" class="active-path" data-old_color="#27A2DB"/>
</g><g>
	<rect x="159.386" y="260.239" style="fill:#27A2DB" width="172.764" height="31.411" data-original="#FFFFFF" class="" data-old_color="#FFFFFF"/>
	<rect x="159.386" y="313.907" style="fill:#27A2DB" width="172.764" height="31.411" data-original="#FFFFFF" class="" data-old_color="#FFFFFF"/>
</g><rect x="191.959" y="102.912" style="fill:#2D93BA" width="107.622" height="117.356" data-original="#2D93BA" class="active-path" data-old_color="#27A2DB"/><g>
	<circle style="fill:#27A2DB;" cx="247.347" cy="134.093" r="21.023" data-original="#27A2DB"/>
	<path style="fill:#27A2DB;" d="M245.76,165.126c-24.866,0-45.025,20.155-45.025,45.023h90.05   C290.785,185.281,270.626,165.126,245.76,165.126z" data-original="#27A2DB"/>
</g><path style="fill:#3A556A" d="M245.76,479.73c-13.78,0-24.986-11.206-24.986-24.986s11.206-24.995,24.986-24.995  c13.78,0,24.986,11.215,24.986,24.995S259.54,479.73,245.76,479.73z M245.76,438.685c-8.849,0-16.049,7.2-16.049,16.058  c0,8.849,7.2,16.049,16.049,16.049c8.849,0,16.049-7.2,16.049-16.049C261.809,445.885,254.609,438.685,245.76,438.685z" data-original="#3A556A" class=""/></g> </svg>
