<svg height="512pt" viewBox="0 0 512 512" width="512pt" xmlns="http://www.w3.org/2000/svg"><path d="m512 81.597656v136.804688l-82.597656 81.597656h-347.804688l-81.597656-81.597656v-136.804688l81.597656-81.597656h347.804688zm0 0" fill="#c1ffa1"/><path d="m512 81.597656v136.804688l-82.597656 81.597656h-173.402344v-300h173.402344zm0 0" fill="#90e36a"/><path d="m256 0c-58.800781 0-105 66-105 150s46.199219 150 105 150 105-66 105-150-46.199219-150-105-150zm0 0" fill="#70da40"/><path d="m361 150c0 84-46.199219 150-105 150v-300c58.800781 0 105 66 105 150zm0 0" fill="#56c225"/><path d="m512 218.34375c-8.859375-5.167969-20.023438-8.34375-31-8.34375-33.089844 0-60 26.910156-60 60 0 10.976562 3.175781 21.140625 8.34375 30h82.65625zm0 0" fill="#70da40"/><path d="m429.34375 0c-5.167969 8.859375-8.34375 19.023438-8.34375 30 0 33.089844 26.910156 60 60 60 10.976562 0 22.140625-3.175781 31-8.34375v-81.65625zm0 0" fill="#70da40"/><path d="m90 30c0-10.976562-3.175781-21.140625-8.34375-30h-81.65625v81.65625c8.859375 5.167969 19.023438 8.34375 30 8.34375 33.089844 0 60-26.910156 60-60zm0 0" fill="#90e36a"/><path d="m30 210c-10.976562 0-21.140625 3.175781-30 8.34375v81.65625h81.65625c5.167969-8.859375 8.34375-19.023438 8.34375-30 0-33.089844-26.910156-60-60-60zm0 0" fill="#90e36a"/><path d="m406 128.785156 21.210938 21.210938-21.210938 21.210937-21.210938-21.210937zm0 0" fill="#70da40"/><path d="m105 171.210938-21.210938-21.210938 21.210938-21.210938 22.210938 21.210938zm0 0" fill="#90e36a"/><path d="m301 180c0 19.5-12.597656 36-30 42.300781v17.699219h-30v-17.699219c-17.402344-6.300781-30-22.800781-30-42.300781h30c0 8.402344 6.597656 15 15 15s15-6.597656 15-15-6.597656-15-15-15c-24.902344 0-45-20.097656-45-45 0-19.5 12.597656-36 30-42.300781v-17.699219h30v17.699219c17.402344 6.300781 30 22.800781 30 42.300781h-30c0-8.402344-6.597656-15-15-15s-15 6.597656-15 15 6.597656 15 15 15c24.902344 0 45 20.097656 45 45zm0 0" fill="#c1ffa1"/><path d="m301 180c0 19.5-12.597656 36-30 42.300781v17.699219h-15v-45c8.402344 0 15-6.597656 15-15s-6.597656-15-15-15v-30c24.902344 0 45 20.097656 45 45zm0 0" fill="#90e36a"/><path d="m256 105v-45h15v17.699219c17.402344 6.300781 30 22.800781 30 42.300781h-30c0-8.402344-6.597656-15-15-15zm0 0" fill="#90e36a"/><path d="m376 240c-74.398438 0-135 60.597656-135 135 0 74.398438 60.601562 137 135 137s136-62.601562 136-137c0-74.402344-61.601562-135-136-135zm0 0" fill="#fdbf00"/><path d="m512 375c0 74.398438-61.601562 137-136 137v-272c74.398438 0 136 60.597656 136 135zm0 0" fill="#ff9f00"/><path d="m451 360v30h-60v60h-30v-60h-60v-30h60v-60h30v60zm0 0" fill="#6e6e6e"/><path d="m451 360v30h-60v60h-15v-150h15v60zm0 0" fill="#5a5a5a"/></svg>