<svg height="512pt" viewBox="-31 0 512 512" width="512pt" xmlns="http://www.w3.org/2000/svg"><path d="m405 301c-8.289062 0-15-6.710938-15-15v-211c0-8.289062 6.710938-15 15-15s15 6.710938 15 15v211c0 8.289062-6.710938 15-15 15zm0 0" fill="#384949"/><path d="m450 316v181c0 8.398438-6.597656 15-15 15h-420c-8.402344 0-15-6.601562-15-15v-181c0-24.902344 20.097656-45 45-45h360c24.902344 0 45 20.097656 45 45zm0 0" fill="#e2e2e7"/><path d="m450 316v181c0 8.398438-6.597656 15-15 15h-210v-241h180c24.902344 0 45 20.097656 45 45zm0 0" fill="#d3d3d8"/><path d="m360 45v361h-270v-361c0-24.902344 20.097656-45 45-45h180c24.902344 0 45 20.097656 45 45zm0 0" fill="#00eed0"/><path d="m360 45v361h-135v-406h90c24.902344 0 45 20.097656 45 45zm0 0" fill="#00ccb2"/><path d="m285 60h-120c-8.402344 0-15 6.597656-15 15v91c0 8.398438 6.597656 15 15 15h120c8.402344 0 15-6.601562 15-15v-91c0-8.402344-6.597656-15-15-15zm0 0" fill="#3e5959"/><path d="m195 241h-30c-8.289062 0-15-6.710938-15-15s6.710938-15 15-15h30c8.289062 0 15 6.710938 15 15s-6.710938 15-15 15zm0 0" fill="#ececf1"/><path d="m285 241h-30c-8.289062 0-15-6.710938-15-15s6.710938-15 15-15h30c8.289062 0 15 6.710938 15 15s-6.710938 15-15 15zm0 0" fill="#e2e2e7"/><path d="m195 301h-30c-8.289062 0-15-6.710938-15-15s6.710938-15 15-15h30c8.289062 0 15 6.710938 15 15s-6.710938 15-15 15zm0 0" fill="#ececf1"/><path d="m285 301h-30c-8.289062 0-15-6.710938-15-15s6.710938-15 15-15h30c8.289062 0 15 6.710938 15 15s-6.710938 15-15 15zm0 0" fill="#e2e2e7"/><path d="m195 361h-30c-8.289062 0-15-6.710938-15-15s6.710938-15 15-15h30c8.289062 0 15 6.710938 15 15s-6.710938 15-15 15zm0 0" fill="#ececf1"/><path d="m285 361h-30c-8.289062 0-15-6.710938-15-15s6.710938-15 15-15h30c8.289062 0 15 6.710938 15 15s-6.710938 15-15 15zm0 0" fill="#e2e2e7"/><path d="m285 181h-60v-121h60c8.402344 0 15 6.597656 15 15v91c0 8.398438-6.597656 15-15 15zm0 0" fill="#384949"/><path d="m390 406c0 8.398438-6.597656 15-15 15h-300c-8.402344 0-15-6.601562-15-15 0-8.402344 6.597656-15 15-15h300c8.402344 0 15 6.597656 15 15zm0 0" fill="#3e5959"/><path d="m390 406c0 8.398438-6.597656 15-15 15h-150v-30h150c8.402344 0 15 6.597656 15 15zm0 0" fill="#384949"/></svg>