<?xml version="1.0" encoding="iso-8859-1"?>
<!-- Generator: Adobe Illustrator 19.0.0, SVG Export Plug-In . SVG Version: 6.00 Build 0)  -->
<svg version="1.1" id="Layer_1" xmlns="http://www.w3.org/2000/svg" xmlns:xlink="http://www.w3.org/1999/xlink" x="0px" y="0px"
	 viewBox="0 0 512 512" style="enable-background:new 0 0 512 512;" xml:space="preserve">
<path style="fill:#B6BFD5;" d="M392.828,512H119.172c-7.313,0-13.241-5.929-13.241-13.241V13.241C105.931,5.929,111.86,0,119.172,0
	h273.655c7.313,0,13.241,5.929,13.241,13.241v485.517C406.069,506.071,400.14,512,392.828,512z"/>
<path style="fill:#929CB4;" d="M273.655,498.759h-35.31c-7.313,0-13.241-5.929-13.241-13.241l0,0
	c0-7.313,5.929-13.241,13.241-13.241h35.31c7.313,0,13.241,5.929,13.241,13.241l0,0C286.897,492.83,280.968,498.759,273.655,498.759
	z"/>
<path style="fill:#5A5D6F;" d="M282.483,35.31h-52.966c-4.875,0-8.828-3.953-8.828-8.828l0,0c0-4.875,3.953-8.828,8.828-8.828
	h52.966c4.875,0,8.828,3.953,8.828,8.828l0,0C291.31,31.358,287.358,35.31,282.483,35.31z"/>
<path style="fill:#444455;" d="M194.207,35.31L194.207,35.31c-4.875,0-8.828-3.953-8.828-8.828l0,0c0-4.875,3.953-8.828,8.828-8.828
	l0,0c4.875,0,8.828,3.953,8.828,8.828l0,0C203.034,31.358,199.082,35.31,194.207,35.31z"/>
<path style="fill:#5A5D6F;" d="M167.724,35.31L167.724,35.31c-4.875,0-8.828-3.953-8.828-8.828l0,0c0-4.875,3.953-8.828,8.828-8.828
	l0,0c4.875,0,8.828,3.953,8.828,8.828l0,0C176.552,31.358,172.599,35.31,167.724,35.31z"/>
<rect x="105.931" y="52.966" style="fill:#444455;" width="300.138" height="406.069"/>
<g>
</g>
<g>
</g>
<g>
</g>
<g>
</g>
<g>
</g>
<g>
</g>
<g>
</g>
<g>
</g>
<g>
</g>
<g>
</g>
<g>
</g>
<g>
</g>
<g>
</g>
<g>
</g>
<g>
</g>
</svg>
